<?xml version="1.0" encoding="UTF-8"?>
<svg version="1.1" xmlns="http://www.w3.org/2000/svg" width="512" height="512">
<path d="M0 0 C168.96 0 337.92 0 512 0 C512 168.96 512 337.92 512 512 C343.04 512 174.08 512 0 512 C0 343.04 0 174.08 0 0 Z " fill="#FEFEFE" transform="translate(0,0)"/>
<path d="M0 0 C1.63402267 -0.01142029 1.63402267 -0.01142029 3.30105591 -0.02307129 C5.60920934 -0.03387102 7.91741163 -0.03672593 10.22558594 -0.03222656 C13.71114956 -0.0312629 17.19444647 -0.07270768 20.6796875 -0.1171875 C39.89670544 -0.22014119 55.69542566 2.5107408 70.1328125 16.21875 C81.98936904 28.66999276 85.52213868 41.83031953 85.21875 58.63671875 C84.49790542 73.45936409 77.7128722 86.48003378 66.8828125 96.46875 C59.40361987 103.03396212 51.30945895 105.78492831 41.8828125 108.46875 C41.2522847 108.64959641 40.6217569 108.83044281 39.97212219 109.01676941 C37.64472593 109.52025529 35.51453024 109.61726238 33.13354492 109.64575195 C31.72639473 109.66500481 31.72639473 109.66500481 30.29081726 109.68464661 C29.28348038 109.69203354 28.27614349 109.69942047 27.23828125 109.70703125 C26.1951326 109.715103 25.15198395 109.72317474 24.07722473 109.73149109 C21.87075453 109.74531213 19.66426312 109.75604312 17.45776367 109.76391602 C14.09317329 109.78113302 10.72956467 109.82503846 7.36523438 109.86914062 C5.2187572 109.87926783 3.07227171 109.88778385 0.92578125 109.89453125 C-0.07548294 109.91203934 -1.07674713 109.92954742 -2.10835266 109.94758606 C-8.32147257 109.92840314 -12.12360693 109.27708224 -17.1171875 105.46875 C-20.64694793 101.02756308 -20.55090283 97.06918534 -20.52124023 91.64282227 C-20.52810349 90.76415497 -20.53496674 89.88548767 -20.54203796 88.98019409 C-20.56030805 86.08168279 -20.55646813 83.18371266 -20.55078125 80.28515625 C-20.55534298 78.26643193 -20.56064853 76.24770916 -20.56666565 74.22898865 C-20.5755972 69.99984424 -20.57317312 65.77088866 -20.56323242 61.54174805 C-20.55174343 56.12667189 -20.57195314 50.7122479 -20.60114956 45.29725742 C-20.61951073 41.12875744 -20.61921923 36.96041375 -20.61351204 32.79188347 C-20.61335881 30.79562401 -20.61940437 28.79935397 -20.63180351 26.80313301 C-20.64670979 24.00969867 -20.63603908 21.21746934 -20.61889648 18.42407227 C-20.62856445 17.60258194 -20.63823242 16.78109161 -20.64819336 15.93470764 C-20.58038754 10.64828394 -19.57877426 7.68725898 -16.1171875 3.46875 C-11.51078845 -0.66814437 -5.85981526 0.00113193 0 0 Z " fill="#3870FF" transform="translate(21.1171875,194.53125)"/>
<path d="M0 0 C1.26134766 -0.020625 2.52269531 -0.04125 3.82226562 -0.0625 C15.74520591 -0.11133949 28.96967604 0.48769844 38.140625 8.93359375 C44.15185968 15.21002996 47.45707395 22.07353946 47.75 30.8125 C47.40183953 39.05229787 44.68005406 46.90531016 39.3125 53.25 C28.33682546 62.85643198 15.9556369 62.65862462 2.1875 62.4375 C0.54688731 62.42242322 -1.09373881 62.40874012 -2.734375 62.39648438 C-6.71908667 62.3637217 -10.70314209 62.3121063 -14.6875 62.25 C-14.71062764 54.31386213 -14.72841723 46.37773824 -14.73931217 38.44157505 C-14.74454008 34.75685502 -14.75163605 31.07215797 -14.76293945 27.38745117 C-14.77377162 23.83429169 -14.77977753 20.28115437 -14.78237724 16.72797966 C-14.7842309 15.36954334 -14.78785038 14.01110829 -14.79323006 12.65268135 C-14.80044475 10.75617777 -14.80090809 8.85965207 -14.80102539 6.96313477 C-14.803246 5.88169693 -14.80546661 4.80025909 -14.80775452 3.68605042 C-14.50404671 -2.46629672 -4.65151453 0.01828605 0 0 Z " fill="#2E3A40" transform="translate(155.6875,226.75)"/>
<path d="M0 0 C6.06530254 3.18648141 9.97290993 7.58279229 12.15625 14.1328125 C12.98216453 23.20607351 12.5867365 30.59604231 7.15625 38.1328125 C2.7230421 43.30280706 -3.07137717 45.71080081 -9.70703125 46.453125 C-18.13441928 46.77437232 -24.3830892 44.86556171 -31.15625 39.8828125 C-36.65308774 34.25814132 -38.11783861 29.66926939 -38.46875 21.7578125 C-38.23910536 14.54553548 -36.86741712 9.42296098 -31.84375 4.1328125 C-21.79107686 -3.4729309 -11.65294215 -5.27332509 0 0 Z " fill="#2D393F" transform="translate(389.84375,243.8671875)"/>
<path d="M0 0 C5.18513135 2.77937621 9.08132441 6.17393501 11.51953125 11.62890625 C13.64198892 19.3640853 13.61905531 27.70494567 9.72265625 34.81640625 C5.55384962 40.74931782 -0.01709087 43.86725354 -6.77734375 46.19140625 C-16.4557523 47.35389666 -23.11178264 45.27243717 -31.08984375 40.00390625 C-36.45359377 34.39067949 -38.03317677 28.97285221 -38.40234375 21.25390625 C-38.16170214 14.28281964 -36.57372523 9.327021 -31.77734375 4.19140625 C-21.81152709 -3.36407336 -11.57881895 -5.26643588 0 0 Z " fill="#2D393F" transform="translate(498.77734375,243.80859375)"/>
<path d="M0 0 C6.20196791 3.54398166 9.80474736 7.60949471 13 14 C13 17.96 13 21.92 13 26 C1.12 26 -10.76 26 -23 26 C-20 34 -20 34 -15 36 C-7.83391339 36.86895853 -1.61797379 35.74523357 5 33 C6.65 34.65 8.3 36.3 10 38 C8.75976516 41.85850838 6.39142526 43.22640957 2.94921875 45.16796875 C-4.18039298 48.21126995 -12.93890722 48.02344199 -20.1875 45.5625 C-26.7388857 42.62639253 -31.16207149 37.44611596 -34.5 31.1875 C-35.81212632 22.82269472 -35.88049318 15.71496238 -31.625 8.1953125 C-24.28208262 -1.72468646 -11.29937576 -5.25552361 0 0 Z " fill="#2D393E" transform="translate(245,243)"/>
<path d="M0 0 C25.46153846 0 25.46153846 0 31.875 5.4375 C37.78096567 12.55939977 38.83605682 17.72094688 38 27 C36.30231264 32.93705524 33.03223024 36.57808344 28 40 C22.32282109 42.570798 16.72301835 42.22649891 10.625 42.125 C7.11875 42.08375 3.6125 42.0425 0 42 C0 28.14 0 14.28 0 0 Z " fill="#FCFDFD" transform="translate(153,237)"/>
<path d="M0 0 C2.3984375 1.0234375 2.3984375 1.0234375 4 2 C3.34 4.31 2.68 6.62 2 9 C-0.56467127 9.78912962 -2.34122355 9.97910876 -5.0625 9.8125 C-8.05285139 9.69200166 -8.05285139 9.69200166 -9.8125 11.6875 C-11.07389831 14.14390723 -11.51147136 16.29740576 -12 19 C-11.14535156 18.98839844 -10.29070312 18.97679687 -9.41015625 18.96484375 C-8.30542969 18.95582031 -7.20070313 18.94679687 -6.0625 18.9375 C-4.96035156 18.92589844 -3.85820312 18.91429687 -2.72265625 18.90234375 C0 19 0 19 1 20 C1.125 23.5 1.125 23.5 1 27 C-1.86744176 29.86744176 -6.96147875 28.6328617 -11 29 C-11.33 41.21 -11.66 53.42 -12 66 C-15.63 66 -19.26 66 -23 66 C-23 53.46 -23 40.92 -23 28 C-25.31 28 -27.62 28 -30 28 C-31 27 -31 27 -31.125 23.5 C-31 20 -31 20 -30 19 C-27.66702567 18.95907063 -25.33294775 18.95758277 -23 19 C-23.12375 17.515 -23.12375 17.515 -23.25 16 C-23.22591013 10.06184713 -20.63051053 5.67231849 -16.5625 1.5 C-11.16676368 -0.77188898 -5.7780222 -0.64200247 0 0 Z " fill="#2B373D" transform="translate(348,223)"/>
<path d="M0 0 C3.63 0 7.26 0 11 0 C14.76373259 7.24518524 18.18322704 14.55055672 21.375 22.0625 C21.91157227 23.31220581 21.91157227 23.31220581 22.45898438 24.5871582 C22.78962891 25.37437256 23.12027344 26.16158691 23.4609375 26.97265625 C23.75790527 27.67656494 24.05487305 28.38047363 24.36083984 29.10571289 C25 31 25 31 25 34 C25.66 34 26.32 34 27 34 C27.16435547 32.96601074 27.16435547 32.96601074 27.33203125 31.91113281 C28.10531259 28.54102803 29.31975205 25.59802985 30.6875 22.421875 C30.95006592 21.80983215 31.21263184 21.19778931 31.4831543 20.56719971 C32.03563209 19.28209368 32.59044207 17.99798802 33.14746094 16.71484375 C34.00236101 14.74455858 34.8493871 12.77102767 35.6953125 10.796875 C39.85236383 1.14763617 39.85236383 1.14763617 41 0 C42.68608966 -0.07205511 44.37500659 -0.08386068 46.0625 -0.0625 C46.98160156 -0.05347656 47.90070313 -0.04445312 48.84765625 -0.03515625 C49.55792969 -0.02355469 50.26820313 -0.01195312 51 0 C50.32105648 4.61120485 48.57785781 8.66001603 46.7265625 12.8984375 C46.23994644 14.02821518 46.23994644 14.02821518 45.74349976 15.18081665 C44.70853534 17.58086692 43.66690062 19.97795389 42.625 22.375 C41.93184497 23.9789737 41.2391321 25.58313856 40.546875 27.1875 C39.26787697 30.15012203 37.98627594 33.11158712 36.70166016 36.07177734 C35.12354556 39.70989329 33.55955536 43.35389177 32 47 C28.04 47 24.08 47 20 47 C15.27604127 37.21940938 10.91442534 27.28920095 6.625 17.3125 C6.35465942 16.68645874 6.08431885 16.06041748 5.80578613 15.41540527 C5.02600252 13.60781647 4.25119885 11.79808187 3.4765625 9.98828125 C3.02361816 8.93165283 2.57067383 7.87502441 2.10400391 6.78637695 C1 4 1 4 0 0 Z " fill="#2C383D" transform="translate(261,242)"/>
<path d="M0 0 C3.3 0 6.6 0 10 0 C10 21.78 10 43.56 10 66 C6.37 66 2.74 66 -1 66 C-1.02312659 57.54232666 -1.0409167 49.08466644 -1.05181217 40.62696934 C-1.05704031 36.70011342 -1.06413669 32.77327906 -1.07543945 28.84643555 C-1.0862708 25.05985743 -1.09227736 21.2733001 -1.09487724 17.48670769 C-1.09673105 16.03895681 -1.10035081 14.59120712 -1.10573006 13.14346504 C-1.11294367 11.12242865 -1.11340808 9.10137152 -1.11352539 7.08032227 C-1.115746 5.92782486 -1.11796661 4.77532745 -1.12025452 3.58790588 C-1 1 -1 1 0 0 Z " fill="#2B373C" transform="translate(414,223)"/>
<path d="M0 0 C0.33 0 0.66 0 1 0 C2.20248927 12.42572243 -2.47610731 26.11262463 -10.16015625 35.8984375 C-10.76730469 36.59195313 -11.37445313 37.28546875 -12 38 C-12.61746094 38.71414063 -13.23492187 39.42828125 -13.87109375 40.1640625 C-22.08620285 48.9907592 -31.4933895 52.95963544 -43 56 C-43.94743828 56.26657158 -43.94743828 56.26657158 -44.91401672 56.53852844 C-47.09215943 57.02038797 -49.02965601 57.13359103 -51.25854492 57.14526367 C-52.09008591 57.15164352 -52.92162689 57.15802338 -53.77836609 57.16459656 C-54.67005997 57.16570938 -55.56175385 57.1668222 -56.48046875 57.16796875 C-57.87160637 57.17296135 -57.87160637 57.17296135 -59.29084778 57.17805481 C-61.25354518 57.18311418 -63.21625116 57.18546344 -65.17895508 57.18530273 C-68.15916434 57.18747931 -71.13899731 57.20561814 -74.11914062 57.22460938 C-76.03124874 57.22754561 -77.94335861 57.22952886 -79.85546875 57.23046875 C-80.73704147 57.23765427 -81.6186142 57.24483978 -82.52690125 57.25224304 C-96.34456282 57.20206986 -96.34456282 57.20206986 -101.5625 52.875 C-102.2740625 51.946875 -102.2740625 51.946875 -103 51 C-102.67 50.34 -102.34 49.68 -102 49 C-101.01 49.33 -100.02 49.66 -99 50 C-97.49965604 50.10605061 -95.99518465 50.15851388 -94.49121094 50.17700195 C-93.57885681 50.18983719 -92.66650269 50.20267242 -91.72650146 50.21589661 C-90.73909973 50.22328354 -89.751698 50.23067047 -88.734375 50.23828125 C-87.19598969 50.25038887 -87.19598969 50.25038887 -85.62652588 50.26274109 C-83.44764901 50.27658595 -81.26875042 50.2873063 -79.08984375 50.29516602 C-76.88469996 50.30661084 -74.6795822 50.32694139 -72.47460938 50.35668945 C-50.78382189 50.64923398 -31.88208071 48.47429443 -15.4765625 32.70703125 C-6.89273597 23.32439437 -2.38783224 12.33713322 0 0 Z " fill="#3F77FF" transform="translate(110,259)"/>
<path d="M0 0 C4.40802625 2.16394016 7.23139226 4.38196867 9 9 C9.66198068 14.34488104 9.67332051 18.60348339 7.3125 23.5 C3.26154219 27.87941385 0.51474969 29.1935156 -5.4375 29.5 C-9.18276761 29.39904939 -11.60535952 29.1098855 -14.5625 26.75 C-18.94151791 21.80956953 -19.44639003 18.1945013 -19.31640625 11.6953125 C-18.74575094 6.83417465 -16.42868138 4.26060122 -12.875 1.125 C-8.55651358 -0.56484251 -4.5732948 -0.65960983 0 0 Z " fill="#FAFAFA" transform="translate(382,251)"/>
<path d="M0 0 C3.86305672 1.28768557 5.61548475 2.58512828 8.375 5.5625 C11.06366047 11.25005099 10.84760127 16.4571962 8.875 22.375 C6.46853928 25.74404501 4.78565751 27.2423733 1 29 C-3.44733007 29.70813142 -7.85416203 30.07504358 -11.97265625 28.01171875 C-15.66393785 25.08227414 -17.73292584 22.05584993 -18.3359375 17.4140625 C-18.41996981 11.41415541 -18.19483258 7.66092508 -14 3 C-9.60709792 -0.90687888 -5.63740708 -0.64223625 0 0 Z " fill="#FAFBFB" transform="translate(490,251)"/>
<path d="M0 0 C3.63 0 7.26 0 11 0 C11 15.51 11 31.02 11 47 C7.37 47 3.74 47 0 47 C0 31.49 0 15.98 0 0 Z " fill="#29353B" transform="translate(439,242)"/>
<path d="M0 0 C4.09904549 1.54680962 6.91791532 3.06717339 9 7 C9 8.65 9 10.3 9 12 C0.42 12 -8.16 12 -17 12 C-15.11015122 6.33045367 -14.25049054 4.71917922 -10 1 C-6.80031426 -0.59984287 -3.48042073 -0.3629489 0 0 Z " fill="#F0F1F1" transform="translate(238,250)"/>
<path d="M0 0 C1.9375 1.0625 1.9375 1.0625 3 3 C3.4375 6.5 3.4375 6.5 3 10 C0.80827201 12.61321414 -0.64654092 12.94109015 -4 13.5 C-7 13 -7 13 -9.4375 10.875 C-11 8 -11 8 -10.9375 4.8125 C-9.08505793 -0.7448262 -5.18586735 -0.46302387 0 0 Z " fill="#303B41" transform="translate(448,221)"/>
<path d="M0 0 C0.33 0 0.66 0 1 0 C1.027193 1.58323688 1.04648306 3.16661062 1.0625 4.75 C1.07410156 5.63171875 1.08570312 6.5134375 1.09765625 7.421875 C1.00826198 9.7818838 0.66912821 11.74498524 0 14 C-0.99 14 -1.98 14 -3 14 C-2.01 9.38 -1.02 4.76 0 0 Z " fill="#779FFF" transform="translate(110,259)"/>
</svg>
