<?xml version="1.0" encoding="UTF-8"?>
<svg version="1.1" xmlns="http://www.w3.org/2000/svg" width="1200" height="900">
<path d="M0 0 C396 0 792 0 1200 0 C1200 297 1200 594 1200 900 C804 900 408 900 0 900 C0 603 0 306 0 0 Z " fill="#FEFEFE" transform="translate(0,0)"/>
<path d="M0 0 C24.09 0 48.18 0 73 0 C73 11.55 73 23.1 73 35 C61.78 35 50.56 35 39 35 C39 76.91 39 118.82 39 162 C26.13 162 13.26 162 0 162 C0 108.54 0 55.08 0 0 Z " fill="#5A5A5C" transform="translate(290,187)"/>
<path d="M0 0 C5.83726993 0.72965874 10.40772083 1.55900941 15.75 3.625 C16.44319336 3.89223877 17.13638672 4.15947754 17.85058594 4.43481445 C39.07538734 12.87727522 53.94377454 28.39843649 63.20605469 49.10058594 C71.01347832 67.77886264 69.51000224 90.00939974 62.75 108.75 C54.40279404 128.77835514 40.30360583 144.09095035 20.21875 152.72265625 C1.77269267 160.0428756 -14.27464603 160.20231132 -34 160 C-34 149.44 -34 138.88 -34 128 C-22.6875 127.6875 -22.6875 127.6875 -19.1940918 127.61206055 C-5.70398774 127.14039464 7.15229551 123.38777194 17.1875 114 C20.49877327 110.34618121 22.83192133 106.41313054 25 102 C25.41507812 101.175 25.83015625 100.35 26.2578125 99.5 C30.89830492 88.33685739 31.2398757 72.1059543 27.375 60.625 C21.6287538 48.11726975 12.81879007 39.12751603 0 34 C0 22.78 0 11.56 0 0 Z " fill="#3AAEA8" transform="translate(380,189)"/>
<path d="M0 0 C12.87 0 25.74 0 39 0 C39 53.46 39 106.92 39 162 C26.13 162 13.26 162 0 162 C0 108.54 0 55.08 0 0 Z " fill="#838387" transform="translate(179,187)"/>
<path d="M0 0 C12.54 0 25.08 0 38 0 C38 53.46 38 106.92 38 162 C25.46 162 12.92 162 0 162 C0 108.54 0 55.08 0 0 Z " fill="#6D6E71" transform="translate(235,187)"/>
<path d="M0 0 C12.54 0 25.08 0 38 0 C38 53.46 38 106.92 38 162 C25.46 162 12.92 162 0 162 C0 108.54 0 55.08 0 0 Z " fill="#939598" transform="translate(124,187)"/>
<path d="M0 0 C3.795 -0.103125 7.59 -0.20625 11.5 -0.3125 C12.68013672 -0.35802002 13.86027344 -0.40354004 15.07617188 -0.45043945 C21.97833675 -0.54073617 26.76406397 0.30722114 32 5 C37.89591844 12.55886979 37.87743979 20.79388309 37 30 C35.54693838 35.82014356 32.78116141 40.30546619 28 44 C20 47 20 47 0 47 C0 31.49 0 15.98 0 0 Z " fill="#3CAFA9" transform="translate(125,665)"/>
<path d="M0 0 C1.83498047 -0.03867187 1.83498047 -0.03867187 3.70703125 -0.078125 C8.89039974 0.41054274 11.29851255 2.34033843 14.875 6 C20.16625016 13.43635157 19.81879441 21.37242231 19.1875 30.25 C18.10711428 36.63102814 16.47219093 41.19430696 11.1875 45.25 C5.68708447 49.14053781 -0.32427382 49.02644522 -6.8125 48.25 C-12.26065074 45.87262513 -15.42301224 41.60016781 -17.8125 36.25 C-19.99970866 26.07532678 -19.93175773 15.52085089 -14.8125 6.25 C-10.41522793 1.20211114 -6.52092262 0.08193829 0 0 Z " fill="#737477" transform="translate(252.8125,562.75)"/>
<path d="M0 0 C5.5606122 2.3413104 8.40230639 6.70111902 11 12 C13.82735213 20.42837248 12.67048005 30.57361838 9.34765625 38.6484375 C6.88246087 42.9500248 3.39907283 45.80046359 -1 48 C-13.33628967 49.03938352 -13.33628967 49.03938352 -17.625 46.1875 C-18.40875 45.465625 -19.1925 44.74375 -20 44 C-20.76376953 43.32130859 -20.76376953 43.32130859 -21.54296875 42.62890625 C-26.85059711 36.69517696 -26.5207165 27.08192764 -26.34765625 19.6328125 C-25.71365751 13.00788182 -24.01342034 7.38324112 -18.875 2.9375 C-12.91485966 -1.07911632 -7.04886234 -0.55458552 0 0 Z " fill="#747478" transform="translate(853,563)"/>
<path d="M0 0 C5.52654304 1.84218101 8.38903076 4.95190713 11.0859375 10.0546875 C12.40180682 14.29471087 12.3684686 18.33477548 12.375 22.75 C12.39949219 23.6059375 12.42398438 24.461875 12.44921875 25.34375 C12.47987296 32.08767686 11.22626842 38.54135726 6.48144531 43.62792969 C1.07716907 48.2437401 -2.78905295 48.3537615 -9.7265625 48.26953125 C-14.44515939 47.88100716 -16.38046518 47.08045517 -20 44 C-26.16480039 34.7433151 -26.27322603 23.02482831 -24.57421875 12.31640625 C-22.92273323 7.11878619 -19.33349726 4.01778484 -15 1 C-10.60423075 -1.19788463 -4.7976208 -0.32139969 0 0 Z " fill="#727276" transform="translate(936,563)"/>
<path d="M0 0 C4.3020194 3.64736428 6.28849388 7.04260003 7.625 12.5 C9.02138197 34.49301601 9.02138197 34.49301601 2.4140625 42.125 C-2.91242521 46.88368953 -8.36301719 46.7810096 -15.20703125 46.72265625 C-20.09277482 46.24520072 -22.68660496 44.03000879 -25.875 40.5 C-31.12359238 31.83982257 -30.35598281 19.77669291 -28.47265625 10.078125 C-26.87071294 5.54043151 -24.62250163 1.75551506 -20.4453125 -0.78515625 C-14.16661602 -2.88862527 -6.01335029 -2.99365924 0 0 Z " fill="#727376" transform="translate(518.125,564.5625)"/>
<path d="M0 0 C23.74772727 0 23.74772727 0 28.86328125 4.71875 C29.34152344 5.3065625 29.81976563 5.894375 30.3125 6.5 C30.80363281 7.0878125 31.29476562 7.675625 31.80078125 8.28125 C36.07108727 14.4015583 34.69339907 24.90751813 34 32 C32.54624568 37.56729233 30.35185696 41.54045947 25.375 44.5625 C15.72760003 48.67157776 14.55896202 47 0 47 C0 31.49 0 15.98 0 0 Z " fill="#717275" transform="translate(200,462)"/>
<path d="M0 0 C3.96 0 7.92 0 12 0 C12.32798584 0.87325928 12.65597168 1.74651855 12.99389648 2.64624023 C14.20869079 5.87671876 15.42589917 9.10626562 16.64477539 12.33520508 C17.17244465 13.73457682 17.69914064 15.13431595 18.22485352 16.53442383 C18.97939339 18.54344846 19.73739019 20.55113845 20.49609375 22.55859375 C20.95169678 23.76829834 21.4072998 24.97800293 21.87670898 26.22436523 C22.73553801 28.86560481 22.73553801 28.86560481 24 30 C24.32798584 29.12674072 24.65597168 28.25348145 24.99389648 27.35375977 C26.20869079 24.12328124 27.42589917 20.89373438 28.64477539 17.66479492 C29.17244465 16.26542318 29.69914064 14.86568405 30.22485352 13.46557617 C30.97939339 11.45655154 31.73739019 9.44886155 32.49609375 7.44140625 C32.95169678 6.23170166 33.4072998 5.02199707 33.87670898 3.77563477 C35 1 35 1 36 0 C39.63 0 43.26 0 47 0 C47 15.84 47 31.68 47 48 C44.69 48 42.38 48 40 48 C39.67 35.79 39.34 23.58 39 11 C35.42390846 20.12435699 35.42390846 20.12435699 31.84985352 29.24951172 C31.40569092 30.38146973 30.96152832 31.51342773 30.50390625 32.6796875 C30.04830322 33.84226074 29.5927002 35.00483398 29.12329102 36.20263672 C28 39 28 39 27 41 C24.69 41 22.38 41 20 41 C18.45051631 37.2102164 16.90229114 33.41992139 15.35522461 29.62915039 C14.82887689 28.33994699 14.30218695 27.05088325 13.77514648 25.76196289 C13.01716353 23.90808374 12.26051752 22.05365814 11.50390625 20.19921875 C10.82050171 18.52605591 10.82050171 18.52605591 10.12329102 16.8190918 C9.3589972 14.90096514 8.65294371 12.95883113 8 11 C7.67 23.21 7.34 35.42 7 48 C4.69 48 2.38 48 0 48 C0 32.16 0 16.32 0 0 Z " fill="#747578" transform="translate(328,563)"/>
<path d="M0 0 C3.63 0 7.26 0 11 0 C11 6.6 11 13.2 11 20 C16.61 20 22.22 20 28 20 C28 13.73 28 7.46 28 1 C31.3 1 34.6 1 38 1 C38 16.51 38 32.02 38 48 C34.7 48 31.4 48 28 48 C28 41.73 28 35.46 28 29 C22.39 29 16.78 29 11 29 C11 35.27 11 41.54 11 48 C7.37 48 3.74 48 0 48 C0 32.16 0 16.32 0 0 Z " fill="#40B0AB" transform="translate(252,664)"/>
<path d="M0 0 C3.82040704 2.16164485 5.41118424 4.06743432 6.6875 8.375 C7.77512172 16.08472359 6.11460989 23.43085605 2.6875 30.375 C-1.03874333 34.93121864 -4.64786735 36.96855892 -10.4609375 37.61328125 C-15.92096967 37.79528232 -19.09696072 37.18905935 -23.3125 33.375 C-27.34350114 28.00033182 -27.02459513 21.80004016 -26.3125 15.375 C-24.6392865 8.26384263 -21.54471895 3.29363419 -15.3125 -0.625 C-9.89251809 -2.43166064 -5.17910264 -2.30288512 0 0 Z " fill="#747478" transform="translate(1032.3125,472.625)"/>
<path d="M0 0 C19.9 0 19.9 0 25 3 C27.96885637 6.1915206 29.23212388 8.70353149 29.4375 13 C29.16743488 17.87048481 27.58953154 21.50981418 24 24.875 C22 26 22 26 19 26 C19 26.66 19 27.32 19 28 C19.99 28.33 20.98 28.66 22 29 C23.25854492 30.64233398 23.25854492 30.64233398 24.48046875 32.74609375 C24.92197266 33.50083984 25.36347656 34.25558594 25.81835938 35.03320312 C26.27017578 35.82662109 26.72199219 36.62003906 27.1875 37.4375 C27.65091797 38.22705078 28.11433594 39.01660156 28.59179688 39.83007812 C32 45.71788706 32 45.71788706 32 48 C29.36 48 26.72 48 24 48 C23.37351562 46.86820313 22.74703125 45.73640625 22.1015625 44.5703125 C21.27621778 43.08844357 20.45068728 41.60667809 19.625 40.125 C19.2125 39.37863281 18.8 38.63226562 18.375 37.86328125 C17.97539062 37.14785156 17.57578125 36.43242188 17.1640625 35.6953125 C16.79748535 35.03547363 16.4309082 34.37563477 16.05322266 33.69580078 C14.98654727 31.83480572 14.98654727 31.83480572 13 30 C11.02 29.67 9.04 29.34 7 29 C7 35.27 7 41.54 7 48 C4.69 48 2.38 48 0 48 C0 32.16 0 16.32 0 0 Z " fill="#747578" transform="translate(285,563)"/>
<path d="M0 0 C21 0 21 0 27 4 C29.97922303 8.46883455 29.48467387 12.76090627 29 18 C27.22103967 22.64506307 24.19768105 24.48139137 20 27 C20.73605469 27.67546875 21.47210938 28.3509375 22.23046875 29.046875 C25.27515347 32.09263368 27.25821055 35.49224851 29.3125 39.25 C29.67150391 39.88679688 30.03050781 40.52359375 30.40039062 41.1796875 C33 45.83422619 33 45.83422619 33 47 C30.03 47 27.06 47 24 47 C23.37351562 45.86820312 22.74703125 44.73640625 22.1015625 43.5703125 C21.27621778 42.08844357 20.45068728 40.60667809 19.625 39.125 C19.2125 38.37863281 18.8 37.63226563 18.375 36.86328125 C17.97539062 36.14785156 17.57578125 35.43242187 17.1640625 34.6953125 C16.79748535 34.03547363 16.4309082 33.37563477 16.05322266 32.69580078 C14.98654727 30.83480572 14.98654727 30.83480572 13 29 C11.02 28.67 9.04 28.34 7 28 C7 34.27 7 40.54 7 47 C4.69 47 2.38 47 0 47 C0 31.49 0 15.98 0 0 Z " fill="#737478" transform="translate(377,462)"/>
<path d="M0 0 C21 0 21 0 27 4 C29.97922303 8.46883455 29.48467387 12.76090627 29 18 C27.22103967 22.64506307 24.19768105 24.48139137 20 27 C20.73605469 27.67546875 21.47210938 28.3509375 22.23046875 29.046875 C25.27515347 32.09263368 27.25821055 35.49224851 29.3125 39.25 C29.67150391 39.88679688 30.03050781 40.52359375 30.40039062 41.1796875 C33 45.83422619 33 45.83422619 33 47 C30.03 47 27.06 47 24 47 C23.37351562 45.86820312 22.74703125 44.73640625 22.1015625 43.5703125 C21.27621778 42.08844357 20.45068728 40.60667809 19.625 39.125 C19.2125 38.37863281 18.8 37.63226563 18.375 36.86328125 C17.97539062 36.14785156 17.57578125 35.43242187 17.1640625 34.6953125 C16.79748535 34.03547363 16.4309082 33.37563477 16.05322266 32.69580078 C14.98654727 30.83480572 14.98654727 30.83480572 13 29 C11.02 28.67 9.04 28.34 7 28 C7 34.27 7 40.54 7 47 C4.69 47 2.38 47 0 47 C0 31.49 0 15.98 0 0 Z " fill="#737478" transform="translate(247,462)"/>
<path d="M0 0 C2.97 0 5.94 0 9 0 C15.72736711 11.46929349 21.87039578 23.20051188 28 35 C28.33 23.45 28.66 11.9 29 0 C31.31 0 33.62 0 36 0 C36 15.84 36 31.68 36 48 C33.03 48 30.06 48 27 48 C25.14144945 44.6273973 23.28903508 41.25145848 21.4375 37.875 C20.92380859 36.94300781 20.41011719 36.01101563 19.88085938 35.05078125 C15.71686582 27.44696693 11.88496897 19.76993794 8 12 C7.67 23.88 7.34 35.76 7 48 C4.69 48 2.38 48 0 48 C0 32.16 0 16.32 0 0 Z " fill="#76777A" transform="translate(539,563)"/>
<path d="M0 0 C2.97 0 5.94 0 9 0 C15.72736711 11.46929349 21.87039578 23.20051188 28 35 C28.33 23.45 28.66 11.9 29 0 C31.31 0 33.62 0 36 0 C36 15.84 36 31.68 36 48 C33.03 48 30.06 48 27 48 C25.14144945 44.6273973 23.28903508 41.25145848 21.4375 37.875 C20.92380859 36.94300781 20.41011719 36.01101563 19.88085938 35.05078125 C15.71686582 27.44696693 11.88496897 19.76993794 8 12 C7.67 23.88 7.34 35.76 7 48 C4.69 48 2.38 48 0 48 C0 32.16 0 16.32 0 0 Z " fill="#757679" transform="translate(149,563)"/>
<path d="M0 0 C3.3 0 6.6 0 10 0 C15.94 11.55 21.88 23.1 28 35 C28.33 23.45 28.66 11.9 29 0 C31.31 0 33.62 0 36 0 C36 15.51 36 31.02 36 47 C32.7 47 29.4 47 26 47 C20.06 35.45 14.12 23.9 8 12 C7.67 23.55 7.34 35.1 7 47 C4.69 47 2.38 47 0 47 C0 31.49 0 15.98 0 0 Z " fill="#747578" transform="translate(679,462)"/>
<path d="M0 0 C3.3 0 6.6 0 10 0 C15.94 11.55 21.88 23.1 28 35 C28.33 23.45 28.66 11.9 29 0 C31.31 0 33.62 0 36 0 C36 15.51 36 31.02 36 47 C33.03 47 30.06 47 27 47 C24.70131665 44.2429585 23.50550298 42.18771093 22 39 C20.81889371 36.76951438 19.63507932 34.5404616 18.44921875 32.3125 C17.19123384 29.87710247 15.93811441 27.43919059 14.6875 25 C11.3771875 18.565 11.3771875 18.565 8 12 C7.67 23.55 7.34 35.1 7 47 C4.69 47 2.38 47 0 47 C0 31.49 0 15.98 0 0 Z " fill="#747578" transform="translate(149,462)"/>
<path d="M0 0 C3.63 0 7.26 0 11 0 C21.55786133 31.67358398 21.55786133 31.67358398 22.26602173 33.80978394 C22.7844492 35.35678911 23.31309475 36.90038798 23.84896851 38.44143677 C24.123992 39.23943695 24.3990155 40.03743713 24.68237305 40.85961914 C24.93448044 41.58113663 25.18658783 42.30265411 25.44633484 43.04603577 C26 45 26 45 26 48 C23.69 48 21.38 48 19 48 C17.26436339 43.54771478 15.94389853 39.71949266 15 35 C8.73 35 2.46 35 -4 35 C-4.66 37.97 -5.32 40.94 -6 44 C-6.33 45.32 -6.66 46.64 -7 48 C-9.31 48 -11.62 48 -14 48 C-13.36482466 42.18042054 -11.86185111 36.9066401 -10.05859375 31.34765625 C-9.77146011 30.44752304 -9.48432648 29.54738983 -9.18849182 28.61997986 C-8.27671605 25.76578392 -7.35723618 22.9141395 -6.4375 20.0625 C-5.81524347 18.11930442 -5.19349329 16.17594662 -4.57226562 14.23242188 C-3.05403064 9.4863838 -1.52888473 4.74261756 0 0 Z " fill="#757679" transform="translate(399,563)"/>
<path d="M0 0 C3.3 0 6.6 0 10 0 C12.04330885 3.91581199 14.08433467 7.83280982 16.125 11.75 C16.69476562 12.84183594 17.26453125 13.93367187 17.8515625 15.05859375 C18.41875 16.14785156 18.9859375 17.23710938 19.5703125 18.359375 C20.08352051 19.34389648 20.59672852 20.32841797 21.12548828 21.34277344 C23.79015949 26.541624 26.38739518 31.77479035 29 37 C29.33 24.79 29.66 12.58 30 0 C31.98 0 33.96 0 36 0 C36 15.84 36 31.68 36 48 C33.03 48 30.06 48 27 48 C26.67314209 47.37134033 26.34628418 46.74268066 26.00952148 46.0949707 C24.48647371 43.16698032 22.96199036 40.23973953 21.4375 37.3125 C20.92380859 36.32443359 20.41011719 35.33636719 19.88085938 34.31835938 C15.98503771 26.8412855 11.99814047 19.42511801 8 12 C7.67 23.88 7.34 35.76 7 48 C4.69 48 2.38 48 0 48 C0 32.16 0 16.32 0 0 Z " fill="#737477" transform="translate(778,563)"/>
<path d="M0 0 C3.63 0 7.26 0 11 0 C13.12335093 5.55919004 15.08264822 11.14446365 16.91796875 16.8046875 C17.18007645 17.60987823 17.44218414 18.41506897 17.7122345 19.24465942 C18.26018109 20.93005543 18.80718261 22.61575897 19.35327148 24.30175781 C20.19230538 26.88982256 21.03644379 29.47618686 21.88085938 32.0625 C22.41437171 33.7056288 22.94758569 35.34885451 23.48046875 36.9921875 C23.73354294 37.76609833 23.98661713 38.54000916 24.24736023 39.33737183 C26 44.77086515 26 44.77086515 26 47 C23.36 47 20.72 47 18 47 C17.49242138 45.58603098 16.99425075 44.16868271 16.5 42.75 C16.08234375 41.56664062 16.08234375 41.56664062 15.65625 40.359375 C15 38 15 38 15 34 C8.73 34 2.46 34 -4 34 C-4.309375 35.588125 -4.61875 37.17625 -4.9375 38.8125 C-5.48923795 41.64475482 -6.08592978 44.25778934 -7 47 C-9.31 47 -11.62 47 -14 47 C-13.3724888 41.43960478 -12.02625826 36.3924031 -10.3125 31.07421875 C-10.04993408 30.24541702 -9.78736816 29.4166153 -9.5168457 28.56269836 C-8.96465509 26.82312357 -8.40984331 25.08437884 -7.85253906 23.34643555 C-6.99759259 20.67999168 -6.15045677 18.01116427 -5.3046875 15.34179688 C-4.76607372 13.64829472 -4.22702656 11.95493033 -3.6875 10.26171875 C-3.30621948 9.06333626 -3.30621948 9.06333626 -2.91723633 7.84074402 C-1.11760032 2.23520064 -1.11760032 2.23520064 0 0 Z " fill="#737477" transform="translate(300,462)"/>
<path d="M0 0 C3.63 0 7.26 0 11 0 C14.54551221 8.37416218 17.30058102 16.92500936 20.00146484 25.59814453 C20.75751582 28.02411633 21.52092284 30.44768863 22.28515625 32.87109375 C22.7686611 34.41392721 23.25174962 35.95689121 23.734375 37.5 C23.96243835 38.22388916 24.19050171 38.94777832 24.42547607 39.69360352 C26 44.76916009 26 44.76916009 26 47 C23.69 47 21.38 47 19 47 C17.26436339 42.54771478 15.94389853 38.71949266 15 34 C9.06 34.33 3.12 34.66 -3 35 C-4.32 38.96 -5.64 42.92 -7 47 C-9.31 47 -11.62 47 -14 47 C-12.72752365 40.81109604 -11.11196703 34.82201218 -9.1796875 28.80859375 C-8.91616486 27.97787857 -8.65264221 27.14716339 -8.38113403 26.29127502 C-7.54938636 23.67217866 -6.71229397 21.05482788 -5.875 18.4375 C-5.3056333 16.64789977 -4.73661963 14.85818719 -4.16796875 13.06835938 C-2.78271929 8.71093141 -1.39267816 4.35505908 0 0 Z " fill="#737477" transform="translate(599,462)"/>
<path d="M0 0 C3.63 0 7.26 0 11 0 C13.12335093 5.55919004 15.08264822 11.14446365 16.91796875 16.8046875 C17.18007645 17.60987823 17.44218414 18.41506897 17.7122345 19.24465942 C18.26018109 20.93005543 18.80718261 22.61575897 19.35327148 24.30175781 C20.19230538 26.88982256 21.03644379 29.47618686 21.88085938 32.0625 C22.41437171 33.7056288 22.94758569 35.34885451 23.48046875 36.9921875 C23.73354294 37.76609833 23.98661713 38.54000916 24.24736023 39.33737183 C26 44.77086515 26 44.77086515 26 47 C23.36 47 20.72 47 18 47 C17.49242138 45.58603098 16.99425075 44.16868271 16.5 42.75 C16.08234375 41.56664062 16.08234375 41.56664062 15.65625 40.359375 C15 38 15 38 15 34 C8.73 34 2.46 34 -4 34 C-4.309375 35.588125 -4.61875 37.17625 -4.9375 38.8125 C-5.48923795 41.64475482 -6.08592978 44.25778934 -7 47 C-9.31 47 -11.62 47 -14 47 C-12.37174677 36.96254019 -9.05775221 27.50213753 -5.875 17.875 C-5.3054647 16.13819287 -4.73644978 14.401215 -4.16796875 12.6640625 C-2.78464185 8.44071459 -1.3942784 4.21974444 0 0 Z " fill="#737377" transform="translate(430,462)"/>
<path d="M0 0 C20 0 20 0 26 3 C29.3286562 6.76663727 30.68787802 9.8102398 30.375 14.9140625 C29.5478847 19.51489134 27.98013157 23.34134862 24.33984375 26.390625 C18.72255857 29.66641348 13.36085523 29.31804276 7 29 C7 34.94 7 40.88 7 47 C4.69 47 2.38 47 0 47 C0 31.49 0 15.98 0 0 Z " fill="#717276" transform="translate(336,462)"/>
<path d="M0 0 C9.24 0 18.48 0 28 0 C28 2.64 28 5.28 28 8 C22.06 8 16.12 8 10 8 C10 11.63 10 15.26 10 19 C14.95 19 19.9 19 25 19 C25 21.64 25 24.28 25 27 C20.05 27 15.1 27 10 27 C10 30.96 10 34.92 10 39 C16.27 39 22.54 39 29 39 C29 41.64 29 44.28 29 47 C19.43 47 9.86 47 0 47 C0 31.49 0 15.98 0 0 Z " fill="#39AEA8" transform="translate(174,665)"/>
<path d="M0 0 C2.31 0 4.62 0 7 0 C7 6.93 7 13.86 7 21 C13.93 21 20.86 21 28 21 C28 14.07 28 7.14 28 0 C30.31 0 32.62 0 35 0 C35 15.84 35 31.68 35 48 C32.69 48 30.38 48 28 48 C28 41.07 28 34.14 28 27 C21.07 27 14.14 27 7 27 C7 33.93 7 40.86 7 48 C4.69 48 2.38 48 0 48 C0 32.16 0 16.32 0 0 Z " fill="#727377" transform="translate(728,563)"/>
<path d="M0 0 C2.31 0 4.62 0 7 0 C7 6.6 7 13.2 7 20 C13.93 20 20.86 20 28 20 C28 13.4 28 6.8 28 0 C30.31 0 32.62 0 35 0 C35 15.51 35 31.02 35 47 C32.69 47 30.38 47 28 47 C28 40.07 28 33.14 28 26 C21.07 26 14.14 26 7 26 C7 32.93 7 39.86 7 47 C4.69 47 2.38 47 0 47 C0 31.49 0 15.98 0 0 Z " fill="#707174" transform="translate(540,462)"/>
<path d="M0 0 C4.31700895 3.05788134 5.62063495 6.00887648 7 11 C7.64060957 18.67789412 8.20479119 27.19431046 3 33.375 C-0.52418311 36.23839878 -3.29494502 36.46344926 -7.7421875 36.40625 C-10 36 -10 36 -12.9375 33.4375 C-17.65566254 26.40906477 -17.83837425 18.20192636 -17 10 C-14.18649592 0.96352385 -8.97063998 -1.39001929 0 0 Z " fill="#FBFBFB" transform="translate(258,569)"/>
<path d="M0 0 C2.31 0 4.62 0 7 0 C7.0093457 1.03406982 7.01869141 2.06813965 7.02832031 3.13354492 C7.06829421 6.98244776 7.13407249 10.83055746 7.20751953 14.67895508 C7.23568649 16.34226263 7.25692233 18.00570296 7.27099609 19.66918945 C7.29248592 22.06530525 7.33916288 24.45983184 7.390625 26.85546875 C7.39185364 27.5952446 7.39308228 28.33502045 7.39434814 29.09721375 C7.53229153 33.99656419 8.50383333 36.55986688 12 40 C15.06429776 41.53214888 17.6165642 41.22938548 21 41 C23.87391821 39.82725006 23.87391821 39.82725006 26 38 C27.22318866 34.33043403 27.23116124 30.87678997 27.31640625 27.05078125 C27.33718735 26.27816452 27.35796844 25.50554779 27.37937927 24.70951843 C27.44471038 22.2439352 27.50368315 19.77824639 27.5625 17.3125 C27.60570087 15.63996309 27.64931566 13.96743681 27.69335938 12.29492188 C27.8003749 8.1967225 27.90168857 4.09841704 28 0 C30.31 0 32.62 0 35 0 C35.09951569 4.83799361 35.17177037 9.67538025 35.21972656 14.51416016 C35.23973571 16.1571695 35.26695213 17.80010859 35.30175781 19.44287109 C35.35075305 21.81625788 35.37307504 24.18869649 35.390625 26.5625 C35.41127014 27.28679199 35.43191528 28.01108398 35.45318604 28.75732422 C35.45553671 34.20461652 34.0987467 38.48301149 31 43 C24.87619423 47.87404949 19.60990823 48.66482818 12 48 C7.79136692 46.44124701 4.80924819 44.51156023 2 41 C0.00329633 36.22906007 -0.26696732 31.85718887 -0.1953125 26.7578125 C-0.1924826 25.98944061 -0.18965271 25.22106873 -0.18673706 24.42941284 C-0.17561311 21.99444479 -0.1505236 19.55985538 -0.125 17.125 C-0.11496011 15.46615118 -0.10583603 13.80729654 -0.09765625 12.1484375 C-0.07569937 8.09881421 -0.04122406 4.04947113 0 0 Z " fill="#727376" transform="translate(863,462)"/>
<path d="M0 0 C4.15094466 2.33490637 5.62631026 4.52501073 7 9 C7.3075153 11.98348272 7.32473386 14.94020412 7.3125 17.9375 C7.32861328 18.72318359 7.34472656 19.50886719 7.36132812 20.31835938 C7.36620025 26.14054323 6.29808176 30.34836721 2.375 34.875 C-1.3843767 36.65575739 -4.93008942 36.77037593 -9 36 C-13.27393483 32.90821736 -14.65962743 29.99700299 -16 25 C-16.21071163 22.28537738 -16.32523168 19.70930192 -16.3125 17 C-16.33666992 15.97132813 -16.33666992 15.97132813 -16.36132812 14.921875 C-16.36667284 9.3206157 -14.94160199 5.5942874 -11.6171875 1.15234375 C-8.24741701 -1.24882121 -3.92412745 -0.56417168 0 0 Z " fill="#FCFCFC" transform="translate(934,569)"/>
<path d="M0 0 C3.86791235 2.82035275 5.55571945 5.50948579 7 10 C7.75340742 18.73756921 8.17811909 27.85769958 2.375 35 C-1.40411694 36.59120713 -4.97161806 36.64741853 -9 36 C-13.11583143 33.6355862 -14.6474026 31.47306334 -16 27 C-16.30970325 23.85030694 -16.32467452 20.72544123 -16.3125 17.5625 C-16.32861328 16.72912109 -16.34472656 15.89574219 -16.36132812 15.03710938 C-16.36534526 9.95543883 -15.88204786 6.36694371 -13 2 C-8.76259413 -0.82493725 -4.97534067 -0.7788872 0 0 Z " fill="#FCFCFC" transform="translate(512,569)"/>
<path d="M0 0 C2.86890102 2.1112003 4.41311435 4.82622869 6 8 C6.26428545 11.07692333 6.23154248 14.16298056 6.25 17.25 C6.270625 18.09691406 6.29125 18.94382812 6.3125 19.81640625 C6.35013091 25.86557524 5.46493062 30.15584929 1.375 34.875 C-2.3843767 36.65575739 -5.93008942 36.77037593 -10 36 C-14.27639628 32.90643673 -15.63931871 29.99114535 -17 25 C-17.79771857 16.484818 -17.93061448 9.18460967 -13 2 C-8.78241808 -0.81172128 -4.95155239 -0.9318711 0 0 Z " fill="#FCFCFC" transform="translate(851,569)"/>
<path d="M0 0 C1.20269531 -0.02578125 2.40539062 -0.0515625 3.64453125 -0.078125 C7.47738045 0.2768467 9.88465027 1.32797413 13.1875 3.25 C12.5275 4.9 11.8675 6.55 11.1875 8.25 C7.1875 8.25 7.1875 8.25 5.1875 7.25 C-0.15911578 6.64732189 -4.39735791 6.23918422 -8.875 9.4375 C-13.61087689 16.31216001 -13.57457346 23.10591378 -12.8125 31.25 C-11.46087785 35.71767715 -9.77539581 38.60806946 -5.8125 41.25 C-2.60870876 41.49246783 -2.60870876 41.49246783 0.875 41.375 C2.958125 41.33375 5.04125 41.2925 7.1875 41.25 C7.1875 35.31 7.1875 29.37 7.1875 23.25 C9.4975 23.25 11.8075 23.25 14.1875 23.25 C14.33255175 26.68705705 14.42148014 30.12333033 14.5 33.5625 C14.54189453 34.53896484 14.58378906 35.51542969 14.62695312 36.52148438 C14.6726996 39.18392911 14.6624092 41.62903337 14.1875 44.25 C9.11926778 48.82584115 2.92380713 48.52989629 -3.57421875 48.46484375 C-8.918339 48.11028812 -12.14855475 46.86772455 -16.0625 43.0625 C-21.62097027 34.12924421 -22.42158048 24.5579072 -20.15625 14.26953125 C-18.12004111 8.46809127 -15.03284117 4.53239549 -9.8125 1.25 C-6.38258462 0.10669487 -3.6138584 0.04618349 0 0 Z " fill="#737377" transform="translate(979.8125,562.75)"/>
<path d="M0 0 C8.58 0 17.16 0 26 0 C26 1.98 26 3.96 26 6 C19.73 6 13.46 6 7 6 C7 10.62 7 15.24 7 20 C12.28 20 17.56 20 23 20 C23 21.98 23 23.96 23 26 C17.72 26 12.44 26 7 26 C7 30.95 7 35.9 7 41 C13.6 41 20.2 41 27 41 C27 43.31 27 45.62 27 48 C18.09 48 9.18 48 0 48 C0 32.16 0 16.32 0 0 Z " fill="#78797C" transform="translate(647,563)"/>
<path d="M0 0 C8.58 0 17.16 0 26 0 C26 1.98 26 3.96 26 6 C19.73 6 13.46 6 7 6 C7 10.62 7 15.24 7 20 C12.61 20 18.22 20 24 20 C24 21.98 24 23.96 24 26 C18.39 26 12.78 26 7 26 C7 30.95 7 35.9 7 41 C13.6 41 20.2 41 27 41 C27 42.98 27 44.96 27 47 C18.09 47 9.18 47 0 47 C0 31.49 0 15.98 0 0 Z " fill="#727376" transform="translate(949,462)"/>
<path d="M0 0 C3.6875 1.5 3.6875 1.5 6 3 C6 4.32 6 5.64 6 7 C4.3125 8.125 4.3125 8.125 2 9 C0.31562256 8.37943989 -1.35008418 7.70710678 -3 7 C-6.37558918 6.65555212 -8.32938065 6.66469032 -11.375 8.1875 C-13.18708856 9.91510553 -13.18708856 9.91510553 -13.5625 12.4375 C-12.76527178 16.06931747 -10.99677947 16.8623516 -8 19 C-4.72242269 20.75713447 -1.4007266 22.39294032 1.94140625 24.0234375 C5.46658032 26.30151934 7.06430322 28.29425287 9 32 C9.57556955 36.38152317 8.52711872 40.06740534 6.375 43.875 C0.95500978 48.72446493 -4.17838998 49.54911806 -11.26953125 49.36328125 C-15.53751462 48.79543797 -18.36469376 47.28889652 -22 45 C-22.33 44.34 -22.66 43.68 -23 43 C-21.5625 40.375 -21.5625 40.375 -20 38 C-15.26315789 39.84210526 -15.26315789 39.84210526 -13.125 41.125 C-9.99728254 42.41288366 -7.34500032 42.23892859 -4 42 C-2.68 41.34 -1.36 40.68 0 40 C0 37.03 0 34.06 0 31 C-0.721875 30.71769531 -1.44375 30.43539063 -2.1875 30.14453125 C-16.15192282 24.46178696 -16.15192282 24.46178696 -20 19 C-21.45032591 14.34687102 -21.5297639 11.12309946 -19.4375 6.6875 C-13.53108948 0.17530379 -8.57580019 -1.10532536 0 0 Z " fill="#747578" transform="translate(749,461)"/>
<path d="M0 0 C1.89947803 0.95311887 3.74202552 2.01813318 5.5703125 3.1015625 C4.5803125 4.7515625 3.5903125 6.4015625 2.5703125 8.1015625 C0.18467173 7.52571818 -2.09651534 6.87928655 -4.4296875 6.1015625 C-9.09984059 5.70617548 -9.09984059 5.70617548 -13.4296875 7.1640625 C-15.1138775 10.42718063 -14.3958273 12.64575476 -13.4296875 16.1015625 C-10.93129555 17.83520277 -8.91781346 18.98063518 -6.1796875 20.1640625 C-0.53027671 22.69486791 3.04035525 24.90375069 6.5703125 30.1015625 C7.52441596 33.25170296 7.35089005 35.91282019 6.5703125 39.1015625 C4.39471807 43.02208762 1.77783032 45.47036 -2.1796875 47.5390625 C-10.51713741 48.98208268 -16.10235953 48.44368278 -23.4296875 44.1015625 C-23.4296875 40.1015625 -23.4296875 40.1015625 -21.9296875 38.3515625 C-21.4346875 37.9390625 -20.9396875 37.5265625 -20.4296875 37.1015625 C-19.95660156 37.40191406 -19.48351562 37.70226562 -18.99609375 38.01171875 C-14.14574595 40.80090511 -10.84446566 41.44653081 -5.3125 40.65625 C-3.20881858 40.19966538 -3.20881858 40.19966538 -1.4296875 38.1015625 C-0.59485424 35.23179967 -0.59485424 35.23179967 -1.4296875 32.1015625 C-3.81394871 29.95702321 -6.60204673 28.5857335 -9.4296875 27.1015625 C-18.72292136 22.07856276 -18.72292136 22.07856276 -21.5546875 18.1640625 C-22.62281256 14.42562478 -23.04071659 11.97141337 -22.4296875 8.1015625 C-17.2485191 -0.18159992 -9.46308487 -3.49921145 0 0 Z " fill="#727376" transform="translate(486.4296875,461.8984375)"/>
<path d="M0 0 C12.7 0 12.7 0 16 3 C19.99563701 7.92572011 20.62847799 11.40800214 20.5 17.5 C20.51546875 18.23347656 20.5309375 18.96695312 20.546875 19.72265625 C20.50973744 24.9126309 19.41927313 27.906504 16 32 C12 35 12 35 0 35 C0 23.45 0 11.9 0 0 Z " fill="#FDFDFD" transform="translate(207,468)"/>
<path d="M0 0 C3.3 0 6.6 0 10 0 C10 12.87 10 25.74 10 39 C15.94 39 21.88 39 28 39 C28 41.64 28 44.28 28 47 C18.76 47 9.52 47 0 47 C0 31.49 0 15.98 0 0 Z " fill="#39AEA8" transform="translate(215,665)"/>
<path d="M0 0 C-0.66 1.65 -1.32 3.3 -2 5 C-2.68707031 4.96519531 -3.37414063 4.93039062 -4.08203125 4.89453125 C-5.43361328 4.85392578 -5.43361328 4.85392578 -6.8125 4.8125 C-8.15248047 4.76029297 -8.15248047 4.76029297 -9.51953125 4.70703125 C-12.03108503 4.79631419 -12.03108503 4.79631419 -13.78125 6.3125 C-15.52649962 8.72899948 -15.67582719 11.08244473 -16 14 C-13.03 14 -10.06 14 -7 14 C-7.33 15.98 -7.66 17.96 -8 20 C-11.3 20 -14.6 20 -18 20 C-17.9484375 21.27617187 -17.896875 22.55234375 -17.84375 23.8671875 C-17.84375 32.03588025 -19.28726896 40.06725685 -20.5 48.125 C-20.74154029 49.76552871 -20.98243105 51.4061532 -21.22265625 53.046875 C-21.80762051 57.03239378 -22.40136247 61.01651303 -23 65 C-25.31 65 -27.62 65 -30 65 C-29.27579012 57.05036721 -28.2944065 49.13637077 -27.27050781 41.22070312 C-26.99785999 39.10842074 -26.72931073 36.99564174 -26.4609375 34.8828125 C-26.28670542 33.52861402 -26.11223494 32.17444619 -25.9375 30.8203125 C-25.70353516 28.99910889 -25.70353516 28.99910889 -25.46484375 27.14111328 C-25.1023677 24.69173469 -24.66737575 22.37937174 -24 20 C-25.98 20 -27.96 20 -30 20 C-30 18.35 -30 16.7 -30 15 C-26.535 14.505 -26.535 14.505 -23 14 C-22.98582031 13.40832031 -22.97164062 12.81664062 -22.95703125 12.20703125 C-22.69387428 7.84716045 -22.45754867 5.58121047 -19.6875 2.0625 C-13.44305778 -2.72974635 -7.21240531 -3.60620266 0 0 Z " fill="#747578" transform="translate(1077,458)"/>
<path d="M0 0 C1.90625 0.8203125 1.90625 0.8203125 4.53125 2.3203125 C3.16141497 5.48147026 2.5421862 6.3130217 -0.46875 8.3203125 C-1.45875 7.6603125 -2.44875 7.0003125 -3.46875 6.3203125 C-8.27574851 5.6891646 -12.90191111 5.28849176 -17.03125 8.0078125 C-21.54267382 15.26532039 -21.64360488 23.64327651 -19.93359375 31.90625 C-18.57282187 35.90677061 -17.06838242 38.17585063 -13.46875 40.3203125 C-11.01940593 40.75470059 -11.01940593 40.75470059 -8.46875 40.6328125 C-7.2003125 40.62701172 -7.2003125 40.62701172 -5.90625 40.62109375 C-3.35337271 40.30607524 -1.67861065 39.60428246 0.53125 38.3203125 C2.03125 39.6328125 2.03125 39.6328125 3.53125 41.3203125 C3.53125 42.3103125 3.53125 43.3003125 3.53125 44.3203125 C-2.13919529 48.10060936 -7.81272075 47.97251402 -14.46875 47.3203125 C-18.27189237 46.44579313 -20.85708616 44.89799501 -23.71875 42.1953125 C-29.15388749 33.26615805 -30.07766429 22.98014355 -27.9296875 12.75390625 C-23.46291809 -0.18009088 -12.63905058 -3.47973861 0 0 Z " fill="#727276" transform="translate(712.46875,563.6796875)"/>
<path d="M0 0 C8.58 0 17.16 0 26 0 C26 1.98 26 3.96 26 6 C19.73 6 13.46 6 7 6 C7 11.28 7 16.56 7 22 C12.61 22 18.22 22 24 22 C24 23.98 24 25.96 24 28 C18.39 28 12.78 28 7 28 C7 34.6 7 41.2 7 48 C4.69 48 2.38 48 0 48 C0 32.16 0 16.32 0 0 Z " fill="#717275" transform="translate(200,563)"/>
<path d="M0 0 C2.64 0 5.28 0 8 0 C11.66666667 7.33333333 15.33333333 14.66666667 19 22 C22.23830086 18.20161565 24.07522001 13.81375679 26.125 9.3125 C26.83404968 7.76606011 27.54489271 6.2204408 28.2578125 4.67578125 C28.5686377 3.99427002 28.87946289 3.31275879 29.19970703 2.6105957 C30 1 30 1 31 0 C33.33297433 -0.04092937 35.66705225 -0.04241723 38 0 C36.2552347 6.1327978 33.30456238 11.64812451 30.4375 17.3125 C29.93025391 18.32634766 29.42300781 19.34019531 28.90039062 20.38476562 C25.14048812 27.85951188 25.14048812 27.85951188 24 29 C23.84379445 30.41327947 23.74943827 31.8335459 23.68359375 33.25390625 C23.64169922 34.10791016 23.59980469 34.96191406 23.55664062 35.84179688 C23.51732422 36.73962891 23.47800781 37.63746094 23.4375 38.5625 C23.39431641 39.46419922 23.35113281 40.36589844 23.30664062 41.29492188 C23.20021858 43.52978485 23.09820012 45.76476308 23 48 C20.69 48 18.38 48 16 48 C16.10183594 47.03707031 16.20367188 46.07414063 16.30859375 45.08203125 C17.0721288 29.31187504 8.89166652 16.74775586 1.36108398 3.48999023 C0 1 0 1 0 0 Z " fill="#747478" transform="translate(1000,563)"/>
<path d="M0 0 C10.56 0 21.12 0 32 0 C32 1.98 32 3.96 32 6 C28.04 6 24.08 6 20 6 C20 19.86 20 33.72 20 48 C17.69 48 15.38 48 13 48 C13 34.14 13 20.28 13 6 C8.71 6 4.42 6 0 6 C0 4.02 0 2.04 0 0 Z " fill="#747578" transform="translate(605,563)"/>
<path d="M0 0 C10.56 0 21.12 0 32 0 C32 1.98 32 3.96 32 6 C27.71 6 23.42 6 19 6 C19 19.53 19 33.06 19 47 C16.69 47 14.38 47 12 47 C12 33.47 12 19.94 12 6 C8.04 6 4.08 6 0 6 C0 4.02 0 2.04 0 0 Z " fill="#737477" transform="translate(763,462)"/>
<path d="M0 0 C3.3 0 6.6 0 10 0 C10 15.51 10 31.02 10 47 C6.7 47 3.4 47 0 47 C0 31.49 0 15.98 0 0 Z " fill="#39AEA7" transform="translate(305,665)"/>
<path d="M0 0 C10.23 0 20.46 0 31 0 C31 1.98 31 3.96 31 6 C27.04 6 23.08 6 19 6 C19 19.53 19 33.06 19 47 C16.69 47 14.38 47 12 47 C12 33.14 12 19.28 12 5 C8.04 5 4.08 5 0 5 C0 3.35 0 1.7 0 0 Z " fill="#707175" transform="translate(908,462)"/>
<path d="M0 0 C10.23 0 20.46 0 31 0 C31 1.65 31 3.3 31 5 C27.04 5 23.08 5 19 5 C19 18.86 19 32.72 19 47 C16.69 47 14.38 47 12 47 C12 33.47 12 19.94 12 6 C8.04 6 4.08 6 0 6 C0 4.02 0 2.04 0 0 Z " fill="#747579" transform="translate(822,462)"/>
<path d="M0 0 C10.23 0 20.46 0 31 0 C31 1.98 31 3.96 31 6 C27.04 6 23.08 6 19 6 C19 19.53 19 33.06 19 47 C16.69 47 14.38 47 12 47 C12 33.14 12 19.28 12 5 C8.04 5 4.08 5 0 5 C0 3.35 0 1.7 0 0 Z " fill="#707175" transform="translate(499,462)"/>
<path d="M0 0 C9 0 9 0 12.5 2.375 C16.34176293 6.40885108 16.24055245 9.39710236 16.3125 14.75 C16.34150391 15.45382812 16.37050781 16.15765625 16.40039062 16.8828125 C16.46267938 22.03840482 15.38392076 24.90694878 12 29 C7.72512146 31.54181967 5.38555595 31 0 31 C0 20.77 0 10.54 0 0 Z " fill="#F4FAFA" transform="translate(135,673)"/>
<path d="M0 0 C10.56 0 21.12 0 32 0 C32 1.98 32 3.96 32 6 C27.71 6 23.42 6 19 6 C19 19.53 19 33.06 19 47 C17.02 47 15.04 47 13 47 C13 33.47 13 19.94 13 6 C8.71 6 4.42 6 0 6 C0 4.02 0 2.04 0 0 Z " fill="#6E6F73" transform="translate(426,563)"/>
<path d="M0 0 C1.90625 0.43359375 1.90625 0.43359375 4.40625 2.30859375 C7.14533067 8.01501182 6.66075114 13.88368706 4.65625 19.80859375 C3.22644643 23.06353829 1.95952274 25.45309251 -1.09375 27.43359375 C-3.87201709 27.98351878 -6.34736074 28.1631034 -9.09375 27.43359375 C-11.90662232 25.32270363 -12.9641857 24.15690939 -13.58984375 20.6640625 C-13.4444195 13.11169628 -12.75397187 8.27613645 -8.40625 1.99609375 C-5.49063214 0.02608168 -3.47470765 -0.2139279 0 0 Z " fill="#FAFAFA" transform="translate(1026.09375,476.56640625)"/>
<path d="M0 0 C1.98 0 3.96 0 6 0 C6 13.86 6 27.72 6 42 C12.6 42 19.2 42 26 42 C26 43.65 26 45.3 26 47 C17.42 47 8.84 47 0 47 C0 31.49 0 15.98 0 0 Z " fill="#6D6E71" transform="translate(878,563)"/>
<path d="M0 0 C2.31 0 4.62 0 7 0 C7 15.84 7 31.68 7 48 C4.69 48 2.38 48 0 48 C0 32.16 0 16.32 0 0 Z " fill="#717275" transform="translate(468,563)"/>
<path d="M0 0 C2.31 0 4.62 0 7 0 C7 15.84 7 31.68 7 48 C4.69 48 2.38 48 0 48 C0 32.16 0 16.32 0 0 Z " fill="#757679" transform="translate(126,563)"/>
<path d="M0 0 C2.31 0 4.62 0 7 0 C7 15.51 7 31.02 7 47 C4.69 47 2.38 47 0 47 C0 31.49 0 15.98 0 0 Z " fill="#727376" transform="translate(805,462)"/>
<path d="M0 0 C2.31 0 4.62 0 7 0 C7 15.51 7 31.02 7 47 C4.69 47 2.38 47 0 47 C0 31.49 0 15.98 0 0 Z " fill="#737477" transform="translate(656,462)"/>
<path d="M0 0 C2.31 0 4.62 0 7 0 C7 15.51 7 31.02 7 47 C4.69 47 2.38 47 0 47 C0 31.49 0 15.98 0 0 Z " fill="#737477" transform="translate(126,462)"/>
<path d="M0 0 C11.06976744 -0.60822898 11.06976744 -0.60822898 15.25 2.125 C17.29832076 5.49009839 17.57659252 7.12859307 17 11 C15.79293121 14.34265205 15.07943151 14.94704566 12 17 C7.98500069 17.26874159 4.02862593 17.08663712 0 17 C0 11.39 0 5.78 0 0 Z " fill="#F7F7F7" transform="translate(342,468)"/>
<path d="M0 0 C9.76931447 -0.43743199 9.76931447 -0.43743199 14 3 C15.42662219 5.85324437 15.31033868 7.83454549 15 11 C13.20006226 13.69990662 11.916227 15.5418865 9 17 C5.99525503 17.13559318 3.00931153 17.04299016 0 17 C0 11.39 0 5.78 0 0 Z " fill="#F9F9FA" transform="translate(292,569)"/>
<path d="M0 0 C10.13528336 -0.48263254 10.13528336 -0.48263254 13.6875 1.5 C15.652219 5.2423219 15.40133639 7.78596791 15 12 C13 15 13 15 10 16 C8.27204648 16.06802967 6.54164635 16.08495645 4.8125 16.0625 C3.224375 16.041875 1.63625 16.02125 0 16 C0 10.72 0 5.44 0 0 Z " fill="#FBFBFB" transform="translate(384,468)"/>
<path d="M0 0 C1.5675 -0.04125 3.135 -0.0825 4.75 -0.125 C5.63171875 -0.14820313 6.5134375 -0.17140625 7.421875 -0.1953125 C10.14906426 0.01129275 11.71315408 0.52694159 14 2 C15.5635348 5.12706959 15.39958487 8.57982443 15 12 C13 15 13 15 10 16 C8.27204648 16.06802967 6.54164635 16.08495645 4.8125 16.0625 C3.224375 16.041875 1.63625 16.02125 0 16 C0 10.72 0 5.44 0 0 Z " fill="#FBFBFB" transform="translate(254,468)"/>
<path d="M0 0 C2.89932825 2.89932825 3.47865536 6.46276104 4.5625 10.3125 C4.78357422 11.07240234 5.00464844 11.83230469 5.23242188 12.61523438 C6.3244482 16.41258271 7.22237814 20.1118907 8 24 C3.38 24 -1.24 24 -6 24 C-5.36145015 18.47324097 -4.06306646 13.37632649 -2.4375 8.0625 C-2.20353516 7.28326172 -1.96957031 6.50402344 -1.72851562 5.70117188 C-1.15682579 3.79942813 -0.57904309 1.89951774 0 0 Z " fill="#F4F4F4" transform="translate(404,568)"/>
<path d="M0 0 C2 1 2 1 3.25390625 4.640625 C3.69814365 6.17477818 4.13397627 7.71138366 4.5625 9.25 C4.78357422 10.01441406 5.00464844 10.77882813 5.23242188 11.56640625 C6.32202835 15.37838298 7.21995718 19.09978591 8 23 C3.38 23 -1.24 23 -6 23 C-4.58761051 15.11415867 -2.46063198 7.62079223 0 0 Z " fill="#F7F7F7" transform="translate(604,467)"/>
<path d="M0 0 C2.15958132 2.15958132 2.50031269 3.1555919 3.2890625 6.02734375 C3.50820313 6.81947266 3.72734375 7.61160156 3.953125 8.42773438 C4.17484375 9.25595703 4.3965625 10.08417969 4.625 10.9375 C4.85445313 11.76185547 5.08390625 12.58621094 5.3203125 13.43554688 C7 19.58940197 7 19.58940197 7 23 C2.71 23 -1.58 23 -6 23 C-5.38334864 17.60607261 -4.12077204 12.71604717 -2.4375 7.5625 C-2.20353516 6.83095703 -1.96957031 6.09941406 -1.72851562 5.34570312 C-1.15732778 3.56219821 -0.57936877 1.78086417 0 0 Z " fill="#F7F7F7" transform="translate(435,467)"/>
<path d="M0 0 C2.91340833 2.91340833 3.52059782 6.50959237 4.625 10.375 C4.85445313 11.14328125 5.08390625 11.9115625 5.3203125 12.703125 C6.38977785 16.38259506 7 19.10175248 7 23 C2.71 23 -1.58 23 -6 23 C-5.38334864 17.60607261 -4.12077204 12.71604717 -2.4375 7.5625 C-2.20353516 6.83095703 -1.96957031 6.09941406 -1.72851562 5.34570312 C-1.15732778 3.56219821 -0.57936877 1.78086417 0 0 Z " fill="#F8F8F8" transform="translate(305,467)"/>
</svg>
