<?xml version="1.0" encoding="UTF-8"?>
<svg version="1.1" xmlns="http://www.w3.org/2000/svg" viewBox="0 0 500 194" width="100%" height="100%">
<path d="M0 0 C11.19211282 9.37042529 18.25973174 21.15641203 20.859375 35.62109375 C21.12313359 39.36646568 21.06261118 42.86122441 20.859375 46.62109375 C16.569375 46.95109375 12.279375 47.28109375 7.859375 47.62109375 C7.3025 50.28171875 7.3025 50.28171875 6.734375 52.99609375 C4.5091553 61.92861076 -0.30678194 71.39853171 -8.140625 76.62109375 C-7.12402059 79.35810562 -6.05665744 81.75673366 -4.515625 84.24609375 C-3.140625 86.62109375 -3.140625 86.62109375 -3.140625 89.62109375 C-18.31760631 97.93614202 -33.17545649 101.43903101 -50.23046875 96.6875 C-55.16929067 94.87770351 -59.65615623 92.34885133 -64.140625 89.62109375 C-63.48277537 86.3242841 -62.24641927 83.77991453 -60.578125 80.87109375 C-60.12308594 80.071875 -59.66804688 79.27265625 -59.19921875 78.44921875 C-58.84988281 77.8459375 -58.50054687 77.24265625 -58.140625 76.62109375 C-58.72972656 76.36199219 -59.31882812 76.10289062 -59.92578125 75.8359375 C-67.36193059 71.75720303 -71.52671745 63.36438473 -74.140625 55.62109375 C-74.7368093 52.56509722 -74.98712021 49.74235777 -75.140625 46.62109375 C-75.96820313 46.86666016 -75.96820313 46.86666016 -76.8125 47.1171875 C-79.40676507 47.67869789 -81.73897911 47.71848383 -84.390625 47.68359375 C-85.28265625 47.67457031 -86.1746875 47.66554687 -87.09375 47.65625 C-87.76921875 47.64464844 -88.4446875 47.63304687 -89.140625 47.62109375 C-88.73526076 32.78476259 -85.74497702 21.97660417 -77.140625 9.62109375 C-76.480625 8.63109375 -75.820625 7.64109375 -75.140625 6.62109375 C-74.480625 6.62109375 -73.820625 6.62109375 -73.140625 6.62109375 C-72.810625 5.63109375 -72.480625 4.64109375 -72.140625 3.62109375 C-51.39066845 -14.67868343 -22.40823019 -16.97339824 0 0 Z " fill="#B3872F" transform="translate(135.140625,53.37890625)"/>
<path d="M0 0 C7.98885732 4.58964873 13.2504589 11.47403294 16.17578125 20.25 C16.96753153 31.80176643 16.43379969 40.22235707 8.92578125 49.5 C2.59930311 56.28609407 -4.7583907 60.16762303 -14.13671875 60.5625 C-23.63232551 60.27231168 -31.08870885 56.93399549 -37.82421875 50.25 C-44.88056798 41.56177557 -46.85790956 33.35890506 -45.82421875 22.25 C-43.71776867 13.25659337 -38.40378847 6.36116493 -30.69921875 1.375 C-21.18095359 -4.27276729 -10.08307764 -4.75274364 0 0 Z " fill="#59BADE" transform="translate(115.82421875,68.75)"/>
<path d="M0 0 C1.98 0 3.96 0 6 0 C6 11.55 6 23.1 6 35 C12.6 35 19.2 35 26 35 C26.33 33.35 26.66 31.7 27 30 C27.78527064 27.7210532 28.61263494 25.45641492 29.46875 23.203125 C29.70911987 22.56888611 29.94948975 21.93464722 30.19714355 21.28118896 C30.70294848 19.9492743 31.21067259 18.61808703 31.72021484 17.28759766 C32.5021415 15.2444042 33.27688357 13.19858998 34.05078125 11.15234375 C37.86128557 1.13871443 37.86128557 1.13871443 39 0 C41.31 0 43.62 0 46 0 C50.95 11.88 55.9 23.76 61 36 C61.33 24.12 61.66 12.24 62 0 C69 0 69 0 71.26342773 2.203125 C71.89708252 3.20859375 72.5307373 4.2140625 73.18359375 5.25 C73.88291016 6.3328125 74.58222656 7.415625 75.30273438 8.53125 C76.01486234 9.68716785 76.72644409 10.84342237 77.4375 12 C78.17416955 13.15769295 78.91307969 14.31396341 79.65429688 15.46875 C81.45875134 18.29926681 83.23897626 21.14233443 85 24 C87.12280563 20.81579155 87.28019537 19.79462745 87.4140625 16.11328125 C87.45273437 15.17548828 87.49140625 14.23769531 87.53125 13.27148438 C87.5621875 12.29501953 87.593125 11.31855469 87.625 10.3125 C87.66367187 9.32443359 87.70234375 8.33636719 87.7421875 7.31835938 C87.83645867 4.87909293 87.92206218 2.43983405 88 0 C90.31 0 92.62 0 95 0 C95 13.53 95 27.06 95 41 C92.69 41 90.38 41 88 41 C86.01393979 38.98837841 84.80841 37.45464438 83.37890625 35.09375 C82.98928207 34.49445679 82.5996579 33.89516357 82.19822693 33.27770996 C80.96270547 31.36578862 79.76277882 29.43419656 78.5625 27.5 C77.72946953 26.19777285 76.8942061 24.89697123 76.05664062 23.59765625 C74.00681346 20.41625947 72.00658431 17.2105349 70 14 C69.34 22.91 68.68 31.82 68 41 C63.71 41 59.42 41 55 41 C51 32.375 51 32.375 51 29 C45.39 29 39.78 29 34 29 C33.67 30.98 33.34 32.96 33 35 C32.34 36.98 31.68 38.96 31 41 C20.77 41 10.54 41 0 41 C0 27.47 0 13.94 0 0 Z M42 8 C43 10 43 10 43 10 Z M41 10 C40.32942113 11.7902061 39.6636531 13.58221489 39 15.375 C38.62875 16.37273437 38.2575 17.37046875 37.875 18.3984375 C36.89373723 20.85848061 36.89373723 20.85848061 37 23 C40.63 23 44.26 23 48 23 C47.54625 21.576875 47.0925 20.15375 46.625 18.6875 C46.36976563 17.88699219 46.11453125 17.08648437 45.8515625 16.26171875 C45.01168189 13.77275472 45.01168189 13.77275472 43 11 C42.67 11.66 42.34 12.32 42 13 C41.67 12.01 41.34 11.02 41 10 Z M86 25 C87 27 87 27 87 27 Z " fill="#2B2B88" transform="translate(346,77)"/>
<path d="M0 0 C11.87421267 8.84574375 20.63838355 21.1357082 23 36 C23.11956856 39.00834492 23.04496589 41.98728504 23 45 C19.04 45 15.08 45 11 45 C10.9175 43.72125 10.835 42.4425 10.75 41.125 C9.44292779 29.70154702 3.30492061 18.79825507 -5.63671875 11.57421875 C-16.83612258 4.11412 -29.65077067 3.21145178 -42.59375 5.6875 C-45.11253091 6.36263715 -47.55548197 7.09542064 -50 8 C-49.67 5.69 -49.34 3.38 -49 1 C-49.66 0.67 -50.32 0.34 -51 0 C-51.33 0.33 -51.66 0.66 -52 1 C-52.99 0.67 -53.98 0.34 -55 0 C-53.73025028 4.41522109 -53.73025028 4.41522109 -51 8 C-53.875 7.6875 -53.875 7.6875 -57 7 C-57.66 6.01 -58.32 5.02 -59 4 C-62.42578949 7.17539556 -62.42578949 7.17539556 -65 11 C-64.34 11 -63.68 11 -63 11 C-63 11.66 -63 12.32 -63 13 C-62.01 13 -61.02 13 -60 13 C-60.66 11.02 -61.32 9.04 -62 7 C-60.02 8.65 -58.04 10.3 -56 12 C-56.37511719 12.4846875 -56.75023438 12.969375 -57.13671875 13.46875 C-65.05659235 23.84238796 -68.91598469 31.811147 -70 45 C-74.95 45.33 -79.9 45.66 -85 46 C-85 41 -85 41 -83 39 C-82.52397016 37.05524394 -82.1181219 35.09303629 -81.75 33.125 C-78.39859226 18.13446684 -70.40657097 6.80262955 -57.4375 -1.5 C-38.98702263 -12.12695339 -18.06209868 -11.48133404 0 0 Z " fill="#313087" transform="translate(131,53)"/>
<path d="M0 0 C3.87485635 -0.08751413 7.74945643 -0.14056435 11.625 -0.1875 C13.26662109 -0.22520508 13.26662109 -0.22520508 14.94140625 -0.26367188 C25.1623257 -0.35658932 25.1623257 -0.35658932 30 3 C32.6639502 6.09361959 33.0288356 7.45212364 32.8125 11.5625 C32.14359604 14.39247831 31.48280666 16.52865556 30 19 C31.32 20.32 32.64 21.64 34 23 C33.98839844 22.01 33.97679687 21.02 33.96484375 20 C33.9102781 13.26199467 33.91101976 6.67000397 35 0 C35.33 0 35.66 0 36 0 C36.11719343 4.31226745 36.18758416 8.62411934 36.25 12.9375 C36.30027344 14.75604492 36.30027344 14.75604492 36.3515625 16.61132812 C36.44462082 25.19595837 35.74488403 32.15909331 29.5625 38.5 C25.50763509 40.87357946 21.58627338 41.12664437 16.953125 41.1328125 C15.56287109 41.13474609 15.56287109 41.13474609 14.14453125 41.13671875 C12.71173828 41.13091797 12.71173828 41.13091797 11.25 41.125 C10.27933594 41.12886719 9.30867187 41.13273437 8.30859375 41.13671875 C7.38691406 41.13542969 6.46523437 41.13414063 5.515625 41.1328125 C4.67290039 41.13168457 3.83017578 41.13055664 2.96191406 41.12939453 C1 41 1 41 0 40 C-0.08868299 37.04294679 -0.11520296 34.10934944 -0.09765625 31.15234375 C-0.0962413 30.2659169 -0.09482635 29.37949005 -0.09336853 28.46620178 C-0.08775215 25.62326746 -0.07519691 22.78041069 -0.0625 19.9375 C-0.05748711 18.01497509 -0.05292384 16.09244896 -0.04882812 14.16992188 C-0.03777741 9.44658451 -0.02050183 4.72330542 0 0 Z M10 7 C10 9.64 10 12.28 10 15 C11.95803507 15.05389087 13.91648909 15.09274217 15.875 15.125 C16.96554688 15.14820312 18.05609375 15.17140625 19.1796875 15.1953125 C22.1371051 15.30060534 22.1371051 15.30060534 24 13 C24.1490712 10.9254644 24.1490712 10.9254644 23 9 C18.64899976 6.92809512 14.76376184 6.80944953 10 7 Z M10 23 C10 26.3 10 29.6 10 33 C10.33 33 10.66 33 11 33 C11 30.03 11 27.06 11 24 C13.64 24 16.28 24 19 24 C19 23.67 19 23.34 19 23 C16.03 23 13.06 23 10 23 Z M12 25 C12 27.64 12 30.28 12 33 C13.97956441 32.85966889 15.95865141 32.7125877 17.9375 32.5625 C19.03964844 32.48128906 20.14179688 32.40007812 21.27734375 32.31640625 C23.91109903 32.29581916 23.91109903 32.29581916 25 31 C25.2500773 28.54190002 25.2500773 28.54190002 25 26 C24.34 25.34 23.68 24.68 23 24 C19.21293268 24 15.73486879 24.4254048 12 25 Z " fill="#2A2A88" transform="translate(171,77)"/>
<path d="M0 0 C-0.65877975 5.69921087 -2.01055325 11.00121307 -3.625 16.5 C-4.01389404 17.84324341 -4.01389404 17.84324341 -4.41064453 19.21362305 C-7.50431849 29.83976043 -10.74388426 40.42270697 -14 51 C-16.28502437 47.57246345 -17.43928096 44.09383191 -18.71484375 40.21875 C-18.97125137 39.45002563 -19.227659 38.68130127 -19.49183655 37.88928223 C-20.03439652 36.25926223 -20.57474128 34.62850346 -21.11303711 32.99707031 C-21.92587537 30.53520779 -22.74651227 28.07605517 -23.56835938 25.6171875 C-26.27908195 17.469193 -28.8975207 9.33114663 -31 1 C-21.68375115 -4.95204788 -9.87648631 -4.74071343 0 0 Z " fill="#CF2129" transform="translate(116,71)"/>
<path d="M0 0 C6.56775364 3.66572296 9.6097153 8.4249822 12.3125 15.375 C14.16726316 25.1546603 13.04546361 33.8374803 7.4921875 42.296875 C2.34532486 48.66462133 -3.84542263 52.85792586 -12.0625 53.8125 C-13.361875 53.874375 -14.66125 53.93625 -16 54 C-13.12581172 41.69990232 -9.55341252 29.66597676 -5.80761719 17.60644531 C-5.09608836 15.31010861 -4.39271653 13.01159468 -3.6953125 10.7109375 C-1.12535311 2.25070621 -1.12535311 2.25070621 0 0 Z " fill="#FCE077" transform="translate(118,73)"/>
<path d="M0 0 C4.57394279 3.36044776 4.57394279 3.36044776 6.0625 6.25 C6.25 9 6.25 9 6.0625 11.25 C0.85762877 12.39683603 0.85762877 12.39683603 -1.9375 12.25 C-3.62512851 10.6045622 -5.2915349 8.93711423 -6.9375 7.25 C-9.74013967 6.79779172 -12.07805753 7.00767437 -14.9375 7.25 C-15.00540304 9.20819276 -15.00540304 9.20819276 -13.9375 11.25 C-11.48291464 12.25278792 -9.23112001 13.00968036 -6.6875 13.6875 C-0.26766662 15.40069253 3.3830843 17.59625132 7.4375 23.125 C8.43162925 26.50503945 7.93956487 28.85868249 7.0625 32.25 C4.8013926 35.95382892 2.13899329 38.67385145 -1.9375 40.25 C-9.22696939 41.16600475 -15.32182687 40.98549913 -21.44921875 36.734375 C-23.94713187 34.24301809 -24.88070746 32.06402639 -25.125 28.5625 C-24.9375 26.25 -24.9375 26.25 -23.9375 25.25 C-20.5625 24.875 -20.5625 24.875 -16.9375 25.25 C-15.125 27.6875 -15.125 27.6875 -13.9375 30.25 C-10.95155576 31.74297212 -8.22896376 31.36755228 -4.9375 31.25 C-3.9475 30.755 -3.9475 30.755 -2.9375 30.25 C-3.4325 27.775 -3.4325 27.775 -3.9375 25.25 C-4.73414063 25.00765625 -5.53078125 24.7653125 -6.3515625 24.515625 C-19.96422148 20.20991778 -19.96422148 20.20991778 -23.9375 14.25 C-24.47092201 9.60160821 -24.6893768 6.63703257 -21.75 2.875 C-15.83834475 -2.6425449 -7.31049663 -3.94239096 0 0 Z " fill="#2A2A88" transform="translate(275.9375,77.75)"/>
<path d="M0 0 C2.31 0 4.62 0 7 0 C7 1.32 7 2.64 7 4 C7.60328125 3.83242188 8.2065625 3.66484375 8.828125 3.4921875 C10.02695313 3.18667969 10.02695313 3.18667969 11.25 2.875 C12.03890625 2.66617188 12.8278125 2.45734375 13.640625 2.2421875 C16.45437326 1.95335904 17.67470146 2.43599074 20 4 C20.268125 4.66 20.53625 5.32 20.8125 6 C21.93698486 8.41515404 21.93698486 8.41515404 25.5 9 C29 10 29 10 30.3125 11.8125 C30.539375 12.534375 30.76625 13.25625 31 14 C31.80161791 16.67145537 31.80161791 16.67145537 33 19 C35.04105639 19.88693303 35.04105639 19.88693303 37 20 C37.85743651 24.39436211 38.08948558 28.52572076 38 33 C38.99 33 39.98 33 41 33 C41 35.31 41 37.62 41 40 C40.01 40 39.02 40 38 40 C37.67 42.31 37.34 44.62 37 47 C37.66 47 38.32 47 39 47 C38.1875 49.9375 38.1875 49.9375 37 53 C35.515 53.495 35.515 53.495 34 54 C32.5522078 56.89558441 32 58.74188938 32 62 C30.875 63.625 30.875 63.625 29 65 C27.4840625 65.2165625 27.4840625 65.2165625 25.9375 65.4375 C24.968125 65.623125 23.99875 65.80875 23 66 C22.3162955 67.32467746 21.65035814 68.65863633 21 70 C17.875 71.25 17.875 71.25 15 72 C15 71.34 15 70.68 15 70 C11.535 70.495 11.535 70.495 8 71 C8 71.99 8 72.98 8 74 C5.69 74 3.38 74 1 74 C1 73.01 1 72.02 1 71 C-2.465 70.505 -2.465 70.505 -6 70 C-6 70.66 -6 71.32 -6 72 C-8.375 71.75 -8.375 71.75 -11 71 C-11.6837045 69.67532254 -12.34964186 68.34136367 -13 67 C-15.40769578 65.79615211 -17.53737429 65.07930726 -20.1875 64.625 C-22 64 -22 64 -23.25 61.9375 C-23.4975 61.298125 -23.745 60.65875 -24 60 C-23.34 60 -22.68 60 -22 60 C-23.22851628 57.47933197 -23.22851628 57.47933197 -25 55 C-25.680625 54.855625 -26.36125 54.71125 -27.0625 54.5625 C-28.0215625 54.2840625 -28.0215625 54.2840625 -29 54 C-30.25 50.9375 -30.25 50.9375 -31 48 C-30.34 48 -29.68 48 -29 48 C-29 45.69 -29 43.38 -29 41 C-30.32 41 -31.64 41 -33 41 C-33 38.69 -33 36.38 -33 34 C-31.68 34 -30.36 34 -29 34 C-29.16757813 33.31292969 -29.33515625 32.62585938 -29.5078125 31.91796875 C-29.71148437 31.01691406 -29.91515625 30.11585937 -30.125 29.1875 C-30.33382812 28.29417969 -30.54265625 27.40085937 -30.7578125 26.48046875 C-31 24 -31 24 -29 21 C-28.01 21 -27.02 21 -26 21 C-23.75378427 18.25394157 -23.75378427 18.25394157 -24.0625 15.5 C-24 13 -24 13 -22.875 11.25 C-21 10 -21 10 -17.9375 9.625 C-16.968125 9.41875 -15.99875 9.2125 -15 9 C-14.31867549 7.33927151 -13.65257873 5.672233 -13 4 C-9.875 2.6875 -9.875 2.6875 -7 2 C-7 2.66 -7 3.32 -7 4 C-4.69 4 -2.38 4 0 4 C0 2.68 0 1.36 0 0 Z M-20.6015625 17.13671875 C-26.8279959 25.43283253 -27.82219183 33.81656689 -27 44 C-25.11813997 52.10560195 -20.63126955 58.77860366 -13.79296875 63.53515625 C-5.66798422 68.28280479 2.38480398 70.4431394 11.66796875 68.41796875 C19.90048926 65.87506044 26.72195279 61.01246373 31.4765625 53.7421875 C35.77012815 45.37127892 36.84586264 35.01245716 34.05859375 25.93359375 C32.8577558 23.46792335 31.56368909 21.25102496 30 19 C29.59265625 18.40703125 29.1853125 17.8140625 28.765625 17.203125 C24.35473783 11.41741585 18.06989686 7.58734945 11 6 C-1.4760325 4.46331795 -12.02858199 7.70644019 -20.6015625 17.13671875 Z " fill="#343284" transform="translate(97,60)"/>
<path d="M0 0 C0.66 0 1.32 0 2 0 C2 0.99 2 1.98 2 3 C2.99 3 3.98 3 5 3 C5 4.98 5 6.96 5 9 C3.68 9 2.36 9 1 9 C1 11.31 1 13.62 1 16 C2.32 16 3.64 16 5 16 C5 18.31 5 20.62 5 23 C4.34 23 3.68 23 3 23 C3.66 24.98 4.32 26.96 5 29 C6.175625 29.0928125 6.175625 29.0928125 7.375 29.1875 C8.24125 29.455625 9.1075 29.72375 10 30 C11.3125 32.5625 11.3125 32.5625 12 35 C11.34 35 10.68 35 10 35 C11.15684329 37.0995533 11.15684329 37.0995533 13 39 C14.66611905 39.042721 16.33382885 39.04063832 18 39 C20.54976803 40.4570103 21.74502995 41.45818865 23 44.125 C23.84276697 46.21351879 23.84276697 46.21351879 26.125 46.75 C26.74375 46.8325 27.3625 46.915 28 47 C28 46.34 28 45.68 28 45 C30.31 45.33 32.62 45.66 35 46 C35 46.99 35 47.98 35 49 C37.31 49 39.62 49 42 49 C42 48.01 42 47.02 42 46 C44.31 45.67 46.62 45.34 49 45 C49 45.66 49 46.32 49 47 C50.65 46.67 52.3 46.34 54 46 C54.495 47.98 54.495 47.98 55 50 C43.83210575 54.4146029 32.27055445 54.66437074 21.171875 49.97265625 C20.09679687 49.49119141 20.09679687 49.49119141 19 49 C18.01 48.67 17.02 48.34 16 48 C14.35 50.97 12.7 53.94 11 57 C25.93282549 64.43802334 39.92147044 66.28578895 56 61 C58.46577401 59.9986158 60.86740699 58.93846581 63.2578125 57.76953125 C65 57 65 57 67 57 C63.535 51.555 63.535 51.555 60 46 C64 47 64 47 65.484375 48.7421875 C65.90203125 49.44601563 66.3196875 50.14984375 66.75 50.875 C67.17796875 51.57367188 67.6059375 52.27234375 68.046875 52.9921875 C69 55 69 55 69 58 C53.82301869 66.31504827 38.96516851 69.81793726 21.91015625 65.06640625 C16.97133433 63.25660976 12.48446877 60.72775758 8 58 C8.65784963 54.70319035 9.89420573 52.15882078 11.5625 49.25 C12.01753906 48.45078125 12.47257812 47.6515625 12.94140625 46.828125 C13.29074219 46.22484375 13.64007813 45.6215625 14 45 C13.41089844 44.74089844 12.82179688 44.48179687 12.21484375 44.21484375 C4.77869441 40.13610928 0.61390755 31.74329098 -2 24 C-2.5961843 20.94400347 -2.84649521 18.12126402 -3 15 C-3.55171875 15.16371094 -4.1034375 15.32742187 -4.671875 15.49609375 C-7.26614007 16.05760414 -9.59835411 16.09739008 -12.25 16.0625 C-13.14203125 16.05347656 -14.0340625 16.04445313 -14.953125 16.03515625 C-15.62859375 16.02355469 -16.3040625 16.01195313 -17 16 C-17 15.34 -17 14.68 -17 14 C-11.91913204 13.15318867 -7.15171623 12.90961901 -2 13 C-2.02320313 12.31292969 -2.04640625 11.62585938 -2.0703125 10.91796875 C-2.08835937 10.01691406 -2.10640625 9.11585937 -2.125 8.1875 C-2.14820313 7.29417969 -2.17140625 6.40085937 -2.1953125 5.48046875 C-2 3 -2 3 0 0 Z " fill="#B18530" transform="translate(63,85)"/>
<path d="M0 0 C0.9590625 0.4021875 0.9590625 0.4021875 1.9375 0.8125 C2.948125 1.204375 3.95875 1.59625 5 2 C5.89525391 2.39638672 5.89525391 2.39638672 6.80859375 2.80078125 C17.24429309 6.96322465 28.6791536 5.93998792 39 2 C40.19625 1.608125 41.3925 1.21625 42.625 0.8125 C43.40875 0.544375 44.1925 0.27625 45 0 C46.00578589 1.28716647 47.00446798 2.57988658 48 3.875 C48.556875 4.59429687 49.11375 5.31359375 49.6875 6.0546875 C51 8 51 8 51 10 C36.74368706 17.516965 22.76165124 20.3486787 6.9140625 16 C2.37308425 14.44170184 -1.81687618 12.34143877 -6 10 C-5.18957164 8.51969728 -4.37659652 7.04078858 -3.5625 5.5625 C-2.88380859 4.32693359 -2.88380859 4.32693359 -2.19140625 3.06640625 C-1 1 -1 1 0 0 Z " fill="#2E2D85" transform="translate(79,132)"/>
<path d="M0 0 C5.506875 -0.12375 5.506875 -0.12375 11.125 -0.25 C12.2711377 -0.28641602 13.41727539 -0.32283203 14.59814453 -0.36035156 C20.72617886 -0.42697231 24.39781897 -0.19477484 29 4 C31.15164703 7.22747055 31.27245079 8.20505639 31.25 11.9375 C31.25515625 12.79214844 31.2603125 13.64679688 31.265625 14.52734375 C30.98053359 17.18120941 30.45123785 18.76957404 29 21 C21.56088214 25.36643874 15.48446554 25.09222245 7 25 C7 30.28 7 35.56 7 41 C4.69 41 2.38 41 0 41 C0 27.47 0 13.94 0 0 Z M7 6 C7 10.29 7 14.58 7 19 C9.43922361 18.91299202 11.87478414 18.80613998 14.3125 18.6875 C15.34793945 18.65366211 15.34793945 18.65366211 16.40429688 18.61914062 C19.34056282 18.46310717 21.5005587 18.34661226 23.953125 16.64453125 C25.63384782 14.0042913 25.44297681 12.03755524 25 9 C22.54516691 6.38679058 21.15711559 6.01332994 17.546875 5.70703125 C16.29390625 5.74183594 15.0409375 5.77664062 13.75 5.8125 C12.48671875 5.83957031 11.2234375 5.86664063 9.921875 5.89453125 C8.47554688 5.94673828 8.47554688 5.94673828 7 6 Z " fill="#2B2B89" transform="translate(299,77)"/>
<path d="M0 0 C0.66 0.33 1.32 0.66 2 1 C2.95067299 4.28414305 3.10102197 5.69693408 2 9 C2.58523437 8.71125 3.17046875 8.4225 3.7734375 8.125 C14.56531201 3.45824346 26.86648951 3.14736877 38 6.9375 C46.96950608 10.95285266 56.23002935 18.6518375 60 28 C59.7734375 30.68359375 59.7734375 30.68359375 59 33 C56.9375 34.3125 56.9375 34.3125 55 35 C55 32.69 55 30.38 55 28 C54.21625 27.938125 53.4325 27.87625 52.625 27.8125 C51.75875 27.544375 50.8925 27.27625 50 27 C48.8125 24.6875 48.8125 24.6875 48 22 C47.36640898 19.73161963 47.36640898 19.73161963 46 18 C45.030625 17.855625 44.06125 17.71125 43.0625 17.5625 C42.051875 17.376875 41.04125 17.19125 40 17 C38.96986723 15.35178756 37.96885372 13.68496298 37 12 C34.45948786 11.02389158 34.45948786 11.02389158 32 11 C31.67 11.33 31.34 11.66 31 12 C29.00041636 12.04080783 26.99954746 12.04254356 25 12 C25 10.68 25 9.36 25 8 C22.69 8 20.38 8 18 8 C18 9.32 18 10.64 18 12 C15.69 12 13.38 12 11 12 C11 11.34 11 10.68 11 10 C9.02 10.66 7.04 11.32 5 12 C4.9071875 13.175625 4.9071875 13.175625 4.8125 14.375 C4.544375 15.24125 4.27625 16.1075 4 17 C1.6875 18.1875 1.6875 18.1875 -1 19 C-2.34050052 19.65213539 -3.67661368 20.31379969 -5 21 C-4.87625 22.11375 -4.87625 22.11375 -4.75 23.25 C-5 26 -5 26 -6.875 28.3125 C-9 30 -9 30 -11 30 C-11.33 31.98 -11.66 33.96 -12 36 C-12.66 36 -13.32 36 -14 36 C-14 35.01 -14 34.02 -14 33 C-15.485 33.495 -15.485 33.495 -17 34 C-15.59844847 26.11627264 -10.5931955 19.5931955 -5 14 C-5.99 13.01 -6.98 12.02 -8 11 C-8 11.99 -8 12.98 -8 14 C-8.99 14 -9.98 14 -11 14 C-11 13.34 -11 12.68 -11 12 C-11.66 12 -12.32 12 -13 12 C-11.98823563 8.59679258 -11.35156418 7.24274669 -8.375 5.1875 C-7.59125 4.795625 -6.8075 4.40375 -6 4 C-6 4.66 -6 5.32 -6 6 C-4.68 6.33 -3.36 6.66 -2 7 C-2.33 5.02 -2.66 3.04 -3 1 C-2.01 0.67 -1.02 0.34 0 0 Z " fill="#AF8430" transform="translate(79,52)"/>
<path d="M0 0 C10.56 0 21.12 0 32 0 C32 2.64 32 5.28 32 8 C28.04 8 24.08 8 20 8 C20 18.89 20 29.78 20 41 C17.36 41 14.72 41 12 41 C11 40 11 40 10.88647461 36.94897461 C10.88663366 35.60008729 10.89232388 34.25119386 10.90234375 32.90234375 C10.9037587 32.19348526 10.90517365 31.48462677 10.90663147 30.75428772 C10.91224557 28.48198288 10.92480037 26.20977525 10.9375 23.9375 C10.94251319 22.40039204 10.94707641 20.86328255 10.95117188 19.32617188 C10.96221958 15.55074358 10.97949359 11.77538829 11 8 C7.37 8 3.74 8 0 8 C0 5.36 0 2.72 0 0 Z " fill="#2B2B89" transform="translate(219,77)"/>
<path d="M0 0 C7.98885732 4.58964873 13.2504589 11.47403294 16.17578125 20.25 C16.96753153 31.80176643 16.43379969 40.22235707 8.92578125 49.5 C3.1574054 55.68744589 -3.60834837 59.76791104 -12.19140625 60.43359375 C-16.62850899 60.55409015 -16.62850899 60.55409015 -18.82421875 60.25 C-19.48421875 59.59 -20.14421875 58.93 -20.82421875 58.25 C-18.34921875 57.755 -18.34921875 57.755 -15.82421875 57.25 C-16.61434116 54.72867442 -17.40608683 52.20787973 -18.19921875 49.6875 C-18.45525879 48.8735376 -18.71129883 48.0595752 -18.97509766 47.22094727 C-20.77356953 41.52406268 -22.60260645 35.83766351 -24.44921875 30.15625 C-24.90706773 28.74552536 -25.36491277 27.33479945 -25.82275391 25.92407227 C-26.51064482 23.8049815 -27.19962012 21.68627201 -27.89178467 19.568573 C-28.54627625 17.5660614 -29.19725892 15.56243818 -29.84765625 13.55859375 C-30.22841309 12.39126709 -30.60916992 11.22394043 -31.00146484 10.02124023 C-31.82421875 7.25 -31.82421875 7.25 -31.82421875 5.25 C-37.49903033 9.20917087 -40.82923346 13.5604323 -42.82421875 20.25 C-43.82404934 28.90940232 -44.06116182 37.85927189 -38.82421875 45.25 C-34.05788435 51.24288547 -29.02465986 54.71651146 -21.82421875 57.25 C-24.24456729 58.11870297 -25.46724515 58.37075078 -27.9375 57.53515625 C-36.21908441 52.93100719 -41.9564156 47.05926342 -45.1640625 38.01953125 C-47.30919124 29.020145 -46.48214223 20.27426936 -41.82421875 12.25 C-32.21226051 -1.57175261 -15.7543832 -7.42596131 0 0 Z M-29.82421875 2.25 C-31.18586225 6.33493049 -29.79369311 9.09214971 -28.4375 12.99609375 C-28.17921921 13.76244644 -27.92093842 14.52879913 -27.65483093 15.31837463 C-26.82386097 17.77769202 -25.98054863 20.23256896 -25.13671875 22.6875 C-24.58706108 24.3063592 -24.03822397 25.92549726 -23.49023438 27.54492188 C-22.42961993 30.67580979 -21.36456448 33.80512388 -20.29541016 36.93310547 C-18.4416166 42.36210447 -16.62742168 47.80399011 -14.82421875 53.25 C-12.60098913 49.91515556 -11.63277171 46.67358691 -10.546875 42.87109375 C-10.33485947 42.1443898 -10.12284393 41.41768585 -9.90440369 40.66896057 C-9.22698586 38.34318583 -8.5566938 36.01542843 -7.88671875 33.6875 C-7.22024498 31.39047244 -6.55234004 29.09386423 -5.8843689 26.79727173 C-5.45345058 25.31312342 -5.02392988 23.82856856 -4.59585571 22.34359741 C-3.23090956 17.61249762 -1.80895082 12.9034185 -0.30249023 8.21508789 C0.33343522 5.939318 0.33343522 5.939318 0.17578125 2.25 C-9.21484074 -2.25749855 -20.50763987 -2.68230647 -29.82421875 2.25 Z M2.17578125 4.25 C-0.73445188 11.88217824 -3.12906353 19.55568174 -5.26171875 27.4375 C-7.65831299 36.16623719 -10.18434642 44.82351265 -12.9765625 53.43359375 C-13.92028565 56.07898979 -13.92028565 56.07898979 -13.82421875 58.25 C-4.78817599 57.81971225 1.64583401 55.21086739 7.98828125 48.625 C13.34963413 41.99188434 15.90973466 34.16882439 15.4921875 25.65625 C14.49789287 18.09470073 11.55015703 11.72949804 6.17578125 6.25 C4.85574853 5.55737034 3.52350843 4.88706646 2.17578125 4.25 Z " fill="#EFD3D0" transform="translate(115.82421875,68.75)"/>
<path d="M0 0 C3.3 0 6.6 0 10 0 C10 13.53 10 27.06 10 41 C6.7 41 3.4 41 0 41 C0 27.47 0 13.94 0 0 Z " fill="#2B2B89" transform="translate(208,77)"/>
<path d="M0 0 C-0.66 0.33 -1.32 0.66 -2 1 C-2 1.66 -2 2.32 -2 3 C-1.34 3 -0.68 3 0 3 C-0.33 5.31 -0.66 7.62 -1 10 C-4 9 -4 9 -6 6 C-6.99 6 -7.98 6 -9 6 C-15.94450408 5.5028714 -15.94450408 5.5028714 -18.84375 5.26757812 C-23.41165563 4.9455923 -27.4880728 5.20273538 -32 6 C-32.33 5.01 -32.66 4.02 -33 3 C-33.66 3 -34.32 3 -35 3 C-34.67 3.99 -34.34 4.98 -34 6 C-35.32 6.33 -36.64 6.66 -38 7 C-38.33 5.68 -38.66 4.36 -39 3 C-39.66 3 -40.32 3 -41 3 C-41 2.34 -41 1.68 -41 1 C-42.65 1 -44.3 1 -46 1 C-43.83106765 -1.16893235 -42.56073312 -1.64016802 -39.6875 -2.5625 C-38.92824219 -2.81128906 -38.16898437 -3.06007812 -37.38671875 -3.31640625 C-24.64716169 -6.96521555 -12.07315769 -5.03048237 0 0 Z " fill="#3C3B8C" transform="translate(124,49)"/>
<path d="M0 0 C0.66 0.33 1.32 0.66 2 1 C2.95067299 4.28414305 3.10102197 5.69693408 2 9 C4.97 8.01 7.94 7.02 11 6 C10.25 8.4375 10.25 8.4375 9 11 C6.875 11.8125 6.875 11.8125 5 12 C4.9071875 13.175625 4.9071875 13.175625 4.8125 14.375 C4.544375 15.24125 4.27625 16.1075 4 17 C1.6875 18.1875 1.6875 18.1875 -1 19 C-2.34050052 19.65213539 -3.67661368 20.31379969 -5 21 C-4.87625 22.11375 -4.87625 22.11375 -4.75 23.25 C-5 26 -5 26 -6.875 28.3125 C-9 30 -9 30 -11 30 C-11.33 31.98 -11.66 33.96 -12 36 C-12.66 36 -13.32 36 -14 36 C-14 35.01 -14 34.02 -14 33 C-15.485 33.495 -15.485 33.495 -17 34 C-15.59844847 26.11627264 -10.5931955 19.5931955 -5 14 C-5.99 13.01 -6.98 12.02 -8 11 C-8 11.99 -8 12.98 -8 14 C-8.99 14 -9.98 14 -11 14 C-11 13.34 -11 12.68 -11 12 C-11.66 12 -12.32 12 -13 12 C-11.98823563 8.59679258 -11.35156418 7.24274669 -8.375 5.1875 C-7.59125 4.795625 -6.8075 4.40375 -6 4 C-6 4.66 -6 5.32 -6 6 C-4.68 6.33 -3.36 6.66 -2 7 C-2.33 5.02 -2.66 3.04 -3 1 C-2.01 0.67 -1.02 0.34 0 0 Z " fill="#AD8332" transform="translate(79,52)"/>
<path d="M0 0 C2.64 1.65 5.28 3.3 8 5 C7.51709839 12.72642584 4.31537449 18.15914902 -1.4375 23.3125 C-7.37401258 28.01064329 -12.55358882 29.52012017 -20 30 C-17.82609478 20.78402945 -15.51257696 11.81881025 -12 3 C-9.61067235 6.58399147 -9 8.73195001 -9 13 C-9.57119725 14.68586372 -10.20294381 16.35174539 -10.875 18 C-11.22304687 18.86625 -11.57109375 19.7325 -11.9296875 20.625 C-13 23 -13 23 -15 26 C-11.535 25.505 -11.535 25.505 -8 25 C-7.85304688 24.15695313 -7.70609375 23.31390625 -7.5546875 22.4453125 C-6.88576463 19.17758584 -6.18612876 16.1195621 -5 13 C-1.8125 11.25 -1.8125 11.25 1 11 C2.0967298 5.35496446 2.0967298 5.35496446 0 0 Z " fill="#FADF76" transform="translate(122,97)"/>
<path d="M0 0 C0.66 0 1.32 0 2 0 C2.33 0.66 2.66 1.32 3 2 C3.99 2.33 4.98 2.66 6 3 C7.98511244 5.67990179 8.01340927 6.88378631 7.625 10.25 C7.315625 11.61125 7.315625 11.61125 7 13 C8.32 13.33 9.64 13.66 11 14 C9.6645075 18.00647751 7.47234113 18.75744636 4 21 C2.85345518 23.29308963 2.80270883 24.79909656 2.68359375 27.3515625 C2.64169922 28.20234375 2.59980469 29.053125 2.55664062 29.9296875 C2.51732422 30.81914063 2.47800781 31.70859375 2.4375 32.625 C2.39431641 33.5221875 2.35113281 34.419375 2.30664062 35.34375 C2.20043139 37.56234283 2.09838806 39.7810488 2 42 C1.34 42 0.68 42 0 42 C-0.01401855 41.16807129 -0.01401855 41.16807129 -0.02832031 40.31933594 C-0.08215722 37.79533519 -0.16577254 35.27316186 -0.25 32.75 C-0.26417969 31.87730469 -0.27835938 31.00460938 -0.29296875 30.10546875 C-0.43854389 24.92288796 -0.43854389 24.92288796 -2.90625 20.4921875 C-3.5971875 19.99976562 -4.288125 19.50734375 -5 19 C-6.35113205 18.02418241 -7.68946944 17.02970259 -9 16 C-9 15.34 -9 14.68 -9 14 C-8.52949219 13.56042969 -8.05898437 13.12085937 -7.57421875 12.66796875 C-5.62048207 10.5978805 -5.3350176 9.08586266 -4.8125 6.3125 C-4.65394531 5.50425781 -4.49539062 4.69601563 -4.33203125 3.86328125 C-4.22246094 3.24839844 -4.11289063 2.63351563 -4 2 C-3.01 2.33 -2.02 2.66 -1 3 C-0.67 2.01 -0.34 1.02 0 0 Z " fill="#D5A178" transform="translate(100,71)"/>
<path d="M0 0 C7.39368052 6.20252768 12.28241425 13.15371637 16.859375 21.62109375 C15.374375 22.11609375 15.374375 22.11609375 13.859375 22.62109375 C13.60285156 22.08742187 13.34632813 21.55375 13.08203125 21.00390625 C5.94890215 7.12192436 -4.90292153 -1.56094589 -19.53515625 -6.65234375 C-34.20826284 -10.74409461 -47.96203875 -8.15302815 -61.21875 -1.1640625 C-74.0191914 6.65652803 -81.51232105 18.23550675 -85.140625 32.62109375 C-85.93597835 36.60695027 -86.59788192 40.59336881 -87.140625 44.62109375 C-87.470625 44.62109375 -87.800625 44.62109375 -88.140625 44.62109375 C-89.02814436 30.71662379 -85.00784507 20.91811174 -77.140625 9.62109375 C-76.480625 8.63109375 -75.820625 7.64109375 -75.140625 6.62109375 C-74.480625 6.62109375 -73.820625 6.62109375 -73.140625 6.62109375 C-72.810625 5.63109375 -72.480625 4.64109375 -72.140625 3.62109375 C-51.39066845 -14.67868343 -22.40823019 -16.97339824 0 0 Z " fill="#AD8235" transform="translate(135.140625,53.37890625)"/>
<path d="M0 0 C2.31 0 4.62 0 7 0 C7 13.53 7 27.06 7 41 C5.02 41 3.04 41 1 41 C0 40 0 40 -0.11352539 36.21459961 C-0.11336622 34.52717271 -0.10766917 32.83974095 -0.09765625 31.15234375 C-0.0962413 30.2659169 -0.09482635 29.37949005 -0.09336853 28.46620178 C-0.08775215 25.62326746 -0.07519691 22.78041069 -0.0625 19.9375 C-0.05748711 18.01497509 -0.05292384 16.09244896 -0.04882812 14.16992188 C-0.03777741 9.44658451 -0.02050183 4.72330542 0 0 Z " fill="#2A2A88" transform="translate(334,77)"/>
<path d="M0 0 C2.5 2.3125 2.5 2.3125 5 5 C5 5.99 5 6.98 5 8 C2.79388434 8.81898266 0.5854166 9.63027543 -1.625 10.4375 C-2.85476562 10.88996094 -4.08453125 11.34242188 -5.3515625 11.80859375 C-10.79136965 13.58497617 -15.67012437 14.12588751 -21.375 14.0625 C-22.96441406 14.04896484 -22.96441406 14.04896484 -24.5859375 14.03515625 C-25.38257812 14.02355469 -26.17921875 14.01195312 -27 14 C-27.33 13.34 -27.66 12.68 -28 12 C-27.67 11.34 -27.34 10.68 -27 10 C-27.99 9.67 -28.98 9.34 -30 9 C-30 7.35 -30 5.7 -30 4 C-27.87506859 3.97306425 -25.75004088 3.95363372 -23.625 3.9375 C-22.44164063 3.92589844 -21.25828125 3.91429687 -20.0390625 3.90234375 C-17 4 -17 4 -15 5 C-12.8123191 4.45307978 -10.64722885 3.81382342 -8.5 3.125 C-7.3346875 2.75632813 -6.169375 2.38765625 -4.96875 2.0078125 C-2.11446256 1.11388069 -2.11446256 1.11388069 0 0 Z " fill="#34348C" transform="translate(122,136)"/>
<path d="M0 0 C1.42183206 2.3993416 2.03974327 3.61250307 1.75 6.4375 C2.05306863 9.54395342 2.66921676 9.88470265 5 11.8125 C5.99 12.534375 6.98 13.25625 8 14 C4.89448334 14 3.64738916 13.4606285 1 12 C1.37125 12.53625 1.7425 13.0725 2.125 13.625 C3.34857383 16.94612897 2.30463011 18.81090417 1 22 C-0.98 22.33 -2.96 22.66 -5 23 C-5.04898438 23.61488281 -5.09796875 24.22976562 -5.1484375 24.86328125 C-5.22320312 25.67152344 -5.29796875 26.47976562 -5.375 27.3125 C-5.44460937 28.11300781 -5.51421875 28.91351563 -5.5859375 29.73828125 C-6 32 -6 32 -8 35 C-10.1640625 35.73046875 -10.1640625 35.73046875 -12.625 36.1875 C-13.44226563 36.34605469 -14.25953125 36.50460938 -15.1015625 36.66796875 C-15.72804688 36.77753906 -16.35453125 36.88710937 -17 37 C-16.51080078 36.27296875 -16.51080078 36.27296875 -16.01171875 35.53125 C-12.94075683 30.82062995 -10.80654404 26.32455084 -9 21 C-9.66 20.34 -10.32 19.68 -11 19 C-10.7578125 16.3984375 -10.7578125 16.3984375 -10.125 13.375 C-9.92132813 12.37210938 -9.71765625 11.36921875 -9.5078125 10.3359375 C-9.25644531 9.17964844 -9.25644531 9.17964844 -9 8 C-7.02 8 -5.04 8 -3 8 C-2.87625 7.236875 -2.7525 6.47375 -2.625 5.6875 C-2 3 -2 3 0 0 Z " fill="#3F3C85" transform="translate(122,87)"/>
<path d="M0 0 C1.98 0 3.96 0 6 0 C6 13.53 6 27.06 6 41 C4.35 41 2.7 41 1 41 C0 40 0 40 -0.11352539 36.21459961 C-0.11336622 34.52717271 -0.10766917 32.83974095 -0.09765625 31.15234375 C-0.0962413 30.2659169 -0.09482635 29.37949005 -0.09336853 28.46620178 C-0.08775215 25.62326746 -0.07519691 22.78041069 -0.0625 19.9375 C-0.05748711 18.01497509 -0.05292384 16.09244896 -0.04882812 14.16992188 C-0.03777741 9.44658451 -0.02050183 4.72330542 0 0 Z " fill="#2A2A88" transform="translate(446,77)"/>
<path d="M0 0 C0 0.66 0 1.32 0 2 C0.66 2 1.32 2 2 2 C2.66 2.66 3.32 3.32 4 4 C4.66 4 5.32 4 6 4 C6 3.34 6 2.68 6 2 C6.66 2 7.32 2 8 2 C8.66 2.66 9.32 3.32 10 4 C12.56935065 3.98037513 12.56935065 3.98037513 15.5 3.5625 C22.18466086 2.87875009 28.57830525 2.85943508 35 5 C35 6.65 35 8.3 35 10 C33.29263672 9.51466797 33.29263672 9.51466797 31.55078125 9.01953125 C27.05530923 7.90134808 22.8054461 7.65564523 18.1875 7.6875 C17.40648926 7.68878906 16.62547852 7.69007812 15.82080078 7.69140625 C9.55860388 7.79489226 3.89535998 8.8184571 -2 11 C-1.67 8.69 -1.34 6.38 -1 4 C-1.66 3.67 -2.32 3.34 -3 3 C-3.33 3.33 -3.66 3.66 -4 4 C-4.99 3.67 -5.98 3.34 -7 3 C-5.73025028 7.41522109 -5.73025028 7.41522109 -3 11 C-5.875 10.6875 -5.875 10.6875 -9 10 C-9.66 9.01 -10.32 8.02 -11 7 C-14.42578949 10.17539556 -14.42578949 10.17539556 -17 14 C-16.34 14 -15.68 14 -15 14 C-15.33 14.66 -15.66 15.32 -16 16 C-16.99 15.34 -17.98 14.68 -19 14 C-19.99 14.495 -19.99 14.495 -21 15 C-20.37126987 9.61880975 -18.09386737 7.87825954 -14.05078125 4.58203125 C-9.0875491 0.75325216 -6.40077796 -0.37651635 0 0 Z " fill="#333389" transform="translate(83,50)"/>
<path d="M0 0 C0.83719383 2.29032311 1.6698929 4.58210957 2.5 6.875 C2.73847656 7.52597656 2.97695312 8.17695312 3.22265625 8.84765625 C5 13.7734375 5 13.7734375 5 16 C4.34 16 3.68 16 3 16 C2.67 15.34 2.34 14.68 2 14 C-0.02463255 13.34786708 -0.02463255 13.34786708 -2 13 C-2 12.34 -2 11.68 -2 11 C-4.50037734 13.17424117 -5.43628586 14.73045798 -6 18 C-4.68 18 -3.36 18 -2 18 C-1.34 17.34 -0.68 16.68 0 16 C0.99 16.33 1.98 16.66 3 17 C3.24954005 18.43410368 3.47392642 19.87260072 3.6875 21.3125 C3.87892578 22.51326172 3.87892578 22.51326172 4.07421875 23.73828125 C4 26 4 26 2.64453125 27.79296875 C1 29 1 29 -1 29 C-1 28.34 -1 27.68 -1 27 C-1.99 26.67 -2.98 26.34 -4 26 C-2.68 26 -1.36 26 0 26 C0.66 24.68 1.32 23.36 2 22 C0.35 22 -1.3 22 -3 22 C-3 21.34 -3 20.68 -3 20 C-5.97 19.67 -8.94 19.34 -12 19 C-11.68887858 11.68864657 -8.22395232 6.62494142 -3.4296875 1.234375 C-2 0 -2 0 0 0 Z M-6 25 C-5.34 25.99 -4.68 26.98 -4 28 C-4.8125 30.5 -4.8125 30.5 -6 33 C-6.33 33.99 -6.66 34.98 -7 36 C-8.57266062 32.94204879 -9.18219122 31.61664721 -8.1875 28.25 C-7 26 -7 26 -6 25 Z " fill="#65CCE8" transform="translate(84,74)"/>
<path d="M0 0 C5.65394631 -0.34615998 9.03006806 0.56574762 14 3 C13.67 4.65 13.34 6.3 13 8 C12.4225 7.814375 11.845 7.62875 11.25 7.4375 C8.79307475 6.95976454 7.35602466 7.24270636 5 8 C4.15545644 11.37817425 3.89155081 13.67465243 5 17 C5.99 17 6.98 17 8 17 C8.268125 17.78375 8.53625 18.5675 8.8125 19.375 C9.84814432 22.28114923 9.84814432 22.28114923 13 24 C13 22.68 13 21.36 13 20 C15.8125 20.1875 15.8125 20.1875 19 21 C20.85233285 23.40803271 22 24.92741925 22 28 C20.9275 27.62875 19.855 27.2575 18.75 26.875 C14.76173604 25.94440508 14.27920881 26.04118058 11 28 C4.77966567 22.56594389 0.3851775 17.2409398 -0.23828125 8.7578125 C-0.24862898 5.82595645 -0.17822952 2.92593455 0 0 Z " fill="#55AFD7" transform="translate(72,93)"/>
<path d="M0 0 C5.02611593 1.43603312 6.92247908 3.98212547 10 8 C11.14602271 9.14602271 12.32497829 10.25872938 13.5 11.375 C16 14 16 14 17 17 C15.02 17.99 15.02 17.99 13 19 C13 19.99 13 20.98 13 22 C12.34 22 11.68 22 11 22 C10.67 22.66 10.34 23.32 10 24 C9.62488281 23.40832031 9.24976563 22.81664063 8.86328125 22.20703125 C6.49729783 18.55376214 4.38588879 15.36016287 1.1875 12.375 C-1.65704851 9.28663305 -1.92323654 7.1452268 -2 3 C-1.34 2.01 -0.68 1.02 0 0 Z " fill="#35348A" transform="translate(127,55)"/>
<path d="M0 0 C0.9590625 0.4021875 0.9590625 0.4021875 1.9375 0.8125 C5.91202261 2.35364142 9.94884495 3.67609312 14 5 C13.01 5.495 13.01 5.495 12 6 C11.835 7.155 11.67 8.31 11.5 9.5 C11.335 10.655 11.17 11.81 11 13 C10.01 13.495 10.01 13.495 9 14 C8.67 13.34 8.34 12.68 8 12 C8 12.99 8 13.98 8 15 C7.01 15.495 7.01 15.495 6 16 C3.1796875 14.78515625 3.1796875 14.78515625 -0.125 13.0625 C-1.22070312 12.49660156 -2.31640625 11.93070313 -3.4453125 11.34765625 C-4.28835937 10.90292969 -5.13140625 10.45820313 -6 10 C-5.18957164 8.51969728 -4.37659652 7.04078858 -3.5625 5.5625 C-2.88380859 4.32693359 -2.88380859 4.32693359 -2.19140625 3.06640625 C-1 1 -1 1 0 0 Z " fill="#373586" transform="translate(79,132)"/>
<path d="M0 0 C0.33 0.66 0.66 1.32 1 2 C6.94 1.505 6.94 1.505 13 1 C13.83513859 3.47857204 14.66819125 5.95781067 15.5 8.4375 C15.73847656 9.14455078 15.97695312 9.85160156 16.22265625 10.58007812 C18 15.88671875 18 15.88671875 18 17 C16.56589632 17.24954005 15.12739928 17.47392642 13.6875 17.6875 C12.88699219 17.81511719 12.08648437 17.94273438 11.26171875 18.07421875 C9 18 9 18 7.375 16.625 C6.92125 16.08875 6.4675 15.5525 6 15 C4.35394174 13.96642853 2.69036558 12.95939668 1 12 C2.32 10.68 3.64 9.36 5 8 C6.98 8.99 8.96 9.98 11 11 C9.91839859 8.0005907 9.91839859 8.0005907 8 5 C4.93638223 3.56031273 4.93638223 3.56031273 2 3 C2 4.32 2 5.64 2 7 C0.68 6.34 -0.64 5.68 -2 5 C-2 3.68 -2 2.36 -2 1 C-1.34 0.67 -0.68 0.34 0 0 Z " fill="#67C8E6" transform="translate(83,110)"/>
<path d="M0 0 C1.98 1.65 3.96 3.3 6 5 C5.62488281 5.4846875 5.24976562 5.969375 4.86328125 6.46875 C-3.05659235 16.84238796 -6.91598469 24.811147 -8 38 C-11.96 38 -15.92 38 -20 38 C-20 36.35 -20 34.7 -20 33 C-19.34 33 -18.68 33 -18 33 C-18 33.99 -18 34.98 -18 36 C-15.03 35.505 -15.03 35.505 -12 35 C-12.33 33.02 -12.66 31.04 -13 29 C-12.34 29 -11.68 29 -11 29 C-10.90203125 28.443125 -10.8040625 27.88625 -10.703125 27.3125 C-9.58748557 21.6188919 -7.77761221 17.09228905 -5 12 C-4.34 12 -3.68 12 -3 12 C-3.50603992 9.83125748 -3.99983813 8.00032373 -5 6 C-4.401875 6.185625 -3.80375 6.37125 -3.1875 6.5625 C-0.83591238 7.22093687 -0.83591238 7.22093687 2 6 C1.34 4.02 0.68 2.04 0 0 Z " fill="#363487" transform="translate(69,60)"/>
<path d="M0 0 C1.21236328 0.01353516 1.21236328 0.01353516 2.44921875 0.02734375 C3.37154297 0.04474609 3.37154297 0.04474609 4.3125 0.0625 C4.6425 1.0525 4.9725 2.0425 5.3125 3.0625 C5.6425 2.4025 5.9725 1.7425 6.3125 1.0625 C8.6225 1.3925 10.9325 1.7225 13.3125 2.0625 C12.9825 4.0425 12.6525 6.0225 12.3125 8.0625 C11.23871094 7.97871094 10.16492188 7.89492188 9.05859375 7.80859375 C7.62242378 7.7053397 6.18622419 7.60249706 4.75 7.5 C3.69329102 7.41588867 3.69329102 7.41588867 2.61523438 7.33007812 C-2.00188431 7.01092246 -6.1283752 7.25371965 -10.6875 8.0625 C-11.0175 7.0725 -11.3475 6.0825 -11.6875 5.0625 C-12.3475 5.0625 -13.0075 5.0625 -13.6875 5.0625 C-13.3575 6.0525 -13.0275 7.0425 -12.6875 8.0625 C-14.0075 8.3925 -15.3275 8.7225 -16.6875 9.0625 C-17.3475 7.0825 -18.0075 5.1025 -18.6875 3.0625 C-13.8125 2.0625 -13.8125 2.0625 -12.6875 2.0625 C-11.6975 1.7325 -10.7075 1.4025 -9.6875 1.0625 C-10.0175 2.3825 -10.3475 3.7025 -10.6875 5.0625 C-10.0275 5.0625 -9.3675 5.0625 -8.6875 5.0625 C-8.584375 4.423125 -8.48125 3.78375 -8.375 3.125 C-8.148125 2.444375 -7.92125 1.76375 -7.6875 1.0625 C-4.80538698 0.10179566 -2.98899956 -0.04331883 0 0 Z " fill="#9090C0" transform="translate(102.6875,46.9375)"/>
<path d="M0 0 C0.12375 0.639375 0.2475 1.27875 0.375 1.9375 C0.684375 2.9584375 0.684375 2.9584375 1 4 C1.66 4.33 2.32 4.66 3 5 C3.33 4.34 3.66 3.68 4 3 C6.1591338 9.87581298 7.35482211 15.78528371 7 23 C3.04 23 -0.92 23 -5 23 C-5 22.67 -5 22.34 -5 22 C-1.37 22 2.26 22 6 22 C5.67 20.35 5.34 18.7 5 17 C4.67 17.33 4.34 17.66 4 18 C2.00041636 18.04080783 -0.00045254 18.04254356 -2 18 C-2.12375 17.113125 -2.2475 16.22625 -2.375 15.3125 C-2.94573943 12.287581 -3.8508068 9.83467655 -5 7 C-5 6.01 -5 5.02 -5 4 C-5.33 3.34 -5.66 2.68 -6 2 C-2.25 0 -2.25 0 0 0 Z " fill="#454186" transform="translate(147,75)"/>
<path d="M0 0 C0.33 0.99 0.66 1.98 1 3 C1.66 3 2.32 3 3 3 C3 3.66 3 4.32 3 5 C4.65 5 6.3 5 8 5 C8 4.01 8 3.02 8 2 C9.32 2.33 10.64 2.66 12 3 C10.6645075 7.00647751 8.47234113 7.75744636 5 10 C3.85345518 12.29308963 3.80270883 13.79909656 3.68359375 16.3515625 C3.64169922 17.20234375 3.59980469 18.053125 3.55664062 18.9296875 C3.51732422 19.81914063 3.47800781 20.70859375 3.4375 21.625 C3.39431641 22.5221875 3.35113281 23.419375 3.30664062 24.34375 C3.20043139 26.56234283 3.09838806 28.7810488 3 31 C2.34 31 1.68 31 1 31 C0.98598145 30.16807129 0.98598145 30.16807129 0.97167969 29.31933594 C0.91784278 26.79533519 0.83422746 24.27316186 0.75 21.75 C0.73582031 20.87730469 0.72164062 20.00460938 0.70703125 19.10546875 C0.56145611 13.92288796 0.56145611 13.92288796 -1.90625 9.4921875 C-2.5971875 8.99976562 -3.288125 8.50734375 -4 8 C-5.35113205 7.02418241 -6.68946944 6.02970259 -8 5 C-8 4.34 -8 3.68 -8 3 C-5.04518508 0.25624329 -4.22528092 0 0 0 Z " fill="#D6AA80" transform="translate(99,82)"/>
<path d="M0 0 C4.06155154 1.31895746 6.06194496 2.78764846 8.625 6.1875 C9.19476563 6.92355469 9.76453125 7.65960938 10.3515625 8.41796875 C13.97596586 14.09505553 15.54012982 19.16446449 15.4375 25.875 C15.42920166 26.57753906 15.42090332 27.28007813 15.41235352 28.00390625 C15.12234121 36.93752377 11.92964221 42.76670857 5.921875 49.2109375 C-1.07645537 55.72564341 -8.59555692 58.20031364 -18.08203125 58.265625 C-20 58 -20 58 -22 56 C-19.525 55.505 -19.525 55.505 -17 55 C-17 54.01 -17 53.02 -17 52 C-16.34 52 -15.68 52 -15 52 C-15 53.32 -15 54.64 -15 56 C-5.52740783 54.20020749 0.38359746 51.48816914 7.25 44.8125 C12.32935628 36.64924884 14.51277958 28.08679047 12.4921875 18.62109375 C10.63418617 12.31029612 7.80409852 6.80708571 2.1875 3.1875 C1.465625 2.795625 0.74375 2.40375 0 2 C0 1.34 0 0.68 0 0 Z " fill="#ECECEC" transform="translate(117,71)"/>
<path d="M0 0 C1.42183206 2.3993416 2.03974327 3.61250307 1.75 6.4375 C2.05306863 9.54395342 2.66921676 9.88470265 5 11.8125 C5.99 12.534375 6.98 13.25625 8 14 C4.89448334 14 3.64738916 13.4606285 1 12 C1.37125 12.53625 1.7425 13.0725 2.125 13.625 C3.34857383 16.94612897 2.30463011 18.81090417 1 22 C-0.65 22.33 -2.3 22.66 -4 23 C-4 22.01 -4 21.02 -4 20 C-3.34 20 -2.68 20 -2 20 C-2.020625 18.9275 -2.04125 17.855 -2.0625 16.75 C-2.0142016 13.85209576 -1.86844115 11.71387859 -1 9 C-1.99 9 -2.98 9 -4 9 C-4 9.66 -4 10.32 -4 11 C-4.66 11 -5.32 11 -6 11 C-6.33 14.63 -6.66 18.26 -7 22 C-8.32 21.01 -9.64 20.02 -11 19 C-10.34 15.37 -9.68 11.74 -9 8 C-7.02 8 -5.04 8 -3 8 C-2.87625 7.236875 -2.7525 6.47375 -2.625 5.6875 C-2 3 -2 3 0 0 Z " fill="#C9A831" transform="translate(122,87)"/>
<path d="M0 0 C0.66 0.33 1.32 0.66 2 1 C1.01 1.66 0.02 2.32 -1 3 C-1.25015873 6.58357241 -1.25015873 6.58357241 -1 10 C-3 7 -3 7 -3 5 C-8.67481158 8.95917087 -12.00501471 13.3104323 -14 20 C-14.99983059 28.65940232 -15.23694307 37.60927189 -10 45 C-5.2336656 50.99288547 -0.20044111 54.46651146 7 57 C4.57965146 57.86870297 3.3569736 58.12075078 0.88671875 57.28515625 C-7.39486566 52.68100719 -13.13219685 46.80926342 -16.33984375 37.76953125 C-18.48225271 28.78155521 -17.66940466 20.01056224 -13 12 C-9.36697305 6.92431829 -5.3752012 3.14645924 0 0 Z " fill="#D5E3F0" transform="translate(87,69)"/>
<path d="M0 0 C0.33 0 0.66 0 1 0 C1.33 4.95 1.66 9.9 2 15 C2.66 15 3.32 15 4 15 C3.1875 17.9375 3.1875 17.9375 2 21 C1.01 21.33 0.02 21.66 -1 22 C-2.4477922 24.89558441 -3 26.74188938 -3 30 C-4.79570682 32.59379873 -5.8566152 32.97311535 -9 33.5625 C-9.99 33.706875 -10.98 33.85125 -12 34 C-12.99 34.66 -13.98 35.32 -15 36 C-14.66192514 33.03806053 -14.41526802 31.42287019 -12.29296875 29.26171875 C-11.25076172 28.48248047 -11.25076172 28.48248047 -10.1875 27.6875 C-4.56707573 23.08439267 -1.41745981 17.13852136 -0.68359375 9.86328125 C-0.60238281 8.69152344 -0.52117187 7.51976563 -0.4375 6.3125 C-0.35371094 5.13300781 -0.26992187 3.95351562 -0.18359375 2.73828125 C-0.12300781 1.83464844 -0.06242188 0.93101563 0 0 Z " fill="#3C3780" transform="translate(132,92)"/>
<path d="M0 0 C0.99 0 1.98 0 3 0 C3 4 3 4 1.5625 5.5 C1.046875 5.995 0.53125 6.49 0 7 C-0.71447643 9.10332891 -0.71447643 9.10332891 -1 11 C0.32 11 1.64 11 3 11 C3.66 10.34 4.32 9.68 5 9 C5.99 9.33 6.98 9.66 8 10 C8.24954005 11.43410368 8.47392642 12.87260072 8.6875 14.3125 C8.81511719 15.11300781 8.94273438 15.91351563 9.07421875 16.73828125 C9 19 9 19 7.64453125 20.79296875 C6 22 6 22 4 22 C4 21.34 4 20.68 4 20 C3.01 19.67 2.02 19.34 1 19 C2.32 19 3.64 19 5 19 C5.66 17.68 6.32 16.36 7 15 C5.35 15 3.7 15 2 15 C2 14.34 2 13.68 2 13 C-0.31 12.34 -2.62 11.68 -5 11 C-4.67 10.01 -4.34 9.02 -4 8 C-3.34 8 -2.68 8 -2 8 C-1.855625 6.865625 -1.71125 5.73125 -1.5625 4.5625 C-1 1 -1 1 0 0 Z M-1 18 C-0.34 18.99 0.32 19.98 1 21 C0.1875 23.5 0.1875 23.5 -1 26 C-1.33 26.99 -1.66 27.98 -2 29 C-3.57266062 25.94204879 -4.18219122 24.61664721 -3.1875 21.25 C-2 19 -2 19 -1 18 Z " fill="#8DD8EE" transform="translate(79,81)"/>
<path d="M0 0 C0.66 0.33 1.32 0.66 2 1 C2.96115703 3.8834711 3.08162227 5.65718648 2.375 8.625 C0.69683507 11.52364851 -1.03984568 12.51992284 -4 14 C-5.65 12.68 -7.3 11.36 -9 10 C-8.67 11.32 -8.34 12.64 -8 14 C-8.99 14 -9.98 14 -11 14 C-11 13.34 -11 12.68 -11 12 C-11.66 12 -12.32 12 -13 12 C-11.98823563 8.59679258 -11.35156418 7.24274669 -8.375 5.1875 C-7.59125 4.795625 -6.8075 4.40375 -6 4 C-6 4.66 -6 5.32 -6 6 C-4.68 6.33 -3.36 6.66 -2 7 C-2.33 5.02 -2.66 3.04 -3 1 C-2.01 0.67 -1.02 0.34 0 0 Z " fill="#454491" transform="translate(79,52)"/>
<path d="M0 0 C0.33 0.66 0.66 1.32 1 2 C0.67 2.66 0.34 3.32 0 4 C1.32 3.01 2.64 2.02 4 1 C6.63096039 7.48343811 7.39325819 13.02330843 7 20 C-0.38175435 15.86352718 -0.38175435 15.86352718 -1.82421875 11.515625 C-2.33907192 6.99561534 -2.3369899 3.99312448 0 0 Z " fill="#F3D979" transform="translate(124,82)"/>
<path d="M0 0 C0.33 0.66 0.66 1.32 1 2 C3.01669827 3.13350534 3.01669827 3.13350534 5 4 C4.01 4 3.02 4 2 4 C2.99 5.485 2.99 5.485 4 7 C3.34 7 2.68 7 2 7 C2 7.66 2 8.32 2 9 C1.34 9 0.68 9 0 9 C-0.12375 9.763125 -0.2475 10.52625 -0.375 11.3125 C-1 14 -1 14 -3 17 C-4.98 16.34 -6.96 15.68 -9 15 C-7.61219205 11.10993227 -5.7847773 8.03441292 -3.375 4.6875 C-2.74335937 3.80449219 -2.11171875 2.92148438 -1.4609375 2.01171875 C-0.97882812 1.34785156 -0.49671875 0.68398438 0 0 Z " fill="#ACACD0" transform="translate(64,63)"/>
<path d="M0 0 C2.5 2.3125 2.5 2.3125 5 5 C5 5.99 5 6.98 5 8 C4.01 7.67 3.02 7.34 2 7 C2 6.34 2 5.68 2 5 C0.68 5.33 -0.64 5.66 -2 6 C-2 6.66 -2 7.32 -2 8 C-3.65 7.67 -5.3 7.34 -7 7 C-7 7.66 -7 8.32 -7 9 C-9.31 9.33 -11.62 9.66 -14 10 C-14 6 -14 6 -13 4 C-11.03307359 3.47548629 -9.06344477 2.95772309 -7.078125 2.5078125 C-4.60847223 1.90432592 -2.32673617 1.01794707 0 0 Z " fill="#9797C4" transform="translate(122,136)"/>
<path d="M0 0 C2.16594058 3.89342905 3.4446398 8.09149956 4.8203125 12.30859375 C5.08383514 13.11232925 5.34735779 13.91606476 5.61886597 14.74415588 C6.17356459 16.44061413 6.72651518 18.13764481 7.27783203 19.83520508 C8.12164554 22.4271959 8.97660226 25.01533873 9.83203125 27.60351562 C10.37048137 29.25498362 10.90826419 30.90666936 11.4453125 32.55859375 C11.70152374 33.32956894 11.95773499 34.10054413 12.22171021 34.8948822 C13.44808672 38.71091266 14.32896709 41.93620008 14 46 C11.67435264 42.51152896 10.52902287 38.95029357 9.25 35 C8.9926709 34.21270508 8.7353418 33.42541016 8.47021484 32.61425781 C7.92484814 30.94083096 7.38177979 29.26665362 6.84082031 27.59179688 C5.99660522 24.98953573 5.13592542 22.3931297 4.2734375 19.796875 C3.72323818 18.11481873 3.17373834 16.43253346 2.625 14.75 C2.36235352 13.96496094 2.09970703 13.17992188 1.82910156 12.37109375 C0.45742141 8.10691759 -0.3036591 4.54042648 0 0 Z " fill="#ECE0E3" transform="translate(86,76)"/>
<path d="M0 0 C3.55780196 0.60990891 6.6828589 1.5783681 10 3 C9.01 3.495 9.01 3.495 8 4 C8 4.66 8 5.32 8 6 C8.66 6 9.32 6 10 6 C9.67 8.31 9.34 10.62 9 13 C6 12 6 12 4 9 C3.01 9.495 3.01 9.495 2 10 C0.75451511 6.34138814 0 3.81372785 0 0 Z " fill="#6D6DAB" transform="translate(114,46)"/>
<path d="M0 0 C0.33 0.66 0.66 1.32 1 2 C5.455 1.505 5.455 1.505 10 1 C10.69906942 2.59915881 11.38389468 4.20455045 12.0625 5.8125 C12.44535156 6.70582031 12.82820313 7.59914063 13.22265625 8.51953125 C14 11 14 11 13 14 C9.9168649 12.80100302 6.93720508 11.52299523 4 10 C4.33 9.34 4.66 8.68 5 8 C6.98 8.99 8.96 9.98 11 11 C9.91839859 8.0005907 9.91839859 8.0005907 8 5 C4.93638223 3.56031273 4.93638223 3.56031273 2 3 C2 4.32 2 5.64 2 7 C0.68 6.34 -0.64 5.68 -2 5 C-2 3.68 -2 2.36 -2 1 C-1.34 0.67 -0.68 0.34 0 0 Z " fill="#C0EAF5" transform="translate(83,110)"/>
<path d="M0 0 C0.33 0.66 0.66 1.32 1 2 C1.66 2 2.32 2 3 2 C3 3.32 3 4.64 3 6 C0.03 6.66 -2.94 7.32 -6 8 C-6.33 7.01 -6.66 6.02 -7 5 C-7.66 5 -8.32 5 -9 5 C-8.67 5.99 -8.34 6.98 -8 8 C-9.32 8.33 -10.64 8.66 -12 9 C-12.66 7.02 -13.32 5.04 -14 3 C-9.125 2 -9.125 2 -8 2 C-7.01 1.67 -6.02 1.34 -5 1 C-5.33 2.32 -5.66 3.64 -6 5 C-5.34 5 -4.68 5 -4 5 C-3.896875 4.360625 -3.79375 3.72125 -3.6875 3.0625 C-3.460625 2.381875 -3.23375 1.70125 -3 1 C-2.01 0.67 -1.02 0.34 0 0 Z " fill="#ABABCF" transform="translate(98,47)"/>
<path d="M0 0 C3.3 0 6.6 0 10 0 C10 10.23 10 20.46 10 31 C9.67 31 9.34 31 9 31 C9 21.1 9 11.2 9 1 C6.36 1 3.72 1 1 1 C1 10.9 1 20.8 1 31 C0.67 31 0.34 31 0 31 C0 20.77 0 10.54 0 0 Z " fill="#2A2A87" transform="translate(219,86)"/>
<path d="M0 0 C1.98 0 3.96 0 6 0 C5 5 4 10 3 15 C1.02 15 -0.96 15 -3 15 C-2.85892253 13.54119891 -2.71197585 12.08296449 -2.5625 10.625 C-2.48128906 9.81289062 -2.40007813 9.00078125 -2.31640625 8.1640625 C-2 6 -2 6 -1 4 C0.65 4.33 2.3 4.66 4 5 C4 4.34 4 3.68 4 3 C2.68 2.34 1.36 1.68 0 1 C0 0.67 0 0.34 0 0 Z " fill="#ADADD1" transform="translate(54,81)"/>
<path d="M0 0 C0.99 0 1.98 0 3 0 C3.0270043 1.45823212 3.04639787 2.91660675 3.0625 4.375 C3.07410156 5.18710938 3.08570312 5.99921875 3.09765625 6.8359375 C3 9 3 9 2 11 C1.34 11 0.68 11 0 11 C-0.33 12.32 -0.66 13.64 -1 15 C-1.99 14.67 -2.98 14.34 -4 14 C-4.17835515 9.45194365 -3.99785435 6.1205746 -2 2 C-1.34 2 -0.68 2 0 2 C0 1.34 0 0.68 0 0 Z " fill="#846F4C" transform="translate(118,96)"/>
<path d="M0 0 C0.33 2.31 0.66 4.62 1 7 C-0.32 7.33 -1.64 7.66 -3 8 C-3 8.66 -3 9.32 -3 10 C-1.35 10 0.3 10 2 10 C2.33 12.64 2.66 15.28 3 18 C1.35 18 -0.3 18 -2 18 C-2.12375 17.113125 -2.2475 16.22625 -2.375 15.3125 C-2.94573943 12.287581 -3.8508068 9.83467655 -5 7 C-5 6.01 -5 5.02 -5 4 C-5.33 3.34 -5.66 2.68 -6 2 C-2.25 0 -2.25 0 0 0 Z " fill="#BABAD8" transform="translate(147,75)"/>
<path d="M0 0 C5.01113235 1.4317521 6.94469549 3.98445693 10 8 C9.34 8 8.68 8 8 8 C8 8.66 8 9.32 8 10 C7.34 10 6.68 10 6 10 C5.67 10.66 5.34 11.32 5 12 C4.34 10.68 3.68 9.36 3 8 C2.34 8 1.68 8 1 8 C1 7.34 1 6.68 1 6 C0.01 6 -0.98 6 -2 6 C-1.125 1.125 -1.125 1.125 0 0 Z " fill="#9999C5" transform="translate(127,55)"/>
<path d="M0 0 C4.29 0 8.58 0 13 0 C14.33332095 2.6666419 13.67102033 4.16680303 13 7 C11.35 6.67 9.7 6.34 8 6 C7.67 6.66 7.34 7.32 7 8 C6.34 6.68 5.68 5.36 5 4 C5.33 3.67 5.66 3.34 6 3 C5.34 2.67 4.68 2.34 4 2 C4 3.65 4 5.3 4 7 C2.68 6.34 1.36 5.68 0 5 C0 3.35 0 1.7 0 0 Z " fill="#8181B8" transform="translate(92,140)"/>
<path d="M0 0 C2 1 2 1 2.8515625 3.28515625 C3.10679688 4.20167969 3.36203125 5.11820312 3.625 6.0625 C3.88539062 6.98160156 4.14578125 7.90070313 4.4140625 8.84765625 C4.60742188 9.55792969 4.80078125 10.26820312 5 11 C0.25 12.125 0.25 12.125 -2 11 C-2 10.34 -2 9.68 -2 9 C-2.66 9 -3.32 9 -4 9 C-4 7.02 -4 5.04 -4 3 C-3.01 2.67 -2.02 2.34 -1 2 C-0.67 1.34 -0.34 0.68 0 0 Z " fill="#C09849" transform="translate(104,76)"/>
<path d="M0 0 C13.6332574 -0.3690205 13.6332574 -0.3690205 20 2 C19.67 3.32 19.34 4.64 19 6 C18.67 5.34 18.34 4.68 18 4 C17.01 4 16.02 4 15 4 C14.67 5.65 14.34 7.3 14 9 C13.67 9 13.34 9 13 9 C12.855625 8.21625 12.71125 7.4325 12.5625 6.625 C12.12201075 4.03578982 12.12201075 4.03578982 11 2 C7.37 2 3.74 2 0 2 C0 1.34 0 0.68 0 0 Z " fill="#3B357D" transform="translate(94,44)"/>
<path d="M0 0 C2.87793751 1.29010992 4.96183917 2.57361806 7 5 C7.33 5.99 7.66 6.98 8 8 C7.360625 8.28875 6.72125 8.5775 6.0625 8.875 C3.84793921 9.82823451 3.84793921 9.82823451 3 12 C2.67 10.68 2.34 9.36 2 8 C1.34 8 0.68 8 0 8 C-0.66 6.02 -1.32 4.04 -2 2 C-1.34 1.34 -0.68 0.68 0 0 Z " fill="#8989BC" transform="translate(136,64)"/>
<path d="M0 0 C2.97 0.99 5.94 1.98 9 3 C8.01 3.495 8.01 3.495 7 4 C7 4.66 7 5.32 7 6 C7.99 6 8.98 6 10 6 C10 5.34 10 4.68 10 4 C10.66 4.33 11.32 4.66 12 5 C11.34 6.65 10.68 8.3 10 10 C9.401875 9.67 8.80375 9.34 8.1875 9 C5.94613529 7.79212012 5.94613529 7.79212012 3 8 C2.67 6.68 2.34 5.36 2 4 C1.67 4.99 1.34 5.98 1 7 C0.01 6.34 -0.98 5.68 -2 5 C-2 4.34 -2 3.68 -2 3 C-1.34 3 -0.68 3 0 3 C0 2.01 0 1.02 0 0 Z " fill="#8484B9" transform="translate(79,136)"/>
<path d="M0 0 C0.33 0 0.66 0 1 0 C1.33 4.95 1.66 9.9 2 15 C2.66 15 3.32 15 4 15 C3.25 17.9375 3.25 17.9375 2 21 C-0.125 21.875 -0.125 21.875 -2 22 C-3.27910437 18.1626869 -2.28371237 16.77830237 -1 13 C-0.72419137 10.71547193 -0.5156214 8.42181617 -0.375 6.125 C-0.30023438 4.97257812 -0.22546875 3.82015625 -0.1484375 2.6328125 C-0.09945312 1.76398438 -0.05046875 0.89515625 0 0 Z " fill="#3E3D90" transform="translate(132,92)"/>
<path d="M0 0 C0.66 0.33 1.32 0.66 2 1 C1.01 1.66 0.02 2.32 -1 3 C-1.25015873 6.58357241 -1.25015873 6.58357241 -1 10 C-3 7 -3 7 -3 5 C-8.8156611 9.05743797 -11.13386341 13.61349999 -14 20 C-14.66032724 21.33648425 -15.32475313 22.67099139 -16 24 C-16.56236677 18.3763323 -15.08090633 14.58712721 -12 10 C-8.55706987 5.9926551 -5.04214508 1.91181334 0 0 Z " fill="#E4EAF2" transform="translate(87,69)"/>
<path d="M0 0 C4 1 4 1 5.484375 2.7421875 C5.90203125 3.44601563 6.3196875 4.14984375 6.75 4.875 C7.39195312 5.92300781 7.39195312 5.92300781 8.046875 6.9921875 C9 9 9 9 9 12 C7.59546357 12.89434157 6.17578131 13.76493192 4.75 14.625 C3.96109375 15.11226562 3.1721875 15.59953125 2.359375 16.1015625 C0 17 0 17 -2.296875 16.1484375 C-2.85890625 15.76945313 -3.4209375 15.39046875 -4 15 C-2.5437455 14.32880451 -1.08492133 13.66318193 0.375 13 C1.18710938 12.62875 1.99921875 12.2575 2.8359375 11.875 C5 11 5 11 7 11 C4.69 7.37 2.38 3.74 0 0 Z " fill="#AD8334" transform="translate(123,131)"/>
<path d="M0 0 C0.33 0 0.66 0 1 0 C1 13.2 1 26.4 1 40 C0.67 40 0.34 40 0 40 C-0.16865537 35.42871289 -0.3290954 30.85723555 -0.48217773 26.28540039 C-0.53529982 24.73258861 -0.59060264 23.17984974 -0.64819336 21.62719727 C-0.73094381 19.38573934 -0.80565221 17.14412978 -0.87890625 14.90234375 C-0.90594131 14.21663803 -0.93297638 13.53093231 -0.96083069 12.82444763 C-1.0955534 8.39885224 -0.73365356 4.34510647 0 0 Z " fill="#2A2A87" transform="translate(332,77)"/>
<path d="M0 0 C0.33 0 0.66 0 1 0 C1 6.27 1 12.54 1 19 C2.32 19 3.64 19 5 19 C4.34 21.97 3.68 24.94 3 28 C-1.19970031 21.70044953 -1.20896555 15.80951247 -0.625 8.5625 C-0.56828125 7.73556641 -0.5115625 6.90863281 -0.453125 6.05664062 C-0.31303232 4.03697112 -0.15805019 2.01834363 0 0 Z " fill="#D3353C" transform="translate(99,94)"/>
<path d="M0 0 C0.99 0 1.98 0 3 0 C3 4 3 4 1.5625 5.5 C1.046875 5.995 0.53125 6.49 0 7 C-0.71447643 9.10332891 -0.71447643 9.10332891 -1 11 C0.32 11 1.64 11 3 11 C3.66 10.34 4.32 9.68 5 9 C5 10.65 5 12.3 5 14 C4.01 14.33 3.02 14.66 2 15 C2 14.34 2 13.68 2 13 C-0.31 12.34 -2.62 11.68 -5 11 C-4.67 10.01 -4.34 9.02 -4 8 C-3.34 8 -2.68 8 -2 8 C-1.855625 6.865625 -1.71125 5.73125 -1.5625 4.5625 C-1 1 -1 1 0 0 Z " fill="#BBE9F5" transform="translate(79,81)"/>
<path d="M0 0 C1.98 0 3.96 0 6 0 C5.67 0.99 5.34 1.98 5 3 C4.34 3 3.68 3 3 3 C2.67 6.63 2.34 10.26 2 14 C0.68 13.01 -0.64 12.02 -2 11 C-1.34 7.37 -0.68 3.74 0 0 Z " fill="#DCBD47" transform="translate(113,95)"/>
<path d="M0 0 C0.33 1.32 0.66 2.64 1 4 C3.3431213 3.74438677 5.67843403 3.40729228 8 3 C8.33 2.34 8.66 1.68 9 1 C10 2 10 2 10 7 C6.37 7 2.74 7 -1 7 C-0.67 4.69 -0.34 2.38 0 0 Z " fill="#282987" transform="translate(143,90)"/>
<path d="M0 0 C0.66 0 1.32 0 2 0 C2.66 0.66 3.32 1.32 4 2 C4.99 2.33 5.98 2.66 7 3 C7 3.66 7 4.32 7 5 C7.66 5.33 8.32 5.66 9 6 C8.2575 5.95875 7.515 5.9175 6.75 5.875 C3.88513262 6.00522124 2.49469347 6.70964131 0 8 C-0.66 7.67 -1.32 7.34 -2 7 C-1.125 1.125 -1.125 1.125 0 0 Z " fill="#56B1D8" transform="translate(80,85)"/>
<path d="M0 0 C3.63 0 7.26 0 11 0 C11 1.65 11 3.3 11 5 C10.67 3.68 10.34 2.36 10 1 C7.03 1 4.06 1 1 1 C1 10.9 1 20.8 1 31 C0.67 31 0.34 31 0 31 C0 20.77 0 10.54 0 0 Z " fill="#2A2A87" transform="translate(240,86)"/>
<path d="M0 0 C0.66 0.33 1.32 0.66 2 1 C2 2.65 2 4.3 2 6 C0.453125 5.5359375 0.453125 5.5359375 -1.125 5.0625 C-7.30186863 3.49040889 -13.65944709 3.3384003 -20 3 C-20 2.67 -20 2.34 -20 2 C-19.08476563 1.93941406 -18.16953125 1.87882812 -17.2265625 1.81640625 C-15.44378906 1.69072266 -15.44378906 1.69072266 -13.625 1.5625 C-12.44164063 1.48128906 -11.25828125 1.40007813 -10.0390625 1.31640625 C-6.37526618 0.93495702 -3.79014076 -0.18950704 0 0 Z " fill="#453E79" transform="translate(116,54)"/>
<path d="M0 0 C0.33 0.66 0.66 1.32 1 2 C3.01669827 3.13350534 3.01669827 3.13350534 5 4 C4.67 4.66 4.34 5.32 4 6 C2 6 0 6 -2 6 C-1.67 7.32 -1.34 8.64 -1 10 C-1.99 10 -2.98 10 -4 10 C-4 9.34 -4 8.68 -4 8 C-4.66 8 -5.32 8 -6 8 C-4.73058503 4.08597051 -3.48832306 2.20927127 0 0 Z " fill="#AEAED1" transform="translate(72,56)"/>
<path d="M0 0 C0.66 0 1.32 0 2 0 C2 1.32 2 2.64 2 4 C2.90492187 3.76603516 2.90492187 3.76603516 3.828125 3.52734375 C4.62734375 3.33269531 5.4265625 3.13804688 6.25 2.9375 C7.03890625 2.74027344 7.8278125 2.54304688 8.640625 2.33984375 C11.10394822 1.98502733 12.65604132 2.23122456 15 3 C9.09697795 5.34446266 3.39979202 7.04182661 -3 6 C-3.66 5.34 -4.32 4.68 -5 4 C-3.35 3.67 -1.7 3.34 0 3 C0 2.01 0 1.02 0 0 Z " fill="#D7DBE5" transform="translate(100,123)"/>
<path d="M0 0 C1.98 0.99 1.98 0.99 4 2 C4 3.32 4 4.64 4 6 C4.66 6.33 5.32 6.66 6 7 C5.67 7.66 5.34 8.32 5 9 C5.66 9.33 6.32 9.66 7 10 C6.67 10.99 6.34 11.98 6 13 C6.66 13.33 7.32 13.66 8 14 C6.35 13.67 4.7 13.34 3 13 C2.49242138 11.58603098 1.99425075 10.16868271 1.5 8.75 C1.08234375 7.56664063 1.08234375 7.56664063 0.65625 6.359375 C0 4 0 4 0 0 Z " fill="#403F8E" transform="translate(139,80)"/>
<path d="M0 0 C0.66 0.66 1.32 1.32 2 2 C1.26394531 2.51949219 0.52789062 3.03898437 -0.23046875 3.57421875 C-7.54312191 8.79793984 -7.54312191 8.79793984 -14 15 C-14.66 14.67 -15.32 14.34 -16 14 C-15.34 13.01 -14.68 12.02 -14 11 C-13.34 11 -12.68 11 -12 11 C-11.67 10.01 -11.34 9.02 -11 8 C-8.49609375 5.95703125 -8.49609375 5.95703125 -5.4375 3.8125 C-3.91962891 2.73935547 -3.91962891 2.73935547 -2.37109375 1.64453125 C-1.58863281 1.10183594 -0.80617188 0.55914062 0 0 Z " fill="#A47C3D" transform="translate(74,49)"/>
<path d="M0 0 C2.8125 0.1875 2.8125 0.1875 6 1 C7.85233285 3.40803271 9 4.92741925 9 8 C5.59687262 6.94124926 2.98646769 5.99097846 0 4 C0 2.68 0 1.36 0 0 Z " fill="#5CC9E7" transform="translate(85,113)"/>
<path d="M0 0 C0.33 0 0.66 0 1 0 C1 13.2 1 26.4 1 40 C0.67 40 0.34 40 0 40 C0 26.8 0 13.6 0 0 Z " fill="#2A2A87" transform="translate(344,77)"/>
<path d="M0 0 C0.33 0 0.66 0 1 0 C1 13.2 1 26.4 1 40 C0.67 40 0.34 40 0 40 C0 26.8 0 13.6 0 0 Z " fill="#2A2A87" transform="translate(297,77)"/>
<path d="M0 0 C0.33 0 0.66 0 1 0 C1 12.87 1 25.74 1 39 C0.67 39 0.34 39 0 39 C0 26.13 0 13.26 0 0 Z " fill="#2A2A87" transform="translate(442,78)"/>
<path d="M0 0 C0.33 0 0.66 0 1 0 C1 12.87 1 25.74 1 39 C0.67 39 0.34 39 0 39 C0 26.13 0 13.26 0 0 Z " fill="#2A2A87" transform="translate(342,78)"/>
<path d="M0 0 C0.99 0.66 1.98 1.32 3 2 C3 2.66 3 3.32 3 4 C3.99 4.33 4.98 4.66 6 5 C6 5.66 6 6.32 6 7 C4.02 7 2.04 7 0 7 C0 8.65 0 10.3 0 12 C1.32 12.33 2.64 12.66 4 13 C1.69 13 -0.62 13 -3 13 C-3.125 10.625 -3.125 10.625 -3 8 C-2.34 7.34 -1.68 6.68 -1 6 C-0.60235737 4.01178687 -0.26224651 2.01055661 0 0 Z " fill="#554B7D" transform="translate(49,86)"/>
<path d="M0 0 C2.475 0.495 2.475 0.495 5 1 C5.75 3.25 5.75 3.25 6 6 C4.0625 8.3125 4.0625 8.3125 2 10 C0.75451511 6.34138814 0 3.81372785 0 0 Z " fill="#5C5CA0" transform="translate(114,46)"/>
<path d="M0 0 C0.99 0 1.98 0 3 0 C3.99 1.98 4.98 3.96 6 6 C5.34 6.66 4.68 7.32 4 8 C4 7.34 4 6.68 4 6 C3.071875 6.309375 3.071875 6.309375 2.125 6.625 C1.42375 6.74875 0.7225 6.8725 0 7 C-0.66 6.34 -1.32 5.68 -2 5 C-1.46428571 1.46428571 -1.46428571 1.46428571 0 0 Z " fill="#6CCDE8" transform="translate(80,101)"/>
<path d="M0 0 C0.33 0 0.66 0 1 0 C1 11.22 1 22.44 1 34 C-1.51314157 30.23028765 -1.15974372 28.41372106 -0.9765625 23.92578125 C-0.93902359 22.90003242 -0.93902359 22.90003242 -0.90072632 21.8535614 C-0.81865275 19.67269371 -0.72201736 17.49274903 -0.625 15.3125 C-0.56674731 13.83271981 -0.5094443 12.35290191 -0.453125 10.87304688 C-0.3130945 7.24819578 -0.15999996 3.62403076 0 0 Z " fill="#2A2A87" transform="translate(406,77)"/>
<path d="M0 0 C0.66 0 1.32 0 2 0 C2.2475 0.639375 2.495 1.27875 2.75 1.9375 C3.81562433 4.18741541 3.81562433 4.18741541 6.125 4.75 C6.74375 4.8325 7.3625 4.915 8 5 C8 4.34 8 3.68 8 3 C8.99 3.33 9.98 3.66 11 4 C10.34 4 9.68 4 9 4 C8.67 4.99 8.34 5.98 8 7 C7.34 7 6.68 7 6 7 C6 7.66 6 8.32 6 9 C4.35 8.67 2.7 8.34 1 8 C0.67 5.36 0.34 2.72 0 0 Z " fill="#A77F36" transform="translate(83,127)"/>
<path d="M0 0 C2.31 0 4.62 0 7 0 C7 0.66 7 1.32 7 2 C6.34 2 5.68 2 5 2 C4.67 3.32 4.34 4.64 4 6 C2.35 6 0.7 6 -1 6 C-1 2 -1 2 0 0 Z " fill="#7B7BB4" transform="translate(109,140)"/>
<path d="M0 0 C0.33 0.66 0.66 1.32 1 2 C3.01669827 3.13350534 3.01669827 3.13350534 5 4 C4.01 4 3.02 4 2 4 C2.99 5.485 2.99 5.485 4 7 C3.34 7 2.68 7 2 7 C2 7.66 2 8.32 2 9 C0.02 9 -1.96 9 -4 9 C-3.67 8.34 -3.34 7.68 -3 7 C-2.01 7 -1.02 7 0 7 C-0.66 6.67 -1.32 6.34 -2 6 C-1.125 1.125 -1.125 1.125 0 0 Z " fill="#8282B9" transform="translate(64,63)"/>
<path d="M0 0 C0.99 0.33 1.98 0.66 3 1 C2.67 1.99 2.34 2.98 2 4 C4.76223278 6.76223278 7.20706617 6.57856291 11 7 C11 7.33 11 7.66 11 8 C7.04 8 3.08 8 -1 8 C-1 5.16032769 -0.59732819 2.76264289 0 0 Z " fill="#3A3682" transform="translate(96,142)"/>
<path d="M0 0 C0.33 2.31 0.66 4.62 1 7 C-0.65 7.33 -2.3 7.66 -4 8 C-4 7.01 -4 6.02 -4 5 C-4.66 4.67 -5.32 4.34 -6 4 C-6 3.34 -6 2.68 -6 2 C-2.25 0 -2.25 0 0 0 Z " fill="#A1A1CA" transform="translate(147,75)"/>
<path d="M0 0 C10.56 0 21.12 0 32 0 C32 0.33 32 0.66 32 1 C21.44 1 10.88 1 0 1 C0 0.67 0 0.34 0 0 Z " fill="#2C2C88" transform="translate(219,75)"/>
<path d="M0 0 C2.31 0.33 4.62 0.66 7 1 C6.67 2.98 6.34 4.96 6 7 C4.02 7 2.04 7 0 7 C0 6.34 0 5.68 0 5 C0.66 5 1.32 5 2 5 C1.34 4.34 0.68 3.68 0 3 C0 2.01 0 1.02 0 0 Z " fill="#ADADD0" transform="translate(109,48)"/>
<path d="M0 0 C9.9 0 19.8 0 30 0 C30 0.33 30 0.66 30 1 C20.1 1 10.2 1 0 1 C0 0.67 0 0.34 0 0 Z " fill="#2A2A87" transform="translate(346,119)"/>
<path d="M0 0 C0.66 0 1.32 0 2 0 C2.625 2.3125 2.625 2.3125 3 5 C2.01 6.485 2.01 6.485 1 8 C-1.625 8.1875 -1.625 8.1875 -4 8 C-2.68 5.36 -1.36 2.72 0 0 Z " fill="#96887D" transform="translate(113,114)"/>
<path d="M0 0 C0.33 0.66 0.66 1.32 1 2 C2.98 2 4.96 2 7 2 C7 2.66 7 3.32 7 4 C5.35 3.67 3.7 3.34 2 3 C2 4.32 2 5.64 2 7 C0.68 6.34 -0.64 5.68 -2 5 C-2 3.68 -2 2.36 -2 1 C-1.34 0.67 -0.68 0.34 0 0 Z " fill="#9EDFF1" transform="translate(83,110)"/>
<path d="M0 0 C0.99 0.495 0.99 0.495 2 1 C2.625 4.0625 2.625 4.0625 3 7 C3.66 7 4.32 7 5 7 C5.66 8.65 6.32 10.3 7 12 C6.34 12 5.68 12 5 12 C4.67 12.66 4.34 13.32 4 14 C0.68557793 9.53273547 0.33990833 5.37992836 0 0 Z " fill="#464491" transform="translate(133,65)"/>
<path d="M0 0 C-1 2 -1 2 -2.765625 2.62109375 C-5.14150323 3.02399618 -7.34179517 3.09791478 -9.75 3.0625 C-10.54921875 3.05347656 -11.3484375 3.04445312 -12.171875 3.03515625 C-12.77515625 3.02355469 -13.3784375 3.01195312 -14 3 C-9.43168288 -0.8915294 -5.77057254 -1.48386151 0 0 Z " fill="#2D2C85" transform="translate(118,146)"/>
<path d="M0 0 C1.98 0.99 1.98 0.99 4 2 C4 3.98 4 5.96 4 8 C3.34 8 2.68 8 2 8 C2 8.66 2 9.32 2 10 C1.34 10 0.68 10 0 10 C0 6.7 0 3.4 0 0 Z " fill="#272684" transform="translate(133,92)"/>
<path d="M0 0 C0.66 0.33 1.32 0.66 2 1 C2.625 3.5625 2.625 3.5625 3 6 C1.35 6.33 -0.3 6.66 -2 7 C-2.33 5.02 -2.66 3.04 -3 1 C-2.01 0.67 -1.02 0.34 0 0 Z " fill="#A6A6CD" transform="translate(79,52)"/>
<path d="M0 0 C1.2065625 0.0309375 1.2065625 0.0309375 2.4375 0.0625 C2.7675 1.3825 3.0975 2.7025 3.4375 4.0625 C2.4475 4.5575 2.4475 4.5575 1.4375 5.0625 C1.4375 4.4025 1.4375 3.7425 1.4375 3.0625 C0.4475 3.0625 -0.5425 3.0625 -1.5625 3.0625 C-1.8925 4.7125 -2.2225 6.3625 -2.5625 8.0625 C-2.8925 8.0625 -3.2225 8.0625 -3.5625 8.0625 C-3.60491723 5.72955225 -3.60342937 3.39547433 -3.5625 1.0625 C-2.5625 0.0625 -2.5625 0.0625 0 0 Z " fill="#2E2D86" transform="translate(110.5625,44.9375)"/>
<path d="M0 0 C3.00617269 3.00617269 2.59585316 5.82381598 3 10 C2.01 9.67 1.02 9.34 0 9 C-1.3125 6.125 -1.3125 6.125 -2 3 C-1.34 2.01 -0.68 1.02 0 0 Z " fill="#5EC9E7" transform="translate(95,111)"/>
<path d="M0 0 C1.32 0.66 2.64 1.32 4 2 C4 2.99 4 3.98 4 5 C2 7 2 7 0 8 C-0.66 6.02 -1.32 4.04 -2 2 C-1.34 1.34 -0.68 0.68 0 0 Z " fill="#B2B2D3" transform="translate(136,64)"/>
<path d="M0 0 C1.32 0.33 2.64 0.66 4 1 C2.66073876 5.01778372 0.50865531 5.78023848 -3 8 C-3.66 8.66 -4.32 9.32 -5 10 C-5 8.02 -5 6.04 -5 4 C-3.02 3.34 -1.04 2.68 1 2 C0.67 1.34 0.34 0.68 0 0 Z " fill="#D78F73" transform="translate(107,84)"/>
<path d="M0 0 C4.29 0 8.58 0 13 0 C13 0.33 13 0.66 13 1 C9.04 1 5.08 1 1 1 C1 3.97 1 6.94 1 10 C2.98 10.495 2.98 10.495 5 11 C3.35 11 1.7 11 0 11 C0 7.37 0 3.74 0 0 Z " fill="#2B2B88" transform="translate(307,84)"/>
<path d="M0 0 C3.45925163 1.2491742 6.14693203 2.67527795 9 5 C7.35 5.66 5.7 6.32 4 7 C2 5.1875 2 5.1875 0 3 C0 2.01 0 1.02 0 0 Z " fill="#38378A" transform="translate(81,122)"/>
<path d="M0 0 C0.8125 1.6875 0.8125 1.6875 1 4 C-1.1613627 6.51185394 -3.01962439 8.50981219 -6 10 C-5.49477778 5.62140745 -2.82172778 3.18348776 0 0 Z " fill="#33328A" transform="translate(129,112)"/>
<path d="M0 0 C2.1875 2.5 2.1875 2.5 4 5 C3.01 5.495 3.01 5.495 2 6 C1.34 5.67 0.68 5.34 0 5 C0 4.34 0 3.68 0 3 C-1.98 3 -3.96 3 -6 3 C-6 2.34 -6 1.68 -6 1 C-3 0 -3 0 0 0 Z " fill="#6C6AA6" transform="translate(124,138)"/>
<path d="M0 0 C2.475 0.99 2.475 0.99 5 2 C4.67 2.99 4.34 3.98 4 5 C3.34 4.67 2.68 4.34 2 4 C1.67 4.99 1.34 5.98 1 7 C0.01 6.34 -0.98 5.68 -2 5 C-2 4.34 -2 3.68 -2 3 C-1.34 3 -0.68 3 0 3 C0 2.01 0 1.02 0 0 Z " fill="#9494C2" transform="translate(79,136)"/>
<path d="M0 0 C3.3 0 6.6 0 10 0 C10 0.33 10 0.66 10 1 C7.03 1 4.06 1 1 1 C1 5.29 1 9.58 1 14 C0.67 14 0.34 14 0 14 C0 9.38 0 4.76 0 0 Z " fill="#2A2A87" transform="translate(307,103)"/>
<path d="M0 0 C1.0625 1.8125 1.0625 1.8125 2 4 C1.67 4.99 1.34 5.98 1 7 C-1.0625 7.6875 -1.0625 7.6875 -3 8 C-2.45276317 4.62537285 -1.9451 2.91765 0 0 Z " fill="#363484" transform="translate(122,87)"/>
<path d="M0 0 C0.33 0.66 0.66 1.32 1 2 C1.825 2.165 2.65 2.33 3.5 2.5 C4.325 2.665 5.15 2.83 6 3 C6.33 3.66 6.66 4.32 7 5 C4.36 5 1.72 5 -1 5 C-0.67 3.35 -0.34 1.7 0 0 Z " fill="#2C2C88" transform="translate(53,76)"/>
<path d="M0 0 C7.59 0 15.18 0 23 0 C23 0.33 23 0.66 23 1 C15.41 1 7.82 1 0 1 C0 0.67 0 0.34 0 0 Z " fill="#2B2B87" transform="translate(172,75)"/>
<path d="M0 0 C0.66 0 1.32 0 2 0 C2 0.99 2 1.98 2 3 C3.98 3 5.96 3 8 3 C8 3.66 8 4.32 8 5 C5.36 5 2.72 5 0 5 C0 3.35 0 1.7 0 0 Z " fill="#232488" transform="translate(49,93)"/>
<path d="M0 0 C7.26 0 14.52 0 22 0 C22 0.33 22 0.66 22 1 C14.74 1 7.48 1 0 1 C0 0.67 0 0.34 0 0 Z " fill="#2B2B87" transform="translate(300,75)"/>
<path d="M0 0 C1.33333333 0 2.66666667 0 4 0 C4 1.98 4 3.96 4 6 C2.68 6 1.36 6 0 6 C0 4.02 0 2.04 0 0 Z " fill="#292987" transform="translate(65,95)"/>
<path d="M0 0 C1.98 0 3.96 0 6 0 C6 0.33 6 0.66 6 1 C4.35 1 2.7 1 1 1 C1 2.32 1 3.64 1 5 C4.3 5 7.6 5 11 5 C11 5.33 11 5.66 11 6 C7.37 6 3.74 6 0 6 C0 4.02 0 2.04 0 0 Z " fill="#2A2A87" transform="translate(182,85)"/>
<path d="M0 0 C1.485 0.99 1.485 0.99 3 2 C2.67 3.65 2.34 5.3 2 7 C1.01 7 0.02 7 -1 7 C-1.04254356 5.00045254 -1.04080783 2.99958364 -1 1 C-0.67 0.67 -0.34 0.34 0 0 Z " fill="#BA8D36" transform="translate(100,87)"/>
<path d="M0 0 C0.99 0.33 1.98 0.66 3 1 C3 2.98 3 4.96 3 7 C0.525 6.01 0.525 6.01 -2 5 C-2 4.01 -2 3.02 -2 2 C-1.34 2 -0.68 2 0 2 C0 1.34 0 0.68 0 0 Z " fill="#BC8F3B" transform="translate(96,77)"/>
<path d="M0 0 C0.33 0.66 0.66 1.32 1 2 C0.01 3.485 0.01 3.485 -1 5 C-2.98 4.34 -4.96 3.68 -7 3 C-7 2.34 -7 1.68 -7 1 C-3.535 0.505 -3.535 0.505 0 0 Z " fill="#8A8ABD" transform="translate(62,75)"/>
<path d="M0 0 C0 0.66 0 1.32 0 2 C-2.75 3.625 -2.75 3.625 -6 5 C-8.375 4.1875 -8.375 4.1875 -10 3 C-8.70990357 2.49596232 -7.41786211 1.99690074 -6.125 1.5 C-5.04605469 1.08234375 -5.04605469 1.08234375 -3.9453125 0.65625 C-2 0 -2 0 0 0 Z " fill="#967247" transform="translate(129,143)"/>
<path d="M0 0 C0.66 0.99 1.32 1.98 2 3 C1 5 1 5 -1.375 6.125 C-4 7 -4 7 -7 7 C-7 6.34 -7 5.68 -7 5 C-5.824375 4.87625 -5.824375 4.87625 -4.625 4.75 C-1.85250896 4.27193661 -1.85250896 4.27193661 -0.6875 1.9375 C-0.460625 1.298125 -0.23375 0.65875 0 0 Z " fill="#6ACEE9" transform="translate(98,119)"/>
<path d="M0 0 C6.6 0 13.2 0 20 0 C20 0.33 20 0.66 20 1 C13.4 1 6.8 1 0 1 C0 0.67 0 0.34 0 0 Z " fill="#2A2A87" transform="translate(172,119)"/>
<path d="M0 0 C5.94 0 11.88 0 18 0 C18 0.66 18 1.32 18 2 C12.06 2 6.12 2 0 2 C0 1.34 0 0.68 0 0 Z " fill="#2D2D88" transform="translate(353,109)"/>
<path d="M0 0 C0.99 0.33 1.98 0.66 3 1 C3.625 3.375 3.625 3.375 4 6 C3.34 6.66 2.68 7.32 2 8 C0.74335022 5.09399739 0 3.20395416 0 0 Z " fill="#62CBE7" transform="translate(87,91)"/>
<path d="M0 0 C0.33 0 0.66 0 1 0 C1 6.6 1 13.2 1 20 C0.67 20 0.34 20 0 20 C0 13.4 0 6.8 0 0 Z " fill="#2A2A88" transform="translate(432,77)"/>
<path d="M0 0 C1.65 0.99 3.3 1.98 5 3 C4.67 4.32 4.34 5.64 4 7 C3.401875 6.54625 2.80375 6.0925 2.1875 5.625 C0.49409348 4.36704087 -1.24477086 3.17015276 -3 2 C-2.01 2 -1.02 2 0 2 C0 1.34 0 0.68 0 0 Z " fill="#413E89" transform="translate(116,66)"/>
<path d="M0 0 C3 3.625 3 3.625 3 7 C2.01 7 1.02 7 0 7 C0 6.34 0 5.68 0 5 C-0.66 5 -1.32 5 -2 5 C-1.34 3.35 -0.68 1.7 0 0 Z " fill="#9A9AC6" transform="translate(68,59)"/>
<path d="M0 0 C0.66 0 1.32 0 2 0 C3.125 2.3125 3.125 2.3125 4 5 C3.01 6.485 3.01 6.485 2 8 C1.01 5.69 0.02 3.38 -1 1 C-0.67 0.67 -0.34 0.34 0 0 Z " fill="#62C8E6" transform="translate(74,106)"/>
<path d="M0 0 C0.33 0 0.66 0 1 0 C1.33 4.29 1.66 8.58 2 13 C1.01 12.67 0.02 12.34 -1 12 C-0.67 8.04 -0.34 4.08 0 0 Z " fill="#32328C" transform="translate(69,93)"/>
<path d="M0 0 C1.98 0.495 1.98 0.495 4 1 C4 2.98 4 4.96 4 7 C3.34 7 2.68 7 2 7 C2 6.01 2 5.02 2 4 C1.01 4.33 0.02 4.66 -1 5 C-0.67 3.35 -0.34 1.7 0 0 Z " fill="#A67E37" transform="translate(63,81)"/>
<path d="M0 0 C0.66 0 1.32 0 2 0 C2.33 1.98 2.66 3.96 3 6 C1.68 6 0.36 6 -1 6 C-1.042721 4.33388095 -1.04063832 2.66617115 -1 1 C-0.67 0.67 -0.34 0.34 0 0 Z " fill="#C28D46" transform="translate(100,71)"/>
<path d="M0 0 C-0.33 0.99 -0.66 1.98 -1 3 C-2.65 2.67 -4.3 2.34 -6 2 C-6 1.34 -6 0.68 -6 0 C-3.50907189 -1.24546405 -2.58919267 -0.7767578 0 0 Z " fill="#B5892B" transform="translate(99,85)"/>
<path d="M0 0 C0.66 0.33 1.32 0.66 2 1 C2.625 3.5625 2.625 3.5625 3 6 C1.02 6.99 1.02 6.99 -1 8 C-1.125 2.25 -1.125 2.25 0 0 Z " fill="#B5882A" transform="translate(104,76)"/>
<path d="M0 0 C3.63 0 7.26 0 11 0 C11 0.33 11 0.66 11 1 C7.37 1.66 3.74 2.32 0 3 C0 2.01 0 1.02 0 0 Z " fill="#333182" transform="translate(94,138)"/>
<path d="M0 0 C0.99 0.33 1.98 0.66 3 1 C2.67 2.98 2.34 4.96 2 7 C0.68 7.33 -0.64 7.66 -2 8 C-1.34 7.67 -0.68 7.34 0 7 C0 4.69 0 2.38 0 0 Z " fill="#F6DC6F" transform="translate(120,100)"/>
<path d="M0 0 C2.31 0 4.62 0 7 0 C6.67 1.32 6.34 2.64 6 4 C4.02 3.01 2.04 2.02 0 1 C0 0.67 0 0.34 0 0 Z " fill="#4C9DCC" transform="translate(79,97)"/>
<path d="M0 0 C0.99 0.33 1.98 0.66 3 1 C2.01 1.495 2.01 1.495 1 2 C1.33 2.99 1.66 3.98 2 5 C1.01 5.99 0.02 6.98 -1 8 C-1.04241723 5.66705225 -1.04092937 3.33297433 -1 1 C-0.67 0.67 -0.34 0.34 0 0 Z " fill="#292986" transform="translate(51,82)"/>
<path d="M0 0 C2.31 0 4.62 0 7 0 C7 0.99 7 1.98 7 3 C4.37886292 3 2.49064888 2.68707555 0 2 C0 1.34 0 0.68 0 0 Z " fill="#3A398B" transform="translate(135,63)"/>
<path d="M0 0 C0.928125 1.175625 0.928125 1.175625 1.875 2.375 C3.89858661 4.96837647 3.89858661 4.96837647 6 7 C3.03 6.505 3.03 6.505 0 6 C-1 3 -1 3 0 0 Z " fill="#272785" transform="translate(74,54)"/>
<path d="M0 0 C4.95 0 9.9 0 15 0 C14.67 0.66 14.34 1.32 14 2 C7.07 1.505 7.07 1.505 0 1 C0 0.67 0 0.34 0 0 Z " fill="#2A2A87" transform="translate(381,107)"/>
<path d="M0 0 C0.33 0.99 0.66 1.98 1 3 C2.65 3 4.3 3 6 3 C6.33 2.34 6.66 1.68 7 1 C7.33 1.99 7.66 2.98 8 4 C5.03 4 2.06 4 -1 4 C-0.67 2.68 -0.34 1.36 0 0 Z " fill="#2B2B88" transform="translate(385,95)"/>
<path d="M0 0 C4.29 0 8.58 0 13 0 C13 0.33 13 0.66 13 1 C8.71 1 4.42 1 0 1 C0 0.67 0 0.34 0 0 Z " fill="#B6892C" transform="translate(95,153)"/>
<path d="M0 0 C4.29 0 8.58 0 13 0 C13 0.33 13 0.66 13 1 C8.71 1 4.42 1 0 1 C0 0.67 0 0.34 0 0 Z " fill="#2A2A87" transform="translate(261,119)"/>
<path d="M0 0 C0.33 0 0.66 0 1 0 C1 3.96 1 7.92 1 12 C0.67 12 0.34 12 0 12 C0 8.04 0 4.08 0 0 Z " fill="#2D2D88" transform="translate(415,105)"/>
<path d="M0 0 C0.66 0.66 1.32 1.32 2 2 C1.9765625 4.1640625 1.9765625 4.1640625 1.625 6.625 C1.51414062 7.44226563 1.40328125 8.25953125 1.2890625 9.1015625 C1.19367188 9.72804688 1.09828125 10.35453125 1 11 C0.67 11 0.34 11 0 11 C0 7.37 0 3.74 0 0 Z " fill="#2A2A87" transform="translate(416,93)"/>
<path d="M0 0 C0.33 0 0.66 0 1 0 C1 3.3 1 6.6 1 10 C0.67 10 0.34 10 0 10 C-0.74926071 6.33694766 -1.2380014 3.57644848 0 0 Z " fill="#2A2A87" transform="translate(206,107)"/>
<path d="M0 0 C3.63 0 7.26 0 11 0 C11 0.33 11 0.66 11 1 C7.37 1 3.74 1 0 1 C0 0.67 0 0.34 0 0 Z " fill="#B6892C" transform="translate(144,101)"/>
<path d="M0 0 C0.33 0 0.66 0 1 0 C1 3.63 1 7.26 1 11 C0.67 11 0.34 11 0 11 C0 7.37 0 3.74 0 0 Z " fill="#B6892C" transform="translate(157,89)"/>
<path d="M0 0 C3.63 0 7.26 0 11 0 C11 0.33 11 0.66 11 1 C7.37 1 3.74 1 0 1 C0 0.67 0 0.34 0 0 Z " fill="#B6892C" transform="translate(96,40)"/>
<path d="M0 0 C2.97 0 5.94 0 9 0 C9 0.33 9 0.66 9 1 C6.03 1 3.06 1 0 1 C0 0.67 0 0.34 0 0 Z " fill="#292986" transform="translate(312,93)"/>
<path d="M0 0 C1.67542976 0.28604898 3.34385343 0.61781233 5 1 C3.02 1.99 3.02 1.99 1 3 C0.34 2.34 -0.32 1.68 -1 1 C-0.67 0.67 -0.34 0.34 0 0 Z " fill="#292986" transform="translate(273,90)"/>
<path d="M0 0 C2.64 0 5.28 0 8 0 C8 0.33 8 0.66 8 1 C5.36 1 2.72 1 0 1 C0 0.67 0 0.34 0 0 Z " fill="#2A2A87" transform="translate(231,119)"/>
<path d="M0 0 C2.64 0 5.28 0 8 0 C8 0.33 8 0.66 8 1 C5.36 1 2.72 1 0 1 C0 0.67 0 0.34 0 0 Z " fill="#2A2A88" transform="translate(209,119)"/>
<path d="M0 0 C2.64 0 5.28 0 8 0 C8 0.33 8 0.66 8 1 C5.36 1 2.72 1 0 1 C0 0.67 0 0.34 0 0 Z " fill="#2C2C88" transform="translate(209,75)"/>
<path d="M0 0 C2.64 0 5.28 0 8 0 C8 0.33 8 0.66 8 1 C5.36 1 2.72 1 0 1 C0 0.67 0 0.34 0 0 Z " fill="#2A2A87" transform="translate(263,74)"/>
<path d="M0 0 C2.31 0 4.62 0 7 0 C7 0.33 7 0.66 7 1 C4.69 1 2.38 1 0 1 C0 0.67 0 0.34 0 0 Z " fill="#292987" transform="translate(264,108)"/>
<path d="M0 0 C2.31 0 4.62 0 7 0 C7 0.33 7 0.66 7 1 C4.69 1 2.38 1 0 1 C0 0.67 0 0.34 0 0 Z " fill="#B6882C" transform="translate(47,102)"/>
<path d="M0 0 C1.98 0 3.96 0 6 0 C6 0.33 6 0.66 6 1 C4.02 1 2.04 1 0 1 C0 0.67 0 0.34 0 0 Z " fill="#2A2A87" transform="translate(434,119)"/>
<path d="M0 0 C1.98 0 3.96 0 6 0 C6 0.33 6 0.66 6 1 C4.02 1 2.04 1 0 1 C0 0.67 0 0.34 0 0 Z " fill="#2A2A87" transform="translate(401,119)"/>
<path d="M0 0 C1.98 0 3.96 0 6 0 C6 0.33 6 0.66 6 1 C4.02 1 2.04 1 0 1 C0 0.67 0 0.34 0 0 Z " fill="#2A2A87" transform="translate(253,101)"/>
<path d="M0 0 C0.33 0 0.66 0 1 0 C1 1.98 1 3.96 1 6 C0.67 6 0.34 6 0 6 C0 4.02 0 2.04 0 0 Z " fill="#2A2A88" transform="translate(322,86)"/>
<path d="M0 0 C1.98 0 3.96 0 6 0 C6 0.33 6 0.66 6 1 C4.02 1 2.04 1 0 1 C0 0.67 0 0.34 0 0 Z " fill="#2B2B88" transform="translate(263,85)"/>
<path d="M0 0 C0.66 1.32 1.32 2.64 2 4 C1.01 4.495 1.01 4.495 0 5 C0 3.35 0 1.7 0 0 Z " fill="#292987" transform="translate(252,77)"/>
<path d="M0 0 C1.98 0 3.96 0 6 0 C6 0.33 6 0.66 6 1 C4.02 1 2.04 1 0 1 C0 0.67 0 0.34 0 0 Z " fill="#2C2C88" transform="translate(434,75)"/>
<path d="M0 0 C1.98 0 3.96 0 6 0 C6 0.33 6 0.66 6 1 C4.02 1 2.04 1 0 1 C0 0.67 0 0.34 0 0 Z " fill="#2B2B88" transform="translate(409,75)"/>
<path d="M0 0 C1.98 0 3.96 0 6 0 C6 0.33 6 0.66 6 1 C4.02 1 2.04 1 0 1 C0 0.67 0 0.34 0 0 Z " fill="#2B2B87" transform="translate(385,75)"/>
<path d="M0 0 C1.98 0 3.96 0 6 0 C6 0.33 6 0.66 6 1 C4.02 1 2.04 1 0 1 C0 0.67 0 0.34 0 0 Z " fill="#2C2C88" transform="translate(346,75)"/>
<path d="M0 0 C1.98 0 3.96 0 6 0 C6 0.33 6 0.66 6 1 C4.02 1 2.04 1 0 1 C0 0.67 0 0.34 0 0 Z " fill="#2C2C88" transform="translate(334,75)"/>
<path d="M0 0 C1.65 0 3.3 0 5 0 C5 0.33 5 0.66 5 1 C3.35 1 1.7 1 0 1 C0 0.67 0 0.34 0 0 Z " fill="#2A2A88" transform="translate(447,119)"/>
<path d="M0 0 C1.65 0 3.3 0 5 0 C5 0.33 5 0.66 5 1 C3.35 1 1.7 1 0 1 C0 0.67 0 0.34 0 0 Z " fill="#2A2A88" transform="translate(409,119)"/>
<path d="M0 0 C1.65 0 3.3 0 5 0 C5 0.33 5 0.66 5 1 C3.35 1 1.7 1 0 1 C0 0.67 0 0.34 0 0 Z " fill="#2A2A87" transform="translate(300,119)"/>
<path d="M0 0 C1.65 0 3.3 0 5 0 C5 0.33 5 0.66 5 1 C3.35 1 1.7 1 0 1 C0 0.67 0 0.34 0 0 Z " fill="#292987" transform="translate(189,107)"/>
<path d="M0 0 C0.33 1.32 0.66 2.64 1 4 C0.34 3.67 -0.32 3.34 -1 3 C-0.67 2.01 -0.34 1.02 0 0 Z " fill="#2A2A87" transform="translate(272,104)"/>
<path d="M0 0 C0.33 0 0.66 0 1 0 C1 1.65 1 3.3 1 5 C0.67 5 0.34 5 0 5 C0 3.35 0 1.7 0 0 Z " fill="#B68A2D" transform="translate(143,102)"/>
<path d="M0 0 C0.99 0 1.98 0 3 0 C2.67 0.99 2.34 1.98 2 3 C2 2.34 2 1.68 2 1 C1.34 0.67 0.68 0.34 0 0 Z " fill="#B78B2C" transform="translate(56,101)"/>
<path d="M0 0 C0.33 0.66 0.66 1.32 1 2 C1.66 2.33 2.32 2.66 3 3 C2.01 3 1.02 3 0 3 C0 2.01 0 1.02 0 0 Z " fill="#2A2A87" transform="translate(262,86)"/>
<path d="M0 0 C0.33 0 0.66 0 1 0 C1 1.65 1 3.3 1 5 C0.67 5 0.34 5 0 5 C0 3.35 0 1.7 0 0 Z " fill="#B6892C" transform="translate(45,86)"/>
<path d="M0 0 C1.65 0 3.3 0 5 0 C5 0.33 5 0.66 5 1 C3.35 1 1.7 1 0 1 C0 0.67 0 0.34 0 0 Z " fill="#2C2C88" transform="translate(447,75)"/>
<path d="M0 0 C1.65 0 3.3 0 5 0 C5 0.33 5 0.66 5 1 C3.35 1 1.7 1 0 1 C0 0.67 0 0.34 0 0 Z " fill="#B68B2B" transform="translate(108,41)"/>
<path d="M0 0 C4 1 4 1 4 1 Z " fill="#B6882D" transform="translate(109,152)"/>
<path d="M0 0 C4 1 4 1 4 1 Z " fill="#B68A2E" transform="translate(90,152)"/>
<path d="M0 0 C4 1 4 1 4 1 Z " fill="#B78A2D" transform="translate(113,151)"/>
<path d="M0 0 C4 1 4 1 4 1 Z " fill="#2A2A87" transform="translate(336,119)"/>
<path d="M0 0 C4 1 4 1 4 1 Z " fill="#2B2B87" transform="translate(194,118)"/>
<path d="M0 0 C1 4 1 4 1 4 Z " fill="#2B2B87" transform="translate(249,105)"/>
<path d="M0 0 C1 4 1 4 1 4 Z " fill="#2A2A86" transform="translate(194,103)"/>
<path d="M0 0 C4 1 4 1 4 1 Z " fill="#2A2A88" transform="translate(318,102)"/>
<path d="M0 0 C1 4 1 4 1 4 Z " fill="#2A2A87" transform="translate(283,85)"/>
<path d="M0 0 C4 1 4 1 4 1 Z " fill="#2B2B87" transform="translate(189,86)"/>
<path d="M0 0 C1 4 1 4 1 4 Z " fill="#B6882D" transform="translate(156,85)"/>
<path d="M0 0 C4 1 4 1 4 1 Z " fill="#B68A2B" transform="translate(90,41)"/>
<path d="M0 0 C3 1 3 1 3 1 Z " fill="#B6882C" transform="translate(86,151)"/>
<path d="M0 0 C0.99 0.495 0.99 0.495 2 1 C1.01 1.495 1.01 1.495 0 2 C0 1.34 0 0.68 0 0 Z " fill="#B5882D" transform="translate(127,130)"/>
<path d="" fill="#2A2A87" transform="translate(0,0)"/>
<path d="" fill="#B6882D" transform="translate(0,0)"/>
<path d="" fill="#B7892C" transform="translate(0,0)"/>
<path d="" fill="#292987" transform="translate(0,0)"/>
<path d="" fill="#2A2A87" transform="translate(0,0)"/>
<path d="" fill="#292987" transform="translate(0,0)"/>
<path d="M0 0 C3 1 3 1 3 1 Z " fill="#2A2A87" transform="translate(269,103)"/>
<path d="" fill="#2A2A87" transform="translate(0,0)"/>
<path d="M0 0 C3 1 3 1 3 1 Z " fill="#2B2B88" transform="translate(266,102)"/>
<path d="M0 0 C3 1 3 1 3 1 Z " fill="#2A2A87" transform="translate(191,102)"/>
<path d="M0 0 C3 1 3 1 3 1 Z " fill="#2C2C89" transform="translate(322,101)"/>
<path d="" fill="#2A2A86" transform="translate(0,0)"/>
<path d="M0 0 C3 1 3 1 3 1 Z " fill="#2A2A87" transform="translate(263,101)"/>
<path d="" fill="#2B2B87" transform="translate(0,0)"/>
<path d="" fill="#2A2A87" transform="translate(0,0)"/>
<path d="M0 0 C3 1 3 1 3 1 Z " fill="#2A2A87" transform="translate(279,90)"/>
<path d="M0 0 C3 1 3 1 3 1 Z " fill="#2A2A87" transform="translate(268,90)"/>
<path d="M0 0 C3 1 3 1 3 1 Z " fill="#2B2B88" transform="translate(265,89)"/>
<path d="" fill="#B78B2B" transform="translate(0,0)"/>
<path d="" fill="#2B2B87" transform="translate(0,0)"/>
<path d="" fill="#2A2A87" transform="translate(0,0)"/>
<path d="" fill="#B7892C" transform="translate(0,0)"/>
<path d="" fill="#B78B2C" transform="translate(0,0)"/>
<path d="" fill="#B6892C" transform="translate(0,0)"/>
<path d="M0 0 C3 1 3 1 3 1 Z " fill="#2A2A87" transform="translate(259,75)"/>
<path d="M0 0 C3 1 3 1 3 1 Z " fill="#B5882C" transform="translate(113,42)"/>
<path d="M0 0 C3 1 3 1 3 1 Z " fill="#B6892C" transform="translate(86,42)"/>
<path d="M0 0 C2 1 2 1 2 1 Z " fill="#B6892C" transform="translate(118,150)"/>
<path d="M0 0 C2 1 2 1 2 1 Z " fill="#B78A2C" transform="translate(83,150)"/>
<path d="M0 0 C2 1 2 1 2 1 Z " fill="#B7892C" transform="translate(120,149)"/>
<path d="M0 0 C2 1 2 1 2 1 Z " fill="#B6882E" transform="translate(123,148)"/>
<path d="M0 0 C2 1 2 1 2 1 Z " fill="#B5892E" transform="translate(76,147)"/>
<path d="M0 0 C2 1 2 1 2 1 Z " fill="#B6882C" transform="translate(127,146)"/>
<path d="M0 0 C2 1 2 1 2 1 Z " fill="#B98B2B" transform="translate(74,146)"/>
<path d="M0 0 C2 1 2 1 2 1 Z " fill="#B5882C" transform="translate(72,145)"/>
<path d="M0 0 C2 1 2 1 2 1 Z " fill="#B78A2B" transform="translate(130,144)"/>
<path d="" fill="#B8882C" transform="translate(0,0)"/>
<path d="" fill="#BC902A" transform="translate(0,0)"/>
<path d="" fill="#B6882D" transform="translate(0,0)"/>
<path d="" fill="#BB8E2A" transform="translate(0,0)"/>
<path d="" fill="#B58A2C" transform="translate(0,0)"/>
<path d="" fill="#BA8C2A" transform="translate(0,0)"/>
<path d="" fill="#B88B29" transform="translate(0,0)"/>
<path d="" fill="#B58A2E" transform="translate(0,0)"/>
<path d="" fill="#B78C2B" transform="translate(0,0)"/>
<path d="" fill="#B88B2B" transform="translate(0,0)"/>
<path d="M0 0 C2 1 2 1 2 1 Z " fill="#2B2B88" transform="translate(274,118)"/>
<path d="M0 0 C2 1 2 1 2 1 Z " fill="#2A2A86" transform="translate(259,118)"/>
<path d="" fill="#B6892C" transform="translate(0,0)"/>
<path d="M0 0 C2 1 2 1 2 1 Z " fill="#2A2A87" transform="translate(276,117)"/>
<path d="M0 0 C2 1 2 1 2 1 Z " fill="#2A2A87" transform="translate(257,117)"/>
<path d="M0 0 C2 1 2 1 2 1 Z " fill="#2A2A87" transform="translate(198,117)"/>
<path d="" fill="#B9882B" transform="translate(0,0)"/>
<path d="" fill="#2A2A87" transform="translate(0,0)"/>
<path d="" fill="#2A2A87" transform="translate(0,0)"/>
<path d="M0 0 C2 1 2 1 2 1 Z " fill="#2B2B86" transform="translate(255,116)"/>
<path d="" fill="#292989" transform="translate(0,0)"/>
<path d="" fill="#B6882C" transform="translate(0,0)"/>
<path d="" fill="#2B2B87" transform="translate(0,0)"/>
<path d="" fill="#2A2A87" transform="translate(0,0)"/>
<path d="" fill="#2A2A87" transform="translate(0,0)"/>
<path d="" fill="#B6882C" transform="translate(0,0)"/>
<path d="" fill="#292987" transform="translate(0,0)"/>
<path d="" fill="#2A2A88" transform="translate(0,0)"/>
<path d="" fill="#2B2B87" transform="translate(0,0)"/>
<path d="" fill="#28288B" transform="translate(0,0)"/>
<path d="" fill="#B68A2B" transform="translate(0,0)"/>
<path d="" fill="#292987" transform="translate(0,0)"/>
<path d="" fill="#2B2B87" transform="translate(0,0)"/>
<path d="" fill="#2B2B87" transform="translate(0,0)"/>
<path d="M0 0 C2 1 2 1 2 1 Z " fill="#2A2A87" transform="translate(262,107)"/>
<path d="" fill="#2B2B88" transform="translate(0,0)"/>
<path d="" fill="#292988" transform="translate(0,0)"/>
<path d="" fill="#292987" transform="translate(0,0)"/>
<path d="" fill="#2B2B86" transform="translate(0,0)"/>
<path d="" fill="#292986" transform="translate(0,0)"/>
<path d="" fill="#2A2A88" transform="translate(0,0)"/>
<path d="M0 0 C2 1 2 1 2 1 Z " fill="#2B2B88" transform="translate(260,100)"/>
<path d="M0 0 C2 1 2 1 2 1 Z " fill="#2A2A88" transform="translate(326,99)"/>
<path d="M0 0 C2 1 2 1 2 1 Z " fill="#27278A" transform="translate(258,99)"/>
<path d="" fill="#2A2A88" transform="translate(0,0)"/>
<path d="" fill="#2A2A8A" transform="translate(0,0)"/>
<path d="" fill="#29298B" transform="translate(0,0)"/>
<path d="" fill="#292986" transform="translate(0,0)"/>
<path d="" fill="#2A2A89" transform="translate(0,0)"/>
<path d="" fill="#282887" transform="translate(0,0)"/>
<path d="" fill="#2B2B87" transform="translate(0,0)"/>
<path d="" fill="#292987" transform="translate(0,0)"/>
<path d="M0 0 C2 1 2 1 2 1 Z " fill="#2B2B87" transform="translate(277,93)"/>
<path d="" fill="#2B2B87" transform="translate(0,0)"/>
<path d="" fill="#2A2A86" transform="translate(0,0)"/>
<path d="" fill="#2B2B87" transform="translate(0,0)"/>
<path d="" fill="#292986" transform="translate(0,0)"/>
<path d="" fill="#2B2B88" transform="translate(0,0)"/>
<path d="" fill="#2A2A86" transform="translate(0,0)"/>
<path d="" fill="#292987" transform="translate(0,0)"/>
<path d="" fill="#282888" transform="translate(0,0)"/>
<path d="" fill="#292989" transform="translate(0,0)"/>
<path d="" fill="#2B2B87" transform="translate(0,0)"/>
<path d="M0 0 C2 1 2 1 2 1 Z " fill="#2B2B87" transform="translate(269,86)"/>
<path d="" fill="#2B2B87" transform="translate(0,0)"/>
<path d="" fill="#2A2A88" transform="translate(0,0)"/>
<path d="" fill="#282888" transform="translate(0,0)"/>
<path d="" fill="#272789" transform="translate(0,0)"/>
<path d="" fill="#2A2A88" transform="translate(0,0)"/>
<path d="" fill="#292987" transform="translate(0,0)"/>
<path d="" fill="#2A2A88" transform="translate(0,0)"/>
<path d="" fill="#B7892C" transform="translate(0,0)"/>
<path d="" fill="#2B2B86" transform="translate(0,0)"/>
<path d="" fill="#B58B2B" transform="translate(0,0)"/>
<path d="M0 0 C2 1 2 1 2 1 Z " fill="#282888" transform="translate(198,77)"/>
<path d="M0 0 C2 1 2 1 2 1 Z " fill="#2B2B87" transform="translate(322,76)"/>
<path d="M0 0 C2 1 2 1 2 1 Z " fill="#292987" transform="translate(257,76)"/>
<path d="M0 0 C2 1 2 1 2 1 Z " fill="#292987" transform="translate(196,76)"/>
<path d="M0 0 C2 1 2 1 2 1 Z " fill="#2C2C88" transform="translate(272,75)"/>
<path d="" fill="#B6892D" transform="translate(0,0)"/>
<path d="" fill="#B5882D" transform="translate(0,0)"/>
<path d="" fill="#B68A2D" transform="translate(0,0)"/>
<path d="" fill="#B88B2C" transform="translate(0,0)"/>
<path d="" fill="#C39425" transform="translate(0,0)"/>
<path d="M0 0 C2 1 2 1 2 1 Z " fill="#BD9028" transform="translate(134,52)"/>
<path d="M0 0 C2 1 2 1 2 1 Z " fill="#BA8C2B" transform="translate(69,50)"/>
<path d="M0 0 C2 1 2 1 2 1 Z " fill="#B58A2D" transform="translate(72,48)"/>
<path d="M0 0 C2 1 2 1 2 1 Z " fill="#B88B2B" transform="translate(74,47)"/>
<path d="M0 0 C2 1 2 1 2 1 Z " fill="#B88B2B" transform="translate(76,46)"/>
<path d="M0 0 C2 1 2 1 2 1 Z " fill="#B6892D" transform="translate(123,45)"/>
<path d="M0 0 C2 1 2 1 2 1 Z " fill="#B78B2B" transform="translate(78,45)"/>
<path d="M0 0 C2 1 2 1 2 1 Z " fill="#B6892D" transform="translate(120,44)"/>
<path d="M0 0 C2 1 2 1 2 1 Z " fill="#B7892C" transform="translate(118,43)"/>
<path d="M0 0 C2 1 2 1 2 1 Z " fill="#B78B2B" transform="translate(83,43)"/>
<path d="" fill="#B7892D" transform="translate(0,0)"/>
<path d="" fill="#B6892E" transform="translate(0,0)"/>
<path d="" fill="#B88A2D" transform="translate(0,0)"/>
<path d="" fill="#B4872D" transform="translate(0,0)"/>
<path d="" fill="#B78B2B" transform="translate(0,0)"/>
<path d="" fill="#BF8D25" transform="translate(0,0)"/>
<path d="" fill="#B78B2C" transform="translate(0,0)"/>
<path d="" fill="#B6892D" transform="translate(0,0)"/>
<path d="" fill="#B78B2D" transform="translate(0,0)"/>
<path d="" fill="#B7892D" transform="translate(0,0)"/>
<path d="" fill="#B6892D" transform="translate(0,0)"/>
<path d="" fill="#B68A2D" transform="translate(0,0)"/>
<path d="" fill="#B7892D" transform="translate(0,0)"/>
<path d="" fill="#B6882D" transform="translate(0,0)"/>
<path d="" fill="#B8882D" transform="translate(0,0)"/>
<path d="" fill="#B7882D" transform="translate(0,0)"/>
<path d="" fill="#B88A2B" transform="translate(0,0)"/>
<path d="" fill="#B5872E" transform="translate(0,0)"/>
<path d="" fill="#B68D2B" transform="translate(0,0)"/>
<path d="" fill="#B6882E" transform="translate(0,0)"/>
<path d="" fill="#B8892C" transform="translate(0,0)"/>
<path d="" fill="#B8882C" transform="translate(0,0)"/>
<path d="" fill="#B7892D" transform="translate(0,0)"/>
<path d="" fill="#B5892C" transform="translate(0,0)"/>
<path d="" fill="#B7892C" transform="translate(0,0)"/>
<path d="" fill="#B5892C" transform="translate(0,0)"/>
<path d="" fill="#B5882D" transform="translate(0,0)"/>
<path d="" fill="#B6892D" transform="translate(0,0)"/>
<path d="" fill="#B7892C" transform="translate(0,0)"/>
<path d="" fill="#2B2B87" transform="translate(0,0)"/>
<path d="" fill="#2B2B87" transform="translate(0,0)"/>
<path d="" fill="#2A2A88" transform="translate(0,0)"/>
<path d="" fill="#2B2B88" transform="translate(0,0)"/>
<path d="" fill="#2B2B89" transform="translate(0,0)"/>
<path d="" fill="#B78A2C" transform="translate(0,0)"/>
<path d="" fill="#30308D" transform="translate(0,0)"/>
<path d="" fill="#2B2B86" transform="translate(0,0)"/>
<path d="" fill="#2A2A85" transform="translate(0,0)"/>
<path d="" fill="#B7882D" transform="translate(0,0)"/>
<path d="" fill="#2A2A88" transform="translate(0,0)"/>
<path d="" fill="#2E2E89" transform="translate(0,0)"/>
<path d="" fill="#2B2B86" transform="translate(0,0)"/>
<path d="" fill="#2A2A86" transform="translate(0,0)"/>
<path d="" fill="#30308A" transform="translate(0,0)"/>
<path d="" fill="#2B2B86" transform="translate(0,0)"/>
<path d="" fill="#B88A2C" transform="translate(0,0)"/>
<path d="" fill="#2C2C89" transform="translate(0,0)"/>
<path d="" fill="#2B2B88" transform="translate(0,0)"/>
<path d="" fill="#2B2B88" transform="translate(0,0)"/>
<path d="" fill="#29298B" transform="translate(0,0)"/>
<path d="" fill="#2B2B88" transform="translate(0,0)"/>
<path d="" fill="#2B2B87" transform="translate(0,0)"/>
<path d="" fill="#2A2A86" transform="translate(0,0)"/>
<path d="" fill="#2B2B88" transform="translate(0,0)"/>
<path d="" fill="#2A2A86" transform="translate(0,0)"/>
<path d="" fill="#292988" transform="translate(0,0)"/>
<path d="" fill="#2A2A88" transform="translate(0,0)"/>
<path d="" fill="#292987" transform="translate(0,0)"/>
<path d="" fill="#292987" transform="translate(0,0)"/>
<path d="" fill="#292986" transform="translate(0,0)"/>
<path d="" fill="#2B2B88" transform="translate(0,0)"/>
<path d="" fill="#292988" transform="translate(0,0)"/>
<path d="" fill="#2C2C8A" transform="translate(0,0)"/>
<path d="" fill="#28288A" transform="translate(0,0)"/>
<path d="" fill="#2A2A89" transform="translate(0,0)"/>
<path d="" fill="#242489" transform="translate(0,0)"/>
<path d="" fill="#2B2B87" transform="translate(0,0)"/>
<path d="" fill="#2A2A88" transform="translate(0,0)"/>
<path d="" fill="#292989" transform="translate(0,0)"/>
<path d="" fill="#292988" transform="translate(0,0)"/>
<path d="" fill="#2B2B87" transform="translate(0,0)"/>
<path d="" fill="#2B2B87" transform="translate(0,0)"/>
<path d="" fill="#2B2B87" transform="translate(0,0)"/>
<path d="" fill="#2A2A87" transform="translate(0,0)"/>
<path d="" fill="#27278C" transform="translate(0,0)"/>
<path d="" fill="#2B2B86" transform="translate(0,0)"/>
<path d="" fill="#2B2B87" transform="translate(0,0)"/>
<path d="" fill="#2A2A87" transform="translate(0,0)"/>
<path d="" fill="#292986" transform="translate(0,0)"/>
<path d="" fill="#2A2A87" transform="translate(0,0)"/>
<path d="" fill="#2A2A88" transform="translate(0,0)"/>
<path d="" fill="#2A2A88" transform="translate(0,0)"/>
<path d="" fill="#2C2C89" transform="translate(0,0)"/>
<path d="" fill="#292987" transform="translate(0,0)"/>
<path d="" fill="#2B2B88" transform="translate(0,0)"/>
<path d="" fill="#2B2B87" transform="translate(0,0)"/>
<path d="" fill="#2B2B88" transform="translate(0,0)"/>
<path d="" fill="#292987" transform="translate(0,0)"/>
<path d="" fill="#292987" transform="translate(0,0)"/>
<path d="" fill="#2D2D8A" transform="translate(0,0)"/>
<path d="" fill="#292985" transform="translate(0,0)"/>
<path d="" fill="#2C2C87" transform="translate(0,0)"/>
<path d="" fill="#2B2B88" transform="translate(0,0)"/>
<path d="" fill="#33338C" transform="translate(0,0)"/>
<path d="" fill="#292987" transform="translate(0,0)"/>
<path d="" fill="#2B2B88" transform="translate(0,0)"/>
<path d="" fill="#292988" transform="translate(0,0)"/>
<path d="" fill="#2D2D88" transform="translate(0,0)"/>
<path d="" fill="#282889" transform="translate(0,0)"/>
<path d="" fill="#1D1D8B" transform="translate(0,0)"/>
<path d="" fill="#2A2A87" transform="translate(0,0)"/>
<path d="" fill="#2C2C8A" transform="translate(0,0)"/>
<path d="" fill="#2A2A8A" transform="translate(0,0)"/>
<path d="" fill="#2A2A88" transform="translate(0,0)"/>
<path d="" fill="#252587" transform="translate(0,0)"/>
<path d="" fill="#2A2A88" transform="translate(0,0)"/>
<path d="" fill="#2A2A88" transform="translate(0,0)"/>
<path d="" fill="#2B2B87" transform="translate(0,0)"/>
<path d="" fill="#292987" transform="translate(0,0)"/>
<path d="" fill="#2A2A86" transform="translate(0,0)"/>
<path d="" fill="#292988" transform="translate(0,0)"/>
<path d="" fill="#2C2C88" transform="translate(0,0)"/>
<path d="" fill="#27278B" transform="translate(0,0)"/>
<path d="" fill="#2C2C87" transform="translate(0,0)"/>
<path d="" fill="#2C2C88" transform="translate(0,0)"/>
<path d="" fill="#2C2C88" transform="translate(0,0)"/>
<path d="" fill="#2B2B87" transform="translate(0,0)"/>
<path d="" fill="#2C2C88" transform="translate(0,0)"/>
<path d="" fill="#2C2C88" transform="translate(0,0)"/>
<path d="" fill="#B6892D" transform="translate(0,0)"/>
<path d="" fill="#B7892C" transform="translate(0,0)"/>
<path d="" fill="#B78A2C" transform="translate(0,0)"/>
<path d="" fill="#B5892E" transform="translate(0,0)"/>
<path d="" fill="#B78B2C" transform="translate(0,0)"/>
<path d="" fill="#B6872D" transform="translate(0,0)"/>
<path d="" fill="#B78B2D" transform="translate(0,0)"/>
<path d="" fill="#B78A2C" transform="translate(0,0)"/>
<path d="" fill="#BA8D2A" transform="translate(0,0)"/>
<path d="" fill="#B4892E" transform="translate(0,0)"/>
<path d="" fill="#B78A2C" transform="translate(0,0)"/>
<path d="" fill="#B6872C" transform="translate(0,0)"/>
<path d="" fill="#BB8E2A" transform="translate(0,0)"/>
<path d="" fill="#B6892C" transform="translate(0,0)"/>
<path d="" fill="#B4882D" transform="translate(0,0)"/>
<path d="" fill="#B6892D" transform="translate(0,0)"/>
<path d="" fill="#B38730" transform="translate(0,0)"/>
<path d="" fill="#B78A2C" transform="translate(0,0)"/>
<path d="" fill="#B68A2F" transform="translate(0,0)"/>
<path d="" fill="#B78A2D" transform="translate(0,0)"/>
<path d="" fill="#B68A2F" transform="translate(0,0)"/>
<path d="" fill="#B88A2C" transform="translate(0,0)"/>
<path d="" fill="#B68A2E" transform="translate(0,0)"/>
<path d="" fill="#B4872E" transform="translate(0,0)"/>
<path d="" fill="#B5892F" transform="translate(0,0)"/>
<path d="" fill="#B7892D" transform="translate(0,0)"/>
<path d="" fill="#B58830" transform="translate(0,0)"/>
<path d="" fill="#B5882D" transform="translate(0,0)"/>
<path d="" fill="#B98D29" transform="translate(0,0)"/>
<path d="" fill="#B88B2C" transform="translate(0,0)"/>
<path d="" fill="#B78C2C" transform="translate(0,0)"/>
<path d="" fill="#B6892E" transform="translate(0,0)"/>
<path d="" fill="#B5882D" transform="translate(0,0)"/>
<path d="" fill="#B88C2A" transform="translate(0,0)"/>
<path d="" fill="#B88A2D" transform="translate(0,0)"/>
<path d="" fill="#B6892D" transform="translate(0,0)"/>
<path d="" fill="#B5892D" transform="translate(0,0)"/>
<path d="" fill="#B6892D" transform="translate(0,0)"/>
<path d="" fill="#B78A2C" transform="translate(0,0)"/>
</svg>
